<?xml version="1.0" standalone="no"?>
<!DOCTYPE svg PUBLIC "-//W3C//DTD SVG 20010904//EN"
 "http://www.w3.org/TR/2001/REC-SVG-20010904/DTD/svg10.dtd">
<svg version="1.0" xmlns="http://www.w3.org/2000/svg"
 width="700.000000pt" height="350.000000pt" viewBox="0 0 700.000000 350.000000"
 preserveAspectRatio="xMidYMid meet">

<g transform="translate(0.000000,350.000000) scale(0.100000,-0.100000)"
fill="#000000" stroke="none">
<path d="M4108 3430 c-15 -4 -29 -6 -32 -3 -14 14 -36 -23 -36 -59 0 -60 -15
-81 -53 -72 -17 3 -43 15 -57 26 -26 19 -27 19 -60 1 -19 -11 -41 -31 -50 -46
-8 -14 -27 -36 -42 -47 -16 -12 -28 -29 -28 -38 0 -9 -9 -30 -20 -47 -26 -40
-25 -67 5 -99 14 -15 25 -30 25 -34 0 -4 13 -23 30 -42 29 -34 30 -35 46 -15
15 19 16 18 9 -15 -4 -19 -11 -39 -15 -45 -13 -18 -17 -75 -8 -133 8 -55 45
-142 60 -142 5 0 8 -9 8 -19 0 -11 5 -23 10 -26 6 -3 10 -32 10 -63 0 -31 5
-73 10 -92 7 -25 6 -59 -3 -110 -10 -63 -15 -75 -31 -75 -27 0 -60 -60 -46
-83 8 -13 10 -14 8 -2 -2 9 0 17 5 18 19 6 27 0 27 -20 0 -18 -2 -20 -9 -9 -8
12 -11 9 -16 -12 -4 -15 -11 -27 -16 -27 -5 0 -6 8 -2 18 4 12 -2 10 -21 -9
-19 -18 -29 -39 -33 -70 -2 -24 -9 -54 -15 -65 -7 -15 -7 -28 1 -42 6 -11 11
-30 11 -42 0 -35 38 -100 59 -100 34 0 51 -12 51 -34 0 -45 9 -46 305 -46 238
0 284 2 303 16 12 8 22 24 22 34 0 13 12 25 35 34 35 15 57 50 85 139 9 30 9
42 0 50 -8 9 -10 8 -5 -5 4 -10 3 -18 -3 -18 -5 0 -7 17 -5 39 4 30 -1 48 -21
80 -14 22 -26 45 -26 50 0 6 -8 15 -17 21 -17 11 -17 11 0 6 23 -7 22 9 -3 44
-14 19 -26 27 -39 23 -17 -4 -22 4 -36 52 -15 49 -15 71 -5 163 11 104 17 128
67 240 12 28 26 71 29 95 7 42 7 42 -14 24 -20 -18 -21 -18 -32 3 -10 19 -9
26 9 43 12 12 21 16 21 10 0 -7 -4 -15 -10 -18 -5 -3 -10 -13 -10 -21 0 -12 3
-12 20 -2 24 16 26 63 5 115 -20 48 -19 60 4 32 l19 -24 26 24 c28 27 33 41
14 41 -7 0 -23 8 -36 18 l-23 18 31 -1 c17 0 28 -5 26 -11 -2 -6 2 -11 10 -11
16 0 74 61 74 77 0 18 -19 10 -25 -10 -4 -11 -10 -18 -15 -15 -5 3 -13 -3 -19
-12 -11 -20 -9 -22 -26 32 -3 10 -17 15 -40 15 -34 0 -36 2 -33 28 3 23 7 27
31 24 18 -2 26 1 22 7 -3 6 -17 11 -31 11 -13 0 -24 5 -24 10 0 6 -5 10 -11
10 -5 0 -8 -4 -5 -8 3 -5 -4 -16 -15 -25 -11 -10 -17 -22 -14 -27 3 -6 1 -10
-4 -10 -19 0 -12 35 10 53 23 20 21 31 -4 21 -9 -3 -19 -14 -22 -25 -8 -24
-29 -25 -22 -1 8 31 9 37 8 55 0 9 -6 17 -11 17 -6 0 -10 -8 -8 -17 2 -10 -7
-22 -20 -29 -15 -7 -20 -14 -13 -18 6 -4 16 -4 21 -1 6 3 10 -1 10 -10 0 -20
-42 -37 -52 -21 -4 6 -8 -8 -8 -31 0 -23 -3 -49 -7 -59 -5 -13 -3 -15 7 -9 10
6 11 0 6 -31 -5 -30 -4 -35 4 -24 9 12 10 7 5 -17 -6 -29 -4 -32 12 -26 17 7
17 6 1 -19 -19 -29 -12 -47 8 -20 12 16 13 16 14 0 0 -9 -4 -20 -10 -23 -5 -3
-10 -20 -10 -38 0 -51 -16 -18 -30 63 -7 41 -16 85 -21 97 -11 29 9 134 28
150 9 7 10 13 4 17 -14 9 -10 48 7 69 8 9 25 17 38 17 14 0 25 8 29 20 3 11 9
20 13 21 4 0 15 2 24 4 22 4 62 -40 55 -60 -4 -8 -12 -14 -19 -13 -6 2 -14 -5
-16 -14 -4 -22 11 -23 33 -2 16 16 46 14 75 -6 13 -9 13 -12 -2 -21 -25 -14
-22 -24 7 -24 19 0 25 5 25 22 0 27 -25 53 -51 53 -11 0 -23 10 -28 23 -22 57
-90 77 -125 38 -10 -11 -30 -24 -46 -29 -30 -11 -29 -14 -63 113 l-14 50 -104
2 c-57 1 -116 -2 -131 -7z m168 -69 c19 -7 39 -22 44 -34 l9 -22 0 23 c1 12
-3 22 -8 22 -5 0 -7 8 -4 19 6 25 -10 33 -42 21 -24 -9 -26 -8 -23 12 2 12 9
23 16 26 8 2 10 -2 6 -15 -6 -15 -4 -16 7 -5 26 24 46 14 58 -31 7 -23 11 -47
10 -52 -2 -6 2 -19 8 -30 10 -19 15 -62 14 -128 0 -35 -28 -67 -37 -43 -3 8
-4 23 -2 33 2 10 -3 24 -12 31 -8 8 -10 11 -3 7 14 -7 33 25 33 57 0 22 -1 22
-19 -6 -18 -27 -19 -28 -30 -9 -7 15 -7 23 2 32 9 10 6 11 -15 6 -19 -5 -28
-3 -28 5 0 6 -5 8 -11 4 -8 -5 -8 -1 0 14 6 12 17 24 24 28 9 6 9 4 -1 -8 -10
-13 -9 -16 7 -21 12 -3 22 1 25 10 8 20 -1 33 -24 33 -30 0 -52 -29 -48 -64 2
-25 -1 -31 -17 -31 -16 0 -20 6 -18 29 3 41 -13 66 -42 66 -22 0 -27 -5 -24
-26 0 -4 -5 -11 -13 -15 -9 -6 -9 -9 -1 -9 6 0 15 5 19 11 4 8 9 7 15 -2 15
-24 10 -31 -18 -24 -25 6 -26 5 -10 -7 16 -12 16 -16 4 -33 -13 -16 -16 -17
-29 -4 -8 8 -18 21 -21 29 -7 15 -4 -25 9 -113 6 -44 5 -49 -11 -45 -10 1 -23
11 -29 20 -8 14 -6 21 9 32 18 14 18 15 3 16 -11 0 -18 8 -18 19 0 11 -3 26
-6 35 -3 9 -1 16 5 16 6 0 11 -7 11 -15 0 -8 5 -15 11 -15 5 0 3 13 -7 29 -19
31 -12 99 7 70 6 -9 7 4 3 39 -7 56 -4 59 59 54 9 -1 17 3 17 8 0 6 11 10 25
10 20 0 25 -5 26 -27 l2 -28 4 28 c2 15 8 25 13 22 5 -3 12 0 17 7 5 9 9 3 11
-18 2 -25 10 -33 38 -43z m34 14 c0 -8 -4 -15 -10 -15 -5 0 -10 7 -10 15 0 8
5 15 10 15 6 0 10 -7 10 -15z m-142 -70 c-3 -3 -9 2 -12 12 -6 14 -5 15 5 6 7
-7 10 -15 7 -18z m-238 -14 c5 -11 10 -30 10 -43 1 -20 2 -21 11 -5 5 9 7 22
4 27 -3 6 1 10 10 10 9 0 13 -4 10 -10 -3 -5 -4 -10 -1 -10 2 0 12 -3 20 -6
12 -5 15 -2 9 12 -4 11 -3 15 4 11 16 -10 13 -59 -4 -86 -14 -22 -14 -24 1
-18 12 5 16 1 16 -16 0 -18 -2 -19 -10 -7 -8 13 -10 12 -10 -3 0 -17 -1 -17
-25 0 -35 25 -33 52 3 45 19 -3 24 -1 17 6 -5 6 -22 13 -37 16 -26 4 -28 2
-28 -30 0 -19 -5 -34 -10 -34 -7 0 -7 -6 0 -20 7 -12 7 -27 2 -37 -5 -10 -7
-44 -6 -75 2 -35 -1 -60 -8 -64 -8 -5 -9 -1 -5 10 4 11 -1 28 -13 43 -22 29
-19 43 5 23 23 -19 20 6 -5 37 -22 29 -19 43 5 23 12 -10 15 -10 15 4 0 9 -7
19 -15 22 -8 4 -15 10 -15 16 0 5 5 6 10 3 6 -3 10 -2 10 4 0 5 -5 13 -11 17
-8 5 -6 10 5 16 16 9 23 68 7 68 -4 0 -6 -11 -4 -24 3 -14 -1 -25 -10 -29 -10
-4 -13 1 -10 17 3 16 -2 25 -21 34 -34 15 -33 26 7 50 41 26 54 26 67 3z m340
-49 c0 -4 -5 -13 -12 -20 -7 -7 -8 -12 -4 -12 5 0 15 8 22 18 7 9 14 12 14 6
0 -18 -26 -35 -43 -28 -13 5 -14 9 -4 25 12 19 27 25 27 11z m-410 -42 c0 -4
-8 -11 -17 -14 -14 -6 -14 -9 6 -22 20 -15 22 -22 17 -84 -3 -45 -11 -76 -23
-89 -21 -25 -40 -27 -40 -6 0 8 8 15 18 15 23 0 33 45 15 71 -7 11 -16 17 -18
12 -3 -4 -3 -3 -2 4 5 22 -15 24 -28 3 -15 -24 -41 -26 -59 -4 -10 13 -10 20
3 42 22 35 53 44 43 12 -5 -17 -4 -20 5 -15 9 6 11 4 5 -5 -5 -9 -2 -10 14 -5
12 4 21 2 21 -4 0 -6 5 -11 10 -11 21 0 9 20 -15 26 -26 6 -33 28 -15 39 8 5
7 11 -1 21 -9 11 -15 11 -25 3 -8 -6 -14 -8 -14 -3 0 4 12 18 27 30 25 20 29
20 50 7 13 -9 23 -19 23 -23z m301 10 c6 0 7 4 4 10 -4 6 1 7 11 3 15 -5 15
-7 0 -15 -9 -5 -21 -6 -26 -3 -6 3 -10 1 -10 -6 0 -7 -2 -10 -5 -7 -3 3 -2 13
2 24 4 11 8 13 11 6 2 -7 8 -12 13 -12z m67 -21 c11 -18 20 -21 53 -16 34 4
39 2 39 -14 0 -24 -40 -80 -51 -73 -5 3 -6 -2 -3 -11 6 -14 -2 -16 -52 -13
l-59 3 -3 34 -3 34 31 -26 c34 -29 59 -25 79 11 5 9 13 14 17 10 10 -10 34 11
34 29 0 10 -4 11 -19 3 -11 -5 -24 -10 -30 -10 -11 0 -61 44 -61 54 0 13 16 5
28 -15z m67 2 c-3 -6 -16 -11 -28 -11 -21 0 -21 1 3 13 27 15 36 14 25 -2z
m-179 -35 c0 -25 -4 -42 -7 -38 -10 11 -19 69 -12 76 15 14 20 3 19 -38z m79
33 c10 -15 2 -19 -24 -12 -17 4 -19 8 -9 14 18 12 26 11 33 -2z m-23 -31 c-9
-9 -15 -9 -24 0 -9 9 -7 12 12 12 19 0 21 -3 12 -12z m-177 -68 c-8 -13 -45
21 -45 43 0 15 3 14 26 -8 14 -14 22 -29 19 -35z m536 26 c-6 -14 -15 -26 -21
-26 -6 0 -15 -10 -19 -22 -8 -20 -10 -21 -16 -5 -10 24 1 48 19 41 11 -4 19 3
26 21 6 15 13 26 16 23 2 -3 0 -17 -5 -32z m-296 4 c0 -18 -33 -26 -47 -12 -6
6 -7 15 -3 22 10 16 50 8 50 -10z m226 -5 c0 -5 -10 -13 -23 -16 -13 -3 -22
-12 -20 -20 3 -11 1 -11 -9 -2 -10 10 -9 17 6 33 19 21 46 24 46 5z m-431 -21
c0 -8 -4 -12 -10 -9 -5 3 -10 13 -10 21 0 8 5 12 10 9 6 -3 10 -13 10 -21z
m-31 -32 c23 4 42 -40 29 -68 -11 -25 -28 -23 -28 2 0 8 5 12 10 9 12 -8 13 5
0 25 -7 12 -10 11 -15 -5 -4 -11 -11 -28 -16 -37 -5 -10 -9 -27 -9 -38 0 -11
-4 -20 -10 -20 -5 0 -7 -7 -4 -15 4 -8 3 -23 -1 -32 -5 -10 -7 -26 -6 -35 4
-31 -15 -20 -29 17 -8 19 -17 35 -20 35 -15 0 -19 -14 -8 -28 10 -11 9 -17 -2
-26 -8 -6 -15 -19 -16 -28 -3 -66 -3 -65 -24 -33 -10 16 -17 31 -14 34 3 3 9
-1 14 -9 18 -29 24 1 6 31 -20 34 -12 55 10 25 12 -17 14 -17 14 -4 0 9 -4 20
-10 23 -5 3 -10 13 -10 22 0 13 2 14 17 2 15 -12 16 -12 9 6 -16 39 -19 65 -6
65 7 0 10 -7 7 -15 -4 -8 -2 -17 4 -21 6 -3 14 -17 19 -30 5 -13 14 -24 20
-24 13 0 13 13 -1 27 -14 14 -1 36 17 29 19 -7 18 8 -1 24 -8 7 -15 20 -14 29
0 10 2 11 6 4 2 -7 12 -13 21 -13 12 0 11 4 -6 23 -21 22 -29 66 -16 80 3 3
16 -3 27 -14 11 -10 28 -18 36 -17z m81 19 c0 7 15 -3 33 -23 17 -20 42 -39
55 -43 27 -8 50 -45 28 -45 -8 0 -20 8 -25 18 -6 9 -11 11 -11 5 0 -25 -28
-12 -41 19 -11 27 -14 29 -20 12 -6 -17 -8 -16 -17 8 -6 14 -16 29 -21 33 -6
3 -11 11 -11 17 0 7 6 6 15 -2 12 -10 15 -10 15 1z m270 -11 c0 -12 -8 -30
-19 -41 -18 -20 -18 -20 -24 3 -4 14 0 29 10 40 21 24 33 23 33 -2z m241 -7
c-7 -13 -10 -14 -11 -4 0 11 -4 10 -14 -4 -17 -24 -10 -45 15 -45 14 0 19 -7
19 -26 l0 -26 -30 30 c-33 33 -40 76 -14 86 9 3 20 4 25 0 5 -3 9 0 9 7 0 7 3
10 6 6 3 -3 1 -14 -5 -24z m-141 3 c0 -7 -7 -19 -15 -26 -16 -13 -20 -3 -9 24
8 20 24 21 24 2z m56 -50 c-32 -31 -34 -11 -3 28 16 20 23 24 25 13 2 -8 -8
-27 -22 -41z m-706 -1 c-14 -17 -30 -11 -30 10 0 9 6 12 15 9 9 -4 15 0 16 7
0 11 2 11 6 1 3 -7 -1 -19 -7 -27z m490 -31 c-7 -7 -16 -14 -20 -14 -13 0 -5
45 10 57 12 9 16 8 18 -8 2 -11 -2 -27 -8 -35z m166 21 c-20 -15 -21 -29 -1
-22 8 4 17 2 20 -4 4 -5 -1 -12 -9 -15 -23 -9 -19 -26 4 -19 20 6 28 -9 10
-20 -5 -3 -10 -13 -10 -22 0 -15 2 -14 18 0 28 25 37 20 17 -9 -19 -30 -11
-47 9 -18 21 28 30 10 11 -20 l-17 -26 -29 32 c-16 18 -29 40 -29 48 -1 8 -7
32 -14 52 -12 34 -12 39 7 59 15 16 22 19 25 9 3 -7 -3 -19 -12 -25z m-198
-14 c-2 -9 -11 -17 -20 -19 -11 -2 -16 4 -14 21 1 18 6 23 19 19 10 -2 17 -12
15 -21z m-197 -24 c-8 -8 -11 -7 -11 4 0 20 13 34 18 19 3 -7 -1 -17 -7 -23z
m465 17 c-3 -9 -6 -23 -6 -32 0 -10 -3 -13 -10 -6 -11 11 -2 54 12 54 6 0 7
-7 4 -16z m-523 -60 c-3 -44 -18 -65 -26 -35 -3 12 -1 21 5 21 6 0 8 13 6 30
-3 19 -1 29 6 27 6 -2 10 -21 9 -43z m93 18 c-8 -9 -19 -13 -22 -9 -10 9 16
38 28 31 6 -4 4 -13 -6 -22z m229 19 c3 -5 1 -12 -5 -16 -5 -3 -10 1 -10 9 0
18 6 21 15 7z m-175 -15 c0 -15 -29 -55 -34 -47 -7 11 14 51 26 51 5 0 8 -2 8
-4z m50 -7 c0 -6 -11 -24 -25 -41 -24 -28 -25 -28 -25 -7 0 22 26 59 42 59 4
0 8 -5 8 -11z m50 -3 c0 -7 7 -19 15 -26 17 -14 20 -40 5 -40 -5 0 -10 6 -10
14 0 8 -6 16 -14 19 -19 8 -28 47 -10 47 8 0 14 -6 14 -14z m70 -35 c0 -10 -8
-7 -25 9 -14 13 -25 27 -25 32 0 15 49 -26 50 -41z m48 23 c4 -18 3 -18 -12 1
-15 20 -15 20 -10 -1 3 -12 2 -24 -3 -27 -10 -6 -14 19 -7 41 6 19 28 9 32
-14z m181 -17 c1 -5 -3 -5 -9 -2 -5 3 -10 16 -9 28 0 21 1 21 9 2 5 -11 9 -24
9 -28z m-503 -4 c-10 -10 -19 5 -10 18 6 11 8 11 12 0 2 -7 1 -15 -2 -18z
m224 -70 c0 -7 -4 -13 -10 -13 -5 0 -10 7 -10 15 0 8 -10 20 -22 26 -19 10
-25 8 -50 -20 -24 -27 -28 -29 -28 -11 0 11 5 20 10 20 6 0 10 7 10 15 0 8 6
15 14 15 8 0 18 9 21 21 6 18 9 17 36 -18 15 -21 29 -44 29 -50z m-170 71 c0
-3 -9 -17 -20 -31 -22 -28 -28 -15 -8 17 12 19 28 27 28 14z m283 -19 c4 -8 2
-17 -3 -20 -6 -4 -10 -4 -10 -1 0 2 -3 11 -6 20 -3 9 -2 16 4 16 5 0 12 -7 15
-15z m-58 -45 c-5 -8 -11 -6 -22 7 -13 16 -13 15 -1 -7 7 -14 13 -55 13 -92 1
-66 1 -67 -17 -48 -10 10 -18 27 -18 37 0 15 2 16 10 3 5 -8 12 -11 16 -7 4 4
2 13 -4 19 -15 15 -16 42 -2 33 13 -8 13 8 1 21 -10 9 -14 35 -12 69 1 19 2
19 22 -2 12 -11 18 -26 14 -33z m30 29 c11 -17 -1 -21 -15 -4 -8 9 -8 15 -2
15 6 0 14 -5 17 -11z m-313 -21 c-7 -7 -12 -8 -12 -2 0 6 3 14 7 17 3 4 9 5
12 2 2 -3 -1 -11 -7 -17z m84 6 c-3 -9 -6 -21 -6 -27 0 -8 -3 -8 -11 0 -13 13
-5 43 12 43 6 0 8 -7 5 -16z m319 -11 c-6 -27 -6 -27 9 -9 16 20 16 20 16 0 0
-10 -4 -26 -9 -33 -8 -12 -12 -10 -22 11 -6 15 -9 34 -6 42 10 26 18 18 12
-11z m-455 1 c0 -8 -4 -12 -10 -9 -5 3 -10 10 -10 16 0 5 5 9 10 9 6 0 10 -7
10 -16z m400 -10 c0 -8 -5 -12 -10 -9 -6 4 -8 11 -5 16 9 14 15 11 15 -7z
m-460 -13 c5 -11 10 -24 10 -30 0 -17 -17 -13 -24 7 -3 9 -9 23 -12 30 -9 20
14 14 26 -7z m146 -23 c-15 -21 -16 -22 -16 -2 0 11 6 26 12 32 19 19 22 -4 4
-30z m171 20 c24 -23 29 -43 13 -53 -5 -3 -7 0 -4 9 3 9 -5 21 -20 31 -14 10
-26 21 -26 26 0 15 12 10 37 -13z m-9 -47 c30 -28 34 -36 24 -52 -16 -25 -15
-30 4 -27 23 4 42 -49 24 -65 -8 -7 -11 -8 -7 -1 3 6 2 24 -3 40 -5 18 -9 22
-9 11 -1 -15 -9 -10 -34 21 l-33 39 -22 -31 c-16 -22 -22 -26 -22 -13 0 10 9
27 19 39 18 19 21 19 42 4 40 -28 45 -17 9 18 -26 25 -38 31 -47 24 -7 -6 -13
-17 -13 -24 0 -8 -4 -14 -10 -14 -13 0 -13 13 2 47 15 33 32 47 37 30 2 -7 19
-27 39 -46z m129 23 c-3 -3 -13 0 -21 9 -8 8 -12 18 -9 21 4 4 14 0 22 -9 8
-8 12 -17 8 -21z m133 8 c0 -10 -7 -27 -15 -38 -13 -17 -14 -16 -5 16 6 19 10
36 10 37 0 2 2 3 5 3 3 0 5 -8 5 -18z m-450 -1 c0 -6 -4 -13 -10 -16 -5 -3
-10 1 -10 9 0 9 5 16 10 16 6 0 10 -4 10 -9z m90 -5 c0 -7 -7 -19 -15 -26 -15
-13 -11 -35 6 -25 5 4 9 -3 9 -13 0 -11 -7 -23 -16 -26 -12 -5 -15 -2 -10 10
4 9 1 23 -5 31 -9 10 -9 20 -1 38 12 27 32 34 32 11z m300 -25 c0 -14 -7 -35
-15 -45 -17 -23 -19 -17 -5 18 8 23 -2 38 -13 19 -2 -5 -2 -2 0 5 1 8 3 20 3
28 0 8 6 11 15 8 8 -4 15 -18 15 -33z m-520 0 c5 -11 10 -28 9 -38 0 -15 -2
-15 -9 3 -5 12 -13 25 -19 29 -6 3 -11 10 -11 16 0 16 19 10 30 -10z m433 -12
c4 -16 3 -18 -9 -8 -16 13 -19 29 -5 29 5 0 11 -9 14 -21z m-498 -10 c10 -30
2 -32 -12 -3 -6 13 -7 24 -3 24 5 0 12 -9 15 -21z m115 15 c0 -8 -19 -13 -24
-6 -3 5 1 9 9 9 8 0 15 -2 15 -3z m116 -39 c-2 -25 -6 -48 -9 -51 -7 -7 -7 54
0 79 8 30 12 18 9 -28z m425 8 c-10 -17 -10 -16 -11 3 0 23 13 41 18 25 2 -6
-1 -18 -7 -28z m-470 -6 c-8 -8 -11 -7 -11 4 0 20 13 34 18 19 3 -7 -1 -17 -7
-23z m-57 -1 c-5 -13 -9 -14 -21 -4 -13 10 -13 13 4 19 23 8 25 6 17 -15z
m556 -11 c-6 -8 -8 -20 -4 -27 5 -10 4 -10 -5 -2 -9 8 -9 17 1 39 7 15 14 22
16 16 2 -7 -1 -18 -8 -26z m-630 -16 c0 -4 -6 -18 -13 -32 l-13 -25 -12 30
c-9 25 -9 28 4 17 18 -15 32 -3 16 13 -7 7 -12 19 -12 28 1 12 4 11 15 -4 8
-11 15 -23 15 -27z m544 6 c-5 -19 -9 -23 -15 -14 -4 7 -3 21 3 32 13 26 21
15 12 -18z m-104 -6 c0 -6 -4 -7 -10 -4 -5 3 -10 11 -10 16 0 6 5 7 10 4 6 -3
10 -11 10 -16z m-298 -11 c-7 -7 -12 -8 -12 -2 0 6 3 14 7 17 3 4 9 5 12 2 2
-3 -1 -11 -7 -17z m-97 -8 c3 -11 0 -29 -8 -40 -14 -20 -15 -20 -20 -1 -3 14
-1 18 9 14 17 -6 19 18 2 35 -9 9 -9 12 -1 12 7 0 14 -9 18 -20z m45 10 c0 -5
-4 -10 -10 -10 -5 0 -10 5 -10 10 0 6 5 10 10 10 6 0 10 -4 10 -10z m24 -6 c3
-8 2 -12 -4 -9 -6 3 -10 10 -10 16 0 14 7 11 14 -7z m102 -26 c-19 -27 -21
-19 -4 18 7 14 14 21 16 15 2 -6 -4 -21 -12 -33z m114 8 c0 -5 7 -17 16 -27
10 -11 12 -19 5 -24 -6 -3 -11 0 -11 7 -1 7 -10 24 -21 38 l-21 25 -19 -24
c-23 -28 -26 -15 -4 17 14 18 19 20 35 9 11 -6 20 -16 20 -21z m165 12 c-4
-13 -12 -27 -18 -33 -7 -7 -8 -4 -3 8 3 10 6 25 6 33 0 8 5 14 11 14 6 0 8 -9
4 -22z m72 -8 c-7 -18 -14 -25 -18 -18 -4 6 -2 19 4 30 18 28 27 21 14 -12z
m29 -25 c-6 -19 -13 -30 -14 -25 -6 16 7 60 17 60 4 0 3 -16 -3 -35z m-523 -6
c-9 -9 -12 -7 -10 9 1 14 5 18 11 12 7 -7 6 -14 -1 -21z m349 -1 c-8 -8 -9 -4
-5 13 4 13 8 18 11 10 2 -7 -1 -18 -6 -23z m90 10 c-4 -17 -2 -20 12 -15 14 6
16 3 11 -13 -5 -16 -2 -20 14 -20 23 0 26 -7 11 -30 -8 -13 -10 -12 -10 3 0 9
-4 17 -9 17 -14 0 -43 50 -37 66 8 22 15 16 8 -8z m-339 -3 c-3 -9 -8 -14 -10
-11 -3 3 -2 9 2 15 9 16 15 13 8 -4z m-53 -150 c9 -73 9 -108 1 -128 -6 -16
-11 -43 -11 -60 0 -22 -3 -28 -9 -18 -6 10 -14 -4 -27 -45 -10 -33 -18 -62
-18 -67 -1 -11 -55 -37 -60 -29 -2 4 -2 19 1 34 4 19 10 25 20 21 17 -7 43 21
43 46 0 9 -3 12 -8 6 -4 -5 -13 -11 -19 -13 -18 -3 -17 67 3 142 11 42 14 81
10 127 -5 61 -4 67 19 89 14 13 25 31 26 39 2 32 18 -46 29 -144z m120 148 c0
-5 -8 -17 -17 -28 -14 -18 -15 -18 -9 -2 3 10 6 23 6 28 0 5 5 9 10 9 6 0 10
-3 10 -7z m88 -37 c8 -15 12 -30 9 -32 -3 -3 -11 9 -18 25 -15 35 -29 35 -44
3 -11 -25 -25 -29 -25 -8 0 15 40 46 55 42 6 -1 16 -15 23 -30z m175 -37 c12
-17 21 -63 27 -134 5 -59 13 -112 18 -119 12 -15 21 -66 15 -84 -5 -11 -7 -11
-14 0 -7 10 -9 9 -9 -3 0 -9 6 -19 14 -22 11 -4 46 -60 46 -73 0 -12 -30 12
-31 25 -1 14 -2 14 -6 -1 -2 -10 -9 -18 -14 -18 -12 0 -59 98 -59 124 0 12 -7
35 -16 51 -17 32 -19 66 -13 211 4 94 7 97 42 43z m-364 -16 c0 -40 -2 -44
-10 -25 -8 21 -3 72 7 72 2 0 4 -21 3 -47z m288 5 c7 -43 7 -43 15 -13 4 17 5
-6 2 -51 -3 -44 -9 -94 -14 -110 -8 -22 -9 -9 -6 51 l5 80 -16 -69 c-13 -56
-14 -77 -5 -113 15 -53 16 -113 2 -113 -5 0 -12 11 -15 25 -3 14 -8 37 -11 53
-6 27 -10 93 -15 210 -2 52 1 65 17 77 29 22 33 19 41 -27z m-227 22 c11 -7
15 -30 16 -92 0 -46 4 -114 9 -152 6 -52 5 -67 -3 -62 -17 10 -14 -13 7 -61
15 -33 17 -43 6 -47 -8 -3 -16 5 -20 22 -5 20 -8 23 -15 12 -5 -9 -5 -20 2
-27 8 -10 7 -12 -6 -7 -9 3 -16 1 -16 -5 0 -6 -7 -11 -15 -11 -17 0 -16 60 2
75 16 14 30 70 14 61 -7 -5 -12 4 -13 26 -1 18 -3 51 -4 73 -1 22 -5 77 -10
123 -6 76 -6 82 12 82 10 0 26 -5 34 -10z m95 -10 c-4 -12 -1 -28 7 -37 7 -9
14 -39 15 -67 1 -28 3 -111 6 -183 l4 -133 -27 0 c-26 0 -28 3 -33 58 -9 83 1
322 14 354 13 32 23 38 14 8z m-41 -67 c-1 -32 -2 -71 -4 -88 -2 -30 -2 -30
-10 -5 -10 31 -12 144 -4 153 14 14 19 -3 18 -60z m-224 -10 c0 -58 -10 -50
-15 11 -2 27 0 44 6 41 5 -4 9 -27 9 -52z m324 35 c13 -50 3 -143 -15 -132
-12 7 -12 154 0 154 5 0 11 -10 15 -22z m205 -55 c-1 -106 -17 -124 -18 -20
-1 52 3 87 9 87 6 0 10 -29 9 -67z m-399 -218 c6 4 10 2 10 -3 0 -5 -12 -9
-26 -9 -21 0 -25 3 -20 21 4 11 10 50 14 86 l7 65 3 -83 c2 -49 7 -80 12 -77z
m205 83 c-8 -57 -23 -105 -24 -77 -1 22 21 129 26 129 3 0 2 -24 -2 -52z m94
-73 c0 -37 -1 -39 -14 -21 -16 21 -19 53 -8 82 6 16 7 16 14 -2 4 -10 8 -37 8
-59z m-212 3 c-3 -7 -5 -2 -5 12 0 14 2 19 5 13 2 -7 2 -19 0 -25z m141 -70
c1 6 7 12 13 12 6 0 9 -8 7 -17 -2 -10 -10 -17 -16 -15 -7 1 -12 -5 -12 -13 0
-13 -2 -13 -14 -3 -9 9 -11 20 -5 36 5 13 10 42 11 65 1 36 2 34 8 -18 4 -33
7 -54 8 -47z m89 60 c-3 -7 -5 -2 -5 12 0 14 2 19 5 13 2 -7 2 -19 0 -25z m11
-43 c-3 -3 -9 2 -12 12 -6 14 -5 15 5 6 7 -7 10 -15 7 -18z m-357 -18 c-16
-16 -13 -32 3 -18 12 10 13 8 9 -8 -3 -12 -9 -21 -13 -21 -15 0 -19 31 -8 56
7 15 14 21 16 14 2 -6 -1 -17 -7 -23z m306 21 c0 -7 3 -23 7 -35 4 -13 3 -23
-2 -23 -11 0 -23 50 -15 62 6 11 10 10 10 -4z m-480 -30 c-3 -7 -5 -2 -5 12 0
14 2 19 5 13 2 -7 2 -19 0 -25z m24 -11 c-8 -8 -11 -5 -11 9 0 27 14 41 18 19
2 -9 -1 -22 -7 -28z m489 18 c6 -16 14 -23 25 -19 11 4 15 0 15 -17 0 -17 -3
-20 -11 -12 -6 6 -17 9 -25 6 -8 -3 -13 2 -12 14 0 10 -3 26 -7 36 -4 9 -4 17
-1 17 4 0 11 -11 16 -25z m140 -11 c0 -8 -4 -14 -10 -14 -5 0 -10 9 -10 21 0
11 5 17 10 14 6 -3 10 -13 10 -21z m27 6 c1 -11 -2 -20 -8 -20 -5 0 -9 9 -9
20 0 11 4 20 8 20 4 0 8 -9 9 -20z m-414 -63 c-4 -7 1 -8 13 -3 70 29 129 13
179 -46 22 -27 27 -29 21 -10 -6 18 -4 22 13 22 23 0 26 -12 12 -56 -14 -42
-20 -124 -10 -124 5 0 9 12 10 28 1 26 1 26 9 -6 4 -18 19 -44 34 -58 31 -31
34 -24 6 14 -24 34 -39 153 -27 215 1 6 -10 11 -25 11 -14 1 -30 4 -33 8 -4 4
21 6 56 5 36 -2 64 -8 66 -14 4 -12 -14 -12 -34 0 -14 9 -28 -27 -17 -44 5 -9
11 -6 21 6 12 17 13 15 13 -21 0 -22 -6 -46 -12 -54 -7 -8 -4 -7 8 3 30 25 45
21 42 -10 -3 -23 1 -28 18 -25 11 1 28 -5 36 -15 14 -16 15 -23 2 -58 -7 -22
-14 -48 -14 -58 0 -10 -4 -16 -9 -13 -5 4 -12 0 -14 -6 -3 -8 -6 -6 -6 5 -1
10 -6 15 -12 11 -6 -3 -9 -15 -6 -25 3 -11 1 -19 -4 -19 -5 0 -9 7 -9 15 0 8
-4 15 -10 15 -5 0 -7 -6 -4 -13 3 -8 -1 -14 -8 -14 -8 0 -13 10 -13 21 0 12
-4 21 -10 21 -5 0 -9 -12 -9 -26 1 -14 -4 -26 -10 -26 -13 0 -16 41 -3 53 4 4
7 14 7 23 0 9 -9 1 -20 -17 -19 -31 -25 -33 -63 -31 -23 1 -58 -1 -77 -5 -70
-15 -147 36 -170 112 -6 19 -9 21 -9 8 -1 -11 10 -39 24 -63 l26 -43 -26 0
c-14 0 -25 6 -25 13 0 8 -4 7 -10 -3 -13 -20 -13 -33 0 -25 6 3 10 2 10 -3 0
-13 -74 -11 -82 2 -6 8 -8 8 -8 0 0 -10 -16 -11 -53 -5 -5 0 -6 5 -2 10 3 5
-4 13 -16 16 -17 6 -19 9 -8 16 11 7 10 9 -4 9 -17 0 -17 1 0 19 16 17 24 19
63 10 52 -12 67 -23 73 -52 4 -19 4 -18 6 5 1 29 25 33 42 7 15 -23 10 0 -6
31 -9 17 -19 30 -24 30 -5 0 -11 9 -14 21 -4 15 0 23 14 26 10 3 19 13 18 22
0 10 -2 11 -6 4 -2 -7 -13 -13 -24 -13 -22 0 -27 -38 -7 -58 22 -22 -1 -24
-59 -6 l-58 19 -23 -24 c-14 -14 -22 -31 -19 -42 3 -11 1 -19 -3 -19 -5 0 -11
15 -13 33 -4 31 -4 31 -12 7 l-9 -25 -7 25 c-10 35 -9 141 1 165 8 20 9 19 9
-1 1 -12 8 -27 16 -34 18 -15 14 -87 -4 -83 -16 4 -14 -14 3 -20 22 -9 26 2
26 65 0 42 -3 57 -12 52 -8 -5 -9 4 -5 32 4 21 7 48 7 59 0 17 2 17 10 5 8
-12 10 -12 10 -1 0 8 8 3 20 -12 11 -14 20 -30 20 -35 0 -6 4 -13 9 -17 6 -3
8 6 5 21 -4 24 -3 26 21 20 17 -4 24 -3 20 4 -4 6 10 10 38 10 32 0 47 -5 51
-16 4 -9 4 -19 1 -22 -3 -3 -5 1 -5 8 0 7 -9 1 -20 -13 -11 -14 -20 -37 -20
-51 0 -24 -3 -26 -27 -20 -16 4 -36 16 -45 28 -20 24 -22 19 -9 -16 8 -21 16
-24 53 -24 41 1 43 2 40 29 -3 29 14 61 28 52 5 -3 6 -15 3 -28 -2 -12 4 -4
15 18 13 28 16 43 8 48 -7 6 -5 7 6 4 19 -7 45 18 29 27 -5 4 -13 1 -17 -5 -4
-8 -9 -7 -15 2 -7 11 -9 11 -9 -1 0 -13 -1 -13 -10 0 -9 13 -11 13 -20 0 -9
-13 -11 -13 -20 0 -5 8 -10 10 -10 4 0 -7 -15 -11 -35 -11 -19 1 -35 5 -35 10
0 5 7 7 15 4 8 -4 16 -3 19 1 2 4 38 8 80 8 49 1 73 -3 69 -9z m-197 -4 c-10
-11 -37 -12 -30 -2 3 5 12 9 21 9 9 0 13 -3 9 -7z m556 -47 c10 -7 15 -16 11
-19 -3 -4 -1 -7 5 -7 7 0 12 -7 12 -17 0 -13 4 -11 20 7 l20 23 0 -21 c0 -12
5 -22 11 -22 11 0 10 -120 -2 -160 -4 -14 -8 -19 -8 -12 -2 25 -21 11 -21 -16
0 -18 -5 -29 -14 -29 -9 0 -12 6 -7 16 5 9 16 33 26 53 16 33 16 42 4 82 -8
26 -17 42 -23 38 -21 -13 -38 -11 -32 5 7 17 -19 47 -34 38 -6 -4 -10 6 -10
24 0 33 14 39 42 17z m107 -115 c1 -102 -5 -86 -12 29 -3 53 -2 84 3 70 4 -14
8 -58 9 -99z m-549 -89 c0 -5 -7 -9 -15 -9 -8 0 -12 4 -9 9 3 4 9 8 15 8 5 0
9 -4 9 -8z m88 -79 c2 -7 -1 -13 -7 -13 -6 0 -11 6 -11 13 0 8 -4 7 -10 -3 -9
-13 -11 -13 -20 0 -8 12 -10 13 -10 1 0 -8 -3 -12 -6 -8 -12 11 5 23 32 22 15
0 29 -6 32 -12z m176 -4 c3 -3 -18 -6 -47 -7 -31 -2 -47 1 -39 6 13 9 77 10
86 1z m51 2 c3 -6 -4 -9 -15 -8 -11 1 -20 5 -20 9 0 11 28 10 35 -1z m-330
-51 c3 -5 1 -10 -4 -10 -6 0 -11 5 -11 10 0 6 2 10 4 10 3 0 8 -4 11 -10z
m315 2 c0 -4 -61 -8 -135 -9 -76 -1 -135 3 -135 8 0 5 60 9 135 9 74 0 135 -4
135 -8z"/>
<path d="M4159 3391 c-3 -7 -11 -13 -19 -14 -8 -2 -21 -7 -29 -11 -10 -6 -12
-5 -7 2 4 7 1 12 -10 12 -14 0 -14 -3 -4 -15 10 -12 10 -19 2 -27 -7 -7 -12
-23 -12 -37 0 -38 15 -13 19 32 1 4 19 16 40 26 28 12 37 21 31 30 -5 10 -9
10 -11 2z"/>
<path d="M3746 3104 c-9 -24 -8 -26 14 -14 11 6 18 15 15 21 -9 14 -22 11 -29
-7z"/>
<path d="M3943 3047 c5 -15 37 -22 37 -9 0 5 -9 12 -21 15 -13 3 -19 1 -16 -6z"/>
<path d="M4004 2415 c-7 -38 -15 -79 -20 -89 -5 -13 -4 -17 4 -12 14 9 35 103
30 141 -2 21 -6 9 -14 -40z"/>
<path d="M4100 2241 c0 -6 5 -13 10 -16 6 -3 10 1 10 9 0 9 -4 16 -10 16 -5 0
-10 -4 -10 -9z"/>
<path d="M4081 2194 c0 -11 3 -14 6 -6 3 7 2 16 -1 19 -3 4 -6 -2 -5 -13z"/>
<path d="M4155 2108 c-31 -19 -45 -35 -60 -72 -41 -97 13 -203 107 -212 23 -2
37 -1 31 2 -17 8 -16 84 1 106 20 27 26 10 8 -22 -13 -23 -14 -33 -4 -54 15
-34 34 -33 66 4 84 100 37 247 -81 257 -27 2 -57 -2 -68 -9z m57 -30 c2 -18 7
-31 12 -30 5 2 12 -2 17 -10 6 -9 12 -4 20 20 8 24 15 30 22 23 8 -8 4 -18
-13 -36 -12 -13 -26 -22 -30 -20 -13 8 -71 -26 -64 -37 4 -7 9 -6 14 2 12 19
45 7 48 -18 6 -37 -26 -39 -58 -4 -16 18 -23 33 -17 35 7 2 1 10 -13 17 -24
13 -24 12 -10 -5 14 -17 13 -18 -15 -12 -26 5 -25 4 8 -10 43 -18 47 -28 13
-37 -13 -3 -31 -9 -40 -12 -34 -13 -9 104 29 136 11 9 17 5 30 -17 15 -26 14
-16 -1 22 -3 8 -2 15 4 15 12 0 25 -47 16 -61 -4 -6 -16 -1 -31 13 -24 21 -25
21 -15 2 31 -58 70 -44 58 21 -4 21 -3 35 3 35 5 0 11 -15 13 -32z m48 8 c0
-6 -5 -18 -10 -26 -8 -12 -10 -8 -11 15 l-1 30 -8 -30 c-7 -29 -8 -29 -9 -4 0
14 2 28 5 32 9 9 34 -3 34 -17z m21 -65 c-17 -16 -31 -27 -31 -24 0 11 55 69
58 61 2 -5 -10 -21 -27 -37z m49 0 c0 -5 -11 -11 -25 -13 -20 -4 -23 -3 -14 8
13 16 39 19 39 5z m0 -31 c0 -5 -15 -10 -32 -9 -31 1 -32 1 -8 9 35 11 40 11
40 0z m3 -35 c-3 -10 -11 -11 -30 -4 -39 15 -51 9 -15 -7 24 -10 32 -19 28
-30 -3 -9 -6 -21 -6 -27 0 -6 -11 0 -25 13 -14 13 -25 19 -25 13 0 -6 7 -16
15 -23 8 -7 15 -18 15 -24 0 -6 -9 0 -20 14 -21 27 -27 21 -10 -10 6 -11 6
-21 1 -24 -13 -8 -21 46 -10 67 8 14 14 15 30 6 12 -6 23 -8 26 -6 3 3 -9 13
-26 22 -46 23 -40 41 13 37 32 -3 43 -8 39 -17z m-198 -30 c-16 -14 -25 -25
-18 -25 6 0 15 5 18 11 4 6 13 8 21 5 8 -3 13 -2 13 2 -3 21 3 23 21 7 21 -19
29 -95 11 -95 -5 0 -7 17 -4 39 3 23 1 41 -6 45 -7 4 -10 0 -9 -11 3 -38 -2
-64 -12 -58 -7 4 -7 12 0 25 12 23 13 33 1 26 -5 -4 -11 -1 -13 5 -2 7 -10 4
-18 -7 -14 -16 -13 -17 3 -11 11 4 17 2 17 -8 0 -23 -26 -18 -44 9 -19 30 -12
53 17 59 12 2 24 5 27 5 3 1 -8 -10 -25 -23z"/>
<path d="M4195 1980 c-3 -5 -3 -14 0 -20 8 -13 35 -13 35 0 0 5 -7 7 -15 4 -8
-4 -15 -1 -15 4 0 6 8 13 18 15 15 4 15 5 0 6 -9 0 -20 -3 -23 -9z"/>
<path d="M4108 1973 c6 -2 18 -2 25 0 6 3 1 5 -13 5 -14 0 -19 -2 -12 -5z"/>
<path d="M4411 2034 c0 -11 3 -14 6 -6 3 7 2 16 -1 19 -3 4 -6 -2 -5 -13z"/>
<path d="M4460 1911 c-7 -21 -10 -45 -7 -52 4 -10 6 -9 6 4 1 22 31 23 31 0 0
-21 9 -12 15 15 2 15 -1 19 -14 15 -15 -4 -17 1 -13 26 6 43 -2 39 -18 -8z"/>
<path d="M4336 1873 c-6 -14 -5 -15 5 -6 7 7 10 15 7 18 -3 3 -9 -2 -12 -12z"/>
<path d="M4420 3230 c-8 -5 -11 -12 -7 -16 4 -4 13 -2 19 4 15 15 7 24 -12 12z"/>
<path d="M4627 3144 c-3 -3 -3 -13 0 -22 11 -28 43 -43 43 -20 0 6 -3 8 -7 5
-3 -4 -12 1 -19 11 -9 13 -9 19 -1 24 8 5 8 8 1 8 -6 0 -13 -3 -17 -6z"/>
<path d="M4670 3142 c0 -5 7 -15 15 -22 8 -7 15 -8 15 -2 0 5 -7 15 -15 22 -8
7 -15 8 -15 2z"/>
<path d="M0 2665 l0 -185 1675 0 1675 0 0 185 0 185 -1675 0 -1675 0 0 -185z
m380 1 l0 -74 -37 0 c-48 0 -63 12 -63 53 0 38 21 60 50 52 16 -4 20 0 20 19
0 15 6 24 15 24 12 0 15 -15 15 -74z m60 59 c0 -8 -7 -15 -15 -15 -8 0 -15 7
-15 15 0 8 7 15 15 15 8 0 15 -7 15 -15z m1870 -5 c0 -15 7 -20 25 -20 29 0
45 -26 45 -74 0 -29 -4 -36 -20 -36 -17 0 -20 7 -20 40 0 29 -4 40 -15 40 -11
0 -15 -11 -15 -40 0 -33 -3 -40 -20 -40 -18 0 -20 7 -20 75 0 68 2 75 20 75
13 0 20 -7 20 -20z m250 -55 c0 -60 -3 -75 -15 -75 -12 0 -15 15 -15 75 0 60
3 75 15 75 12 0 15 -15 15 -75z m370 55 c0 -15 7 -20 25 -20 29 0 45 -26 45
-74 0 -29 -4 -36 -20 -36 -17 0 -20 7 -20 40 0 29 -4 40 -15 40 -11 0 -15 -11
-15 -40 0 -33 -3 -40 -20 -40 -18 0 -20 7 -20 75 0 68 2 75 20 75 13 0 20 -7
20 -20z m125 11 c7 -12 -12 -24 -25 -16 -11 7 -4 25 10 25 5 0 11 -4 15 -9z
m-2935 -71 c0 -56 -3 -70 -15 -70 -12 0 -15 14 -15 70 0 56 3 70 15 70 12 0
15 -14 15 -70z m760 55 c0 -11 -7 -14 -24 -9 -45 11 -74 -47 -40 -81 13 -12
19 -14 28 -4 8 8 8 13 -1 16 -26 10 -13 33 18 33 29 0 30 -2 27 -37 -3 -36 -5
-38 -41 -41 -50 -4 -77 19 -77 66 0 48 24 72 72 72 27 0 38 -4 38 -15z m1267
3 c-2 -7 -13 -13 -24 -13 -35 0 -36 -12 -4 -35 51 -35 36 -80 -26 -80 -23 0
-33 5 -33 16 0 11 8 14 27 12 37 -4 39 14 3 34 -31 18 -39 45 -18 66 16 16 81
16 75 0z m-187 -8 c0 -5 7 -10 15 -10 8 0 15 -7 15 -15 0 -8 -7 -15 -15 -15
-9 0 -15 -9 -15 -25 0 -14 7 -28 15 -31 25 -10 17 -26 -12 -22 -25 3 -29 8
-34 48 -6 45 3 80 21 80 6 0 10 -4 10 -10z m-1710 -29 c5 -11 10 -36 10 -55 0
-29 -4 -36 -20 -36 -17 0 -20 7 -20 40 0 29 -4 40 -15 40 -11 0 -15 -11 -15
-40 0 -33 -3 -40 -20 -40 -17 0 -20 7 -20 48 0 27 2 51 5 54 3 2 23 5 45 6 30
1 42 -3 50 -17z m190 -36 c0 -42 -3 -55 -15 -55 -12 0 -15 13 -15 55 0 42 3
55 15 55 12 0 15 -13 15 -55z m108 43 c7 -7 12 -30 12 -53 l0 -41 -44 -2 c-38
-1 -46 2 -52 20 -7 24 17 48 49 48 10 0 15 5 12 11 -4 6 -14 8 -22 5 -18 -7
-35 2 -28 15 9 13 59 11 73 -3z m134 -1 c4 -7 8 -31 8 -54 0 -32 -4 -43 -15
-43 -11 0 -15 11 -15 41 0 33 -3 40 -17 37 -13 -2 -19 -14 -21 -41 -2 -24 -8
-37 -18 -37 -10 0 -14 14 -14 53 l0 53 42 1 c24 1 46 -3 50 -10z m316 1 c7 -7
12 -26 12 -43 0 -38 -16 -55 -50 -55 -34 0 -50 17 -50 55 0 38 16 55 50 55 14
0 31 -5 38 -12z m69 -20 l11 -33 13 33 c7 17 19 32 26 32 17 0 16 -6 -4 -62
-12 -33 -23 -48 -35 -48 -10 0 -18 2 -18 5 0 2 -9 27 -20 55 -19 48 -19 50 -1
50 12 0 22 -11 28 -32z m161 20 c7 -7 12 -20 12 -30 0 -13 -8 -18 -31 -18 -20
0 -29 -4 -26 -12 2 -7 16 -12 31 -11 17 1 26 -3 26 -13 0 -20 -59 -18 -82 3
-22 20 -23 42 -2 71 17 24 53 29 72 10z m112 1 c0 -5 -9 -13 -20 -19 -14 -8
-20 -21 -20 -45 0 -28 -4 -35 -20 -35 -18 0 -20 7 -20 54 l0 53 40 0 c22 0 40
-3 40 -8z m110 -8 c5 -11 10 -36 10 -55 0 -29 -4 -36 -20 -36 -17 0 -20 7 -20
40 0 29 -4 40 -15 40 -11 0 -15 -11 -15 -40 0 -33 -3 -40 -20 -40 -17 0 -20 7
-20 48 0 27 2 51 5 54 3 2 23 5 45 6 30 1 42 -3 50 -17z m178 13 c19 -4 22
-10 22 -54 0 -38 -4 -50 -15 -50 -11 0 -15 11 -15 41 0 33 -3 40 -17 37 -13
-2 -19 -14 -21 -41 -5 -53 -32 -51 -32 3 0 29 -4 40 -15 40 -11 0 -15 -11 -15
-40 0 -33 -3 -40 -20 -40 -17 0 -20 7 -20 48 0 27 3 51 6 54 6 7 109 8 142 2z
m130 -6 c7 -7 12 -20 12 -30 0 -13 -8 -18 -31 -18 -20 0 -29 -4 -26 -12 2 -7
16 -12 31 -11 17 1 26 -3 26 -13 0 -20 -59 -18 -82 3 -22 20 -23 42 -2 71 17
24 53 29 72 10z m130 0 c18 -15 16 -98 -2 -98 -10 0 -16 13 -18 37 -2 27 -8
39 -20 41 -15 3 -18 -4 -18 -37 0 -30 -4 -41 -15 -41 -11 0 -15 13 -15 53 l0
53 38 1 c20 1 43 -3 50 -9z m362 -3 c0 -9 -10 -15 -26 -15 -22 0 -25 -4 -22
-27 2 -22 8 -28 26 -26 14 2 22 -3 22 -12 0 -18 -50 -21 -68 -3 -7 7 -12 26
-12 43 0 17 5 36 12 43 18 18 68 15 68 -3z m238 3 c7 -7 12 -26 12 -43 0 -38
-16 -55 -50 -55 -34 0 -50 17 -50 55 0 38 16 55 50 55 14 0 31 -5 38 -12z
m180 0 c7 -7 12 -31 12 -54 l0 -43 -47 2 c-44 2 -48 4 -48 27 0 20 7 27 34 36
20 7 29 14 22 18 -6 4 -15 4 -21 1 -13 -8 -32 4 -25 16 9 13 59 11 73 -3z
m112 -3 c0 -7 -9 -15 -20 -18 -15 -4 -20 -14 -20 -41 0 -25 -4 -36 -15 -36
-11 0 -15 13 -15 53 l0 53 35 1 c22 1 35 -4 35 -12z m90 -1 c0 -11 -6 -15 -20
-11 -26 7 -26 -5 1 -21 13 -8 19 -21 17 -35 -2 -18 -11 -23 -40 -25 -29 -2
-38 0 -38 13 0 11 6 14 25 9 14 -3 25 -2 25 3 0 6 -11 15 -25 21 -26 12 -34
47 -12 55 29 12 67 7 67 -9z m190 -39 c0 -48 -2 -55 -20 -55 -17 0 -20 7 -20
48 0 51 5 62 27 62 9 0 13 -16 13 -55z m124 23 c13 -38 -6 -78 -38 -78 -18 0
-25 -6 -28 -22 -2 -13 -10 -23 -18 -23 -11 0 -16 15 -18 64 -4 85 -2 89 50 87
37 -1 44 -5 52 -28z m96 16 c0 -11 -6 -14 -20 -9 -11 3 -20 2 -20 -4 0 -5 9
-12 19 -16 25 -7 35 -34 20 -51 -16 -20 -79 -18 -79 1 0 11 7 14 25 9 29 -7
35 12 6 21 -25 7 -35 34 -20 51 16 20 69 18 69 -2z"/>
<path d="M312 2643 c2 -17 9 -28 18 -28 9 0 16 11 18 28 3 22 -1 27 -18 27
-17 0 -21 -5 -18 -27z"/>
<path d="M500 2624 c0 -9 5 -14 12 -12 18 6 21 28 4 28 -9 0 -16 -7 -16 -16z"/>
<path d="M942 2643 c2 -17 9 -28 18 -28 9 0 16 11 18 28 3 22 -1 27 -18 27
-17 0 -21 -5 -18 -27z"/>
<path d="M1185 2670 c-3 -5 1 -10 10 -10 9 0 13 5 10 10 -3 6 -8 10 -10 10 -2
0 -7 -4 -10 -10z"/>
<path d="M1715 2670 c-3 -5 1 -10 10 -10 9 0 13 5 10 10 -3 6 -8 10 -10 10 -2
0 -7 -4 -10 -10z"/>
<path d="M2432 2643 c2 -17 9 -28 18 -28 9 0 16 11 18 28 3 22 -1 27 -18 27
-17 0 -21 -5 -18 -27z"/>
<path d="M2615 2631 c-3 -5 -1 -12 5 -16 12 -7 30 2 30 16 0 12 -27 12 -35 0z"/>
<path d="M3122 2645 c2 -14 8 -26 13 -26 6 0 11 12 13 26 2 18 -1 25 -13 25
-12 0 -15 -7 -13 -25z"/>
<path d="M4090 1650 c0 -6 8 -10 17 -10 9 0 13 -3 9 -7 -4 -4 -60 -8 -124 -9
-138 -2 -144 -2 -114 -14 25 -11 30 -30 6 -30 -17 0 -17 -1 11 -47 21 -35 43
-46 25 -14 -14 28 -12 41 5 35 8 -4 15 -15 15 -25 0 -10 5 -19 10 -19 6 0 10
12 10 28 l0 27 20 -30 c21 -31 27 -28 10 6 -6 11 -7 19 -1 19 5 0 11 -7 15
-15 3 -8 15 -15 26 -15 11 0 20 -7 20 -15 0 -8 5 -15 10 -15 6 0 10 25 10 55
0 30 4 55 9 55 18 0 22 -19 9 -39 -10 -17 -10 -23 1 -33 11 -10 14 -10 18 0 7
19 33 14 33 -7 0 -11 4 -22 9 -26 6 -3 11 17 13 47 3 49 5 53 31 56 15 2 27
-1 27 -7 0 -6 -6 -8 -13 -5 -23 8 -40 -21 -27 -45 6 -12 16 -21 22 -21 6 0 17
-8 24 -17 12 -16 13 -10 14 40 0 31 1 60 2 65 0 4 -23 8 -52 9 -29 1 -56 6
-59 11 -9 13 -41 22 -41 12z m-150 -66 c0 -8 -4 -14 -10 -14 -5 0 -10 9 -10
21 0 11 5 17 10 14 6 -3 10 -13 10 -21z m68 8 c2 -8 -2 -10 -13 -6 -10 4 -21
1 -26 -7 -6 -10 -9 -8 -9 9 0 18 5 23 22 20 12 -2 23 -9 26 -16z m40 -9 c-4
-37 -23 -39 -24 -3 -1 20 4 30 13 30 10 0 13 -9 11 -27z m92 12 c0 -8 -7 -15
-15 -15 -16 0 -20 12 -8 23 11 12 23 8 23 -8z m74 -24 c3 -5 -1 -11 -9 -15
-15 -6 -29 7 -18 18 9 9 21 8 27 -3z"/>
<path d="M4460 1650 c0 -5 7 -10 16 -10 8 0 13 -4 10 -8 -2 -4 -50 -7 -106 -6
-55 0 -103 -3 -106 -8 -3 -4 11 -8 30 -8 39 0 59 -19 28 -27 -14 -3 -19 -11
-15 -21 3 -11 -3 -9 -16 7 -24 26 -26 23 -9 -14 13 -29 26 -32 44 -7 12 15 13
13 14 -17 0 -45 14 -31 16 17 3 60 3 63 14 57 13 -8 13 -45 0 -45 -19 0 3 -30
26 -36 13 -3 25 -11 26 -18 1 -6 4 14 7 44 6 50 8 54 34 55 17 1 27 -3 27 -12
0 -7 -8 -13 -18 -13 -29 0 -33 -10 -16 -41 18 -36 23 -37 16 -4 -2 14 0 25 6
25 6 0 12 -12 14 -27 5 -42 25 -39 25 4 1 65 3 74 13 68 6 -3 10 -1 10 4 0 6
-6 11 -13 11 -8 0 -22 9 -32 20 -19 21 -45 27 -45 10z m-32 -76 c-1 -9 -8 -19
-15 -21 -10 -4 -11 8 -4 57 1 2 6 -1 12 -7 6 -6 9 -19 7 -29z"/>
<path d="M6468 1593 c-43 -61 -47 -83 -18 -90 11 -3 20 -13 21 -22 0 -9 2 -31
3 -49 2 -24 -3 -36 -16 -43 -10 -5 -18 -14 -18 -20 0 -6 4 -7 10 -4 6 3 7 -1
4 -9 -4 -10 1 -18 11 -22 9 -4 14 -13 11 -20 -3 -8 -1 -14 4 -14 6 0 10 -5 10
-11 0 -5 -6 -7 -12 -3 -10 6 -10 5 -1 -7 10 -12 10 -18 0 -29 -10 -12 -9 -12
5 -1 11 8 15 22 13 42 -4 26 -2 29 10 19 8 -7 12 -17 8 -24 -3 -6 -2 -7 2 -3
11 10 16 39 5 32 -4 -3 -13 1 -19 9 -9 11 -6 13 17 11 26 -2 28 1 27 29 0 17
-5 37 -9 45 -6 10 -5 12 3 7 8 -5 10 11 7 61 -4 69 -23 160 -35 167 -3 2 -23
-21 -43 -51z m68 -229 c-1 -8 -6 -17 -12 -21 -5 -4 -6 -4 -2 1 4 5 3 14 -2 21
-7 8 -5 12 4 12 8 0 13 -6 12 -13z"/>
<path d="M6087 1614 c-11 -11 -8 -26 3 -19 6 3 10 0 10 -8 0 -14 30 -47 43
-47 3 0 0 17 -7 38 -12 35 -34 51 -49 36z"/>
<path d="M5947 1525 c-42 -36 -77 -67 -77 -69 0 -3 21 -16 48 -31 47 -27 47
-27 100 -10 28 9 64 26 78 38 l26 22 -28 29 c-26 26 -27 28 -10 38 17 10 17
10 -1 23 -45 31 -57 28 -136 -40z"/>
<path d="M955 1353 c-146 -38 -596 -132 -765 -161 -30 -5 -48 -11 -40 -14 17
-6 248 -52 387 -78 51 -9 94 -18 96 -21 2 -2 11 -42 21 -89 9 -47 19 -95 21
-107 3 -13 17 -25 37 -32 17 -6 29 -13 27 -15 -2 -2 -49 -22 -104 -44 -87 -35
-96 -41 -72 -46 15 -3 39 -9 55 -13 15 -3 33 -7 40 -9 7 -1 35 -19 63 -39 28
-20 48 -32 44 -26 -12 21 6 11 28 -14 20 -24 24 -25 42 -11 19 13 18 14 -7 9
-22 -4 -29 0 -44 28 -15 31 -18 32 -25 14 -7 -19 -8 -19 -8 3 -1 37 56 30 107
-14 40 -34 49 -60 17 -47 -16 5 -45 -13 -45 -28 0 -16 40 -9 58 9 18 18 19 18
39 -13 12 -18 26 -48 31 -69 10 -34 9 -37 -16 -50 l-27 -14 35 1 c33 2 37 -1
63 -52 18 -36 27 -70 27 -100 0 -47 -22 -124 -43 -151 -10 -13 -10 -13 4 -2
32 24 61 111 54 158 -9 63 -37 136 -63 164 -13 14 -21 34 -20 51 3 44 -147
220 -173 203 -5 -3 -9 -1 -9 4 0 5 -12 15 -27 23 l-26 14 39 7 c21 4 67 7 102
7 35 1 61 4 59 9 -3 4 18 7 46 7 29 0 80 3 114 6 60 6 62 6 93 -26 18 -18 43
-50 56 -72 13 -21 24 -33 24 -27 0 5 -20 40 -45 77 -24 36 -41 68 -37 70 4 3
24 7 44 11 33 6 40 3 63 -22 14 -16 38 -49 54 -74 l29 -46 -21 -10 c-12 -6
-16 -11 -9 -11 7 -1 10 -5 7 -11 -3 -5 -2 -10 4 -10 6 0 8 -6 5 -14 -4 -10 2
-12 23 -10 15 2 22 1 16 -2 -7 -3 -13 -15 -13 -25 0 -11 4 -18 9 -15 5 3 14
-1 20 -8 10 -12 8 -13 -8 -9 -20 5 -28 -11 -21 -42 1 -5 4 -21 7 -35 2 -13 6
-26 9 -29 2 -2 -1 -10 -8 -18 -6 -7 -8 -16 -4 -20 3 -3 6 -1 6 5 0 6 7 9 15 5
17 -6 17 17 0 29 -6 5 -5 8 3 8 7 0 10 5 6 12 -4 7 -3 8 5 4 6 -4 9 -11 6 -16
-3 -5 -1 -11 4 -14 11 -7 2 -46 -10 -46 -5 0 -9 -5 -9 -10 0 -7 6 -7 20 0 28
15 27 89 -4 185 -27 86 -20 99 15 25 18 -38 28 -50 42 -46 17 4 22 -12 18 -54
-1 -11 2 -9 10 4 18 29 5 105 -22 130 -13 12 -17 14 -10 4 8 -10 10 -18 5 -18
-5 0 -24 33 -43 72 -21 44 -55 95 -90 131 -30 32 -51 57 -44 55 13 -4 103 62
103 75 0 5 -7 6 -16 3 -9 -3 -18 -6 -20 -6 -3 0 -2 -6 2 -12 4 -7 3 -9 -2 -5
-4 4 -9 27 -10 50 -1 23 -3 42 -4 42 -1 0 -3 22 -5 49 -2 27 -9 52 -15 56 -7
4 4 11 27 17 21 6 91 25 156 42 65 18 122 29 126 26 5 -3 7 4 4 15 -3 10 -8
19 -12 18 -3 -1 -17 2 -31 5 -14 4 -105 8 -202 10 -98 2 -181 7 -185 11 -10
11 393 -3 422 -14 13 -5 25 -14 27 -20 2 -7 58 6 156 36 84 26 147 51 140 54
-25 13 -638 50 -783 48 -48 0 -123 -14 -240 -45z m260 -54 c5 -8 -156 -1 -164
7 -3 3 32 4 77 3 45 -1 85 -5 87 -10z m288 -689 c3 -11 1 -18 -4 -14 -5 3 -9
12 -9 20 0 20 7 17 13 -6z"/>
<path d="M3351 1344 c-7 -26 -10 -48 -9 -50 8 -8 50 67 44 81 -10 27 -23 16
-35 -31z"/>
<path d="M3801 1321 c-27 -38 -26 -53 5 -101 25 -38 27 -39 43 -21 9 10 37 26
62 35 26 9 55 26 65 37 17 19 17 20 -4 26 -12 3 -22 10 -22 15 0 5 9 6 20 3
22 -7 26 5 8 23 -7 7 -41 12 -84 12 -69 0 -74 -2 -93 -29z"/>
<path d="M6328 1313 c7 -3 16 -2 19 1 4 3 -2 6 -13 5 -11 0 -14 -3 -6 -6z"/>
<path d="M3297 1245 c-43 -12 -80 -25 -83 -28 -5 -4 24 -155 32 -169 3 -4 16
-3 30 2 14 6 37 10 51 10 20 0 82 23 120 44 1 1 -6 37 -15 81 -20 94 -20 94
-135 60z"/>
<path d="M5062 1203 c-5 -10 -6 -27 -1 -38 12 -31 12 -32 -36 -55 -25 -12 -45
-27 -45 -34 0 -7 17 -33 38 -57 22 -24 44 -54 50 -66 10 -18 17 -20 41 -13 55
16 68 27 64 57 -3 20 3 36 21 56 32 35 33 67 1 89 -18 14 -30 16 -49 8 -22 -8
-28 -5 -45 19 -15 21 -17 31 -9 39 9 9 8 12 -5 12 -9 0 -20 -8 -25 -17z"/>
<path d="M1667 1153 c-4 -29 -12 -53 -17 -53 -5 0 -24 -16 -43 -35 -32 -33
-37 -35 -73 -26 -39 8 -39 8 -14 20 24 11 24 11 -7 8 -18 -2 -33 0 -33 5 0 4
-11 8 -25 8 -14 0 -25 -5 -25 -11 0 -6 9 -8 20 -4 27 9 25 -4 -2 -14 -19 -7
-15 -9 25 -15 26 -4 47 -12 47 -17 0 -5 12 -7 28 -4 15 3 21 2 15 -1 -23 -10
-14 -25 12 -20 18 3 25 0 25 -10 0 -10 -5 -12 -12 -8 -10 6 -10 4 0 -8 15 -18
6 -48 -14 -48 -15 0 -35 -40 -33 -68 0 -9 5 -2 10 16 10 34 23 41 33 17 3 -8
12 -15 21 -15 11 0 15 -11 16 -37 0 -21 2 -47 4 -58 1 -11 6 -51 9 -90 15
-164 27 -224 48 -231 15 -4 17 -9 9 -17 -14 -14 -14 -44 0 -52 17 -11 23 3 8
22 -12 14 -12 16 0 8 11 -6 13 -4 8 8 -4 10 -1 17 5 17 7 0 3 7 -8 16 -10 8
-13 12 -5 8 11 -6 13 0 8 32 -4 21 -7 53 -7 69 0 23 -3 27 -10 15 -9 -14 -12
8 -13 120 0 14 -5 28 -10 31 -5 4 -10 19 -11 35 -2 16 -7 38 -11 48 -5 12 -5
17 2 13 5 -3 10 0 10 8 0 8 -4 12 -9 9 -4 -3 -8 -2 -9 3 0 4 -2 18 -5 30 -2
13 -1 22 4 20 4 -1 8 2 9 7 1 5 7 13 15 18 9 7 7 8 -9 5 -18 -4 -22 0 -25 35
-4 48 0 53 25 31 19 -17 20 -17 9 3 -8 15 -7 27 3 47 7 14 9 27 4 29 -5 2 -4
19 2 41 5 21 9 50 7 65 -2 19 -6 11 -11 -25z"/>
<path d="M6484 1166 c-10 -40 -82 -49 -96 -13 -4 10 -12 15 -18 12 -6 -4 -8
-11 -5 -16 4 -5 -1 -9 -10 -9 -23 0 -13 -22 17 -39 21 -12 29 -12 58 2 47 24
54 21 34 -12 -17 -29 -17 -30 7 -50 13 -11 43 -30 66 -43 l43 -23 15 23 c13
18 20 20 36 12 14 -8 20 -8 24 2 2 7 9 25 14 40 10 26 8 29 -62 68 -40 22 -82
48 -94 56 -21 15 -22 15 -29 -10z"/>
<path d="M1716 947 c3 -10 9 -15 12 -12 3 3 0 11 -7 18 -10 9 -11 8 -5 -6z"/>
<path d="M6159 898 c-1 -7 -3 -42 -4 -78 -3 -67 -38 -164 -75 -205 -10 -11
-20 -44 -24 -76 -5 -44 -13 -64 -36 -89 -34 -36 -37 -52 -15 -70 11 -9 15 -33
15 -90 0 -46 6 -92 15 -113 8 -20 18 -68 21 -106 l7 -71 408 0 408 0 -14 33
c-10 26 -11 37 -3 45 9 9 6 18 -11 36 -22 23 -23 28 -12 72 7 26 19 60 27 75
9 19 14 59 14 121 0 75 4 99 20 125 18 30 18 35 3 85 -8 29 -23 64 -32 78 -27
39 -44 88 -37 106 3 9 1 35 -6 58 -7 25 -13 34 -15 24 -3 -10 -9 -18 -14 -18
-5 0 -9 -13 -9 -30 0 -32 -16 -38 -51 -20 -31 17 -22 -3 17 -35 35 -30 36 -34
45 -124 11 -103 12 -99 -61 -141 -15 -9 -42 -33 -60 -53 -47 -54 -62 -46 -65
32 -2 53 -7 68 -25 83 -45 37 -102 14 -118 -49 -13 -49 -9 -67 26 -105 29 -31
30 -29 -41 -78 -30 -21 -54 -46 -57 -60 -6 -23 -9 -21 -33 27 -22 42 -36 56
-75 74 -55 25 -70 51 -71 118 0 30 -8 55 -26 83 -21 31 -25 48 -21 72 4 17 11
51 15 76 10 52 30 111 42 125 12 13 11 28 -1 20 -7 -4 -8 3 -4 22 7 25 6 27
-10 14 -15 -12 -16 -12 -10 5 7 18 7 18 -15 0 -18 -17 -21 -17 -15 -3 3 10 1
17 -5 17 -6 0 -12 -6 -12 -12z"/>
<path d="M1656 875 c-3 -8 -1 -15 4 -15 6 0 10 -11 10 -24 0 -14 4 -27 9 -30
4 -3 6 9 4 27 -3 17 -5 38 -6 45 -1 17 -14 15 -21 -3z"/>
<path d="M3494 868 c-11 -13 -35 -72 -53 -133 -17 -60 -36 -124 -42 -142 -19
-62 25 -348 62 -398 5 -6 5 -52 1 -103 l-8 -92 223 0 c123 0 223 2 223 5 0 3
-9 40 -19 83 -10 42 -24 103 -31 135 -11 53 -15 60 -58 87 -26 16 -52 30 -59
30 -22 0 -24 19 -3 40 24 24 26 69 5 109 -40 79 -142 7 -119 -85 14 -55 -50 7
-88 86 -19 39 -38 153 -38 227 0 41 5 54 35 86 19 21 35 40 35 43 0 2 -10 4
-22 4 -22 1 -22 2 -5 14 16 12 16 14 1 20 -21 8 -18 9 -40 -16z"/>
<path d="M5404 804 c15 -63 18 -186 6 -242 -11 -53 -10 -62 14 -126 14 -37 26
-81 26 -96 0 -16 7 -41 15 -57 8 -15 17 -58 21 -96 4 -45 10 -67 19 -67 13 0
25 -43 25 -91 l0 -29 205 0 c175 0 206 2 211 15 4 10 13 13 24 10 13 -4 21 2
29 26 13 38 9 46 -29 53 -17 3 -43 9 -59 12 -28 5 -29 7 -20 32 6 15 12 35 14
45 2 9 18 44 34 78 36 69 36 69 17 69 -12 0 -68 -83 -88 -133 -4 -9 -11 -17
-16 -17 -8 0 -52 96 -52 114 0 5 16 6 36 3 30 -5 34 -4 24 8 -7 8 -28 17 -49
21 -45 8 -73 22 -66 34 3 4 2 10 -2 12 -5 1 -21 29 -37 60 -35 68 -61 83 -109
63 -19 -8 -38 -22 -42 -32 -6 -17 -7 -17 -22 2 -14 19 -15 18 -9 -17 10 -54
-1 -47 -31 20 -33 73 -42 197 -20 260 12 35 12 41 1 31 -19 -16 -45 -4 -37 17
4 12 3 15 -5 10 -7 -4 -12 -1 -12 8 0 8 -5 18 -11 22 -9 5 -10 -1 -5 -22z"/>
<path d="M1552 770 c0 -14 2 -19 5 -12 2 6 2 18 0 25 -3 6 -5 1 -5 -13z"/>
<path d="M806 773 c-3 -4 10 -17 29 -30 39 -26 54 -30 31 -8 -8 8 -20 15 -26
15 -6 0 -9 4 -6 9 7 10 -19 23 -28 14z"/>
<path d="M4063 769 c-16 -6 -23 -17 -23 -34 0 -14 -10 -39 -21 -55 l-22 -29
-18 22 c-14 18 -27 22 -73 21 -30 0 -59 -3 -63 -7 -4 -4 -9 -34 -11 -67 -3
-44 1 -69 15 -102 11 -24 28 -68 37 -98 18 -60 62 -140 76 -140 5 0 0 -19 -10
-43 -14 -32 -19 -64 -18 -140 l1 -97 193 0 c187 0 192 1 187 20 -4 15 0 20 14
20 19 0 43 17 43 31 0 4 -8 9 -17 11 -14 3 -10 8 16 22 32 17 34 19 17 32 -18
12 -18 18 -4 101 17 101 14 110 -45 116 -21 2 -39 6 -40 8 -1 2 -8 15 -16 29
-31 55 -123 169 -142 175 -12 4 -36 -2 -60 -14 -22 -12 -45 -19 -50 -16 -25
16 8 108 52 143 16 13 29 28 29 34 0 7 -4 7 -13 -1 -22 -17 -28 -1 -12 30 17
32 10 40 -22 28z"/>
<path d="M1701 744 c1 -16 5 -40 10 -54 6 -19 8 -14 5 23 -3 51 -17 79 -15 31z"/>
<path d="M994 734 c3 -9 6 -18 6 -20 0 -3 9 0 20 6 24 13 17 30 -12 30 -14 0
-18 -5 -14 -16z m33 0 c-3 -3 -12 -4 -19 -1 -8 3 -5 6 6 6 11 1 17 -2 13 -5z"/>
<path d="M970 731 c0 -6 4 -13 10 -16 6 -3 7 1 4 9 -7 18 -14 21 -14 7z"/>
<path d="M1561 699 c0 -13 4 -33 9 -44 7 -14 8 -8 3 20 -7 46 -13 59 -12 24z"/>
<path d="M409 689 c-12 -12 -30 -42 -41 -67 -17 -37 -19 -57 -14 -110 13 -122
81 -277 164 -373 26 -30 52 -63 58 -74 30 -57 146 -67 204 -18 32 26 60 99 60
152 -1 97 -53 230 -136 347 -52 74 -92 109 -159 140 -63 30 -108 31 -136 3z
m174 -32 c47 -29 113 -107 144 -172 13 -27 32 -64 42 -81 51 -86 66 -235 31
-304 -28 -55 -33 -50 -9 6 17 37 19 57 14 106 -8 71 -17 67 -27 -10 l-6 -57 3
60 c2 33 6 74 9 90 4 17 3 24 0 17 -3 -6 -10 -10 -15 -7 -5 4 -4 14 3 24 8 13
8 23 -1 37 -11 17 -11 17 -7 -6 5 -22 4 -21 -9 5 -8 17 -14 36 -15 43 0 7 -4
11 -9 8 -5 -3 -8 2 -7 12 0 10 -5 16 -14 14 -8 -2 -12 -1 -8 3 4 4 -6 18 -22
32 -16 13 -29 30 -27 36 1 7 -3 11 -10 10 -6 -2 -33 21 -59 50 -26 28 -44 45
-39 37 5 -11 3 -10 -10 2 -11 10 -16 21 -12 24 10 11 46 -11 100 -61 57 -53
62 -46 8 11 -56 61 -88 78 -156 85 l-60 6 65 1 c52 2 73 -3 103 -21z m-196
-114 c-3 -10 -5 -4 -5 12 0 17 2 24 5 18 2 -7 2 -21 0 -30z m213 -422 c0 -4
10 -8 23 -8 35 -2 54 -8 69 -21 8 -6 18 -9 21 -5 4 3 7 1 7 -5 0 -19 -53 -14
-100 11 -42 21 -71 54 -36 41 9 -3 16 -9 16 -13z m170 10 c0 -5 -9 -19 -20
-32 l-20 -24 17 32 c19 34 23 39 23 24z"/>
<path d="M610 556 c0 -2 8 -10 18 -17 15 -13 16 -12 3 4 -13 16 -21 21 -21 13z"/>
<path d="M675 490 c10 -11 20 -20 23 -20 3 0 -3 9 -13 20 -10 11 -20 20 -23
20 -3 0 3 -9 13 -20z"/>
<path d="M637 99 c7 -7 15 -10 18 -7 3 3 -2 9 -12 12 -14 6 -15 5 -6 -5z"/>
<path d="M560 700 c8 -5 20 -10 25 -10 6 0 3 5 -5 10 -8 5 -19 10 -25 10 -5 0
-3 -5 5 -10z"/>
<path d="M911 684 c0 -11 3 -14 6 -6 3 7 2 16 -1 19 -3 4 -6 -2 -5 -13z"/>
<path d="M3003 644 c-22 -22 -24 -31 -19 -65 l6 -39 -40 0 c-48 0 -100 -24
-100 -46 0 -8 -8 -17 -17 -21 -33 -11 -53 -36 -53 -65 0 -15 3 -28 8 -28 24
-1 31 -17 22 -51 -6 -18 -15 -83 -21 -144 -6 -60 -16 -126 -24 -147 l-13 -38
246 0 246 1 23 27 c24 28 25 47 3 47 -23 0 -21 21 3 32 22 10 23 15 19 79 -6
97 -37 173 -83 199 -19 11 -52 34 -73 51 l-38 32 33 36 c21 25 37 35 48 31 27
-11 51 -14 52 -7 8 42 5 53 -18 58 -13 4 -37 4 -53 0 -28 -5 -30 -3 -30 23 0
61 -79 83 -127 35z"/>
<path d="M5219 645 c-1 -11 -1 -33 0 -50 1 -23 -1 -26 -8 -15 -5 8 -13 12 -16
8 -4 -4 12 -26 34 -51 44 -47 86 -130 76 -148 -4 -5 -15 -9 -24 -7 -10 2 -26
-3 -35 -11 -21 -18 -97 -21 -103 -4 -2 7 5 20 16 30 43 36 11 140 -44 145 -49
4 -63 -2 -74 -32 -5 -16 -17 -30 -25 -30 -18 0 -30 -34 -27 -76 2 -24 -5 -40
-28 -63 -17 -18 -31 -39 -31 -48 0 -14 -2 -15 -12 -5 -7 7 -13 16 -13 20 0 12
-26 96 -41 130 -14 33 -34 35 -34 4 0 -9 -4 -23 -9 -30 -10 -16 -81 -34 -81
-21 0 5 4 9 9 9 19 0 21 39 6 77 -20 50 -69 78 -106 59 -31 -15 -37 -81 -14
-139 9 -24 12 -44 7 -49 -17 -17 -112 39 -112 67 0 6 -5 16 -12 23 -6 6 -12
46 -13 92 -1 44 -5 83 -9 87 -3 3 -6 0 -6 -8 -1 -8 -7 -3 -15 11 l-13 25 -8
-29 c-4 -17 -2 -36 5 -47 18 -30 13 -61 -15 -90 l-26 -28 32 -193 c17 -106 34
-196 37 -200 2 -5 11 -8 19 -8 8 0 14 -10 14 -25 l0 -25 159 0 c183 0 176 -4
165 96 -6 57 -4 63 15 73 12 7 21 22 21 36 0 14 8 29 20 35 17 9 20 6 26 -27
4 -20 2 -71 -5 -112 -6 -42 -11 -81 -11 -88 0 -9 50 -12 190 -13 l191 0 -7 50
-7 50 30 -6 c17 -3 45 1 68 10 l38 16 -27 29 c-16 16 -41 35 -57 41 -16 7 -29
17 -29 22 0 5 4 7 10 3 11 -7 50 30 50 48 0 8 11 24 25 37 14 13 25 30 25 38
0 17 -48 96 -93 154 -16 21 -44 68 -62 105 -22 45 -35 61 -36 48z m-189 -280
c0 -8 -4 -15 -10 -15 -5 0 -10 7 -10 15 0 8 5 15 10 15 6 0 10 -7 10 -15z"/>
<path d="M952 634 c10 -10 20 -16 22 -13 3 3 -5 11 -17 18 -21 13 -21 12 -5
-5z"/>
<path d="M1286 623 c3 -16 9 -39 13 -53 4 -14 7 -35 6 -47 -1 -12 2 -20 7 -17
4 3 8 1 8 -5 0 -5 -6 -12 -12 -14 -10 -4 -10 -8 0 -15 17 -11 17 -22 2 -32 -8
-5 -10 -19 -5 -41 7 -29 9 -31 16 -14 14 37 9 133 -11 199 -21 66 -36 90 -24
39z"/>
<path d="M704 600 c53 -61 63 -71 39 -35 -12 17 -34 41 -49 55 -19 17 -15 10
10 -20z"/>
<path d="M1577 612 c3 -12 9 -25 14 -28 14 -8 11 10 -6 32 -13 18 -14 18 -8
-4z"/>
<path d="M980 591 c0 -16 28 -33 35 -21 3 5 -1 10 -10 10 -9 0 -13 5 -10 10 3
6 1 10 -4 10 -6 0 -11 -4 -11 -9z"/>
<path d="M860 560 c6 -11 13 -20 16 -20 2 0 0 9 -6 20 -6 11 -13 20 -16 20 -2
0 0 -9 6 -20z"/>
<path d="M1124 568 c-4 -6 -3 -8 4 -4 6 3 13 -2 15 -11 4 -14 5 -13 6 5 1 23
-13 30 -25 10z"/>
<path d="M1596 539 c4 -19 10 -38 15 -43 4 -5 4 8 -1 29 -11 47 -22 59 -14 14z"/>
<path d="M1015 550 c-3 -5 -1 -10 4 -10 6 0 11 5 11 10 0 6 -2 10 -4 10 -3 0
-8 -4 -11 -10z"/>
<path d="M876 522 c-2 -4 2 -18 10 -32 l15 -25 -7 25 c-6 22 -5 23 10 11 9 -8
18 -12 20 -10 2 2 -6 12 -19 22 -13 9 -26 14 -29 9z"/>
<path d="M1033 505 c0 -8 4 -15 9 -15 4 0 8 4 8 9 0 6 -4 12 -8 15 -5 3 -9 -1
-9 -9z"/>
<path d="M800 460 c6 -11 13 -20 16 -20 2 0 0 9 -6 20 -6 11 -13 20 -16 20 -2
0 0 -9 6 -20z"/>
<path d="M1047 460 c3 -11 7 -20 9 -20 2 0 4 9 4 20 0 11 -4 20 -9 20 -5 0 -7
-9 -4 -20z"/>
<path d="M911 436 c7 -15 15 -23 17 -16 3 7 -3 19 -13 28 -15 16 -16 15 -4
-12z"/>
<path d="M1722 405 c0 -16 2 -22 5 -12 2 9 2 23 0 30 -3 6 -5 -1 -5 -18z"/>
<path d="M1070 399 c0 -5 5 -7 10 -4 6 3 10 8 10 11 0 2 -4 4 -10 4 -5 0 -10
-5 -10 -11z"/>
<path d="M1385 400 c3 -5 10 -10 16 -10 5 0 9 5 9 10 0 6 -7 10 -16 10 -8 0
-12 -4 -9 -10z"/>
<path d="M950 356 c0 -17 16 -30 23 -19 3 5 -1 14 -9 21 -12 10 -14 10 -14 -2z"/>
<path d="M1393 345 c-24 -13 -62 -39 -85 -59 -40 -34 -77 -49 -62 -24 4 7 3 8
-5 4 -6 -4 -9 -11 -6 -16 3 -5 -3 -8 -12 -8 -19 1 -157 -61 -151 -68 7 -7 107
24 129 40 13 9 38 16 55 16 50 0 96 20 89 38 -7 20 12 32 51 32 18 0 42 8 55
19 20 16 21 21 10 35 -17 20 -16 20 -68 -9z"/>
<path d="M1014 331 c3 -5 -1 -12 -10 -15 -8 -3 -12 -2 -9 4 10 16 -11 11 -25
-5 -19 -23 -3 -32 27 -15 28 16 42 40 23 40 -6 0 -9 -4 -6 -9z"/>
<path d="M971 254 c0 -11 3 -14 6 -6 3 7 2 16 -1 19 -3 4 -6 -2 -5 -13z"/>
<path d="M879 188 c-3 -22 -1 -34 4 -29 5 5 7 21 5 37 -3 27 -4 26 -9 -8z"/>
<path d="M970 212 c0 -6 6 -13 13 -15 7 -4 6 -6 -4 -6 -9 -1 -23 -8 -30 -18
-13 -15 -12 -15 18 0 17 9 35 23 39 29 4 7 4 10 -1 6 -4 -4 -14 -3 -22 3 -8 8
-13 8 -13 1z"/>
</g>
</svg>
