<?xml version="1.0" standalone="no"?>
<!DOCTYPE svg PUBLIC "-//W3C//DTD SVG 20010904//EN"
 "http://www.w3.org/TR/2001/REC-SVG-20010904/DTD/svg10.dtd">
<svg version="1.0" xmlns="http://www.w3.org/2000/svg"
 width="920.000000pt" height="422.000000pt" viewBox="0 0 920.000000 422.000000"
 preserveAspectRatio="xMidYMid meet">

<g transform="translate(0.000000,422.000000) scale(0.100000,-0.100000)"
fill="#000000" stroke="none">
<path d="M4644 4160 c-12 -5 -49 -7 -83 -6 -47 2 -61 0 -61 -11 0 -8 8 -13 18
-11 14 3 17 -5 17 -43 l0 -47 49 -6 c104 -12 196 -80 196 -145 0 -13 3 -22 6
-18 4 3 3 27 0 52 -7 42 -12 49 -57 77 -40 24 -47 33 -38 44 6 8 20 14 30 14
11 0 19 5 19 10 0 19 -34 10 -55 -15 -15 -18 -26 -23 -47 -18 -23 4 -28 10
-28 37 0 39 9 52 42 65 34 13 43 3 20 -23 -22 -24 -33 -52 -25 -60 4 -3 11 4
17 17 6 12 27 30 47 40 30 14 41 16 63 6 14 -7 26 -18 26 -25 0 -7 5 -16 10
-19 6 -4 10 5 10 19 0 16 -6 26 -14 26 -8 0 -16 7 -20 15 -8 21 -62 19 -76 -2
-11 -17 -11 -17 -6 -1 8 27 -23 41 -60 28z m-46 -62 c-2 -35 -7 -43 -23 -43
-16 0 -21 8 -23 43 -3 39 -2 42 23 42 25 0 26 -3 23 -42z"/>
<path d="M4426 4153 c-4 -4 -18 -7 -33 -8 -37 0 -47 -34 -21 -71 18 -28 19
-28 12 -4 -12 41 -10 54 7 58 12 2 19 -8 26 -37 10 -38 5 -63 -13 -62 -17 1
-44 -10 -44 -20 0 -5 3 -9 8 -9 14 1 97 49 85 50 -16 0 -29 68 -15 82 21 21
45 -12 39 -54 -5 -35 -3 -38 18 -38 22 0 23 2 10 26 -7 15 -11 33 -8 41 11 29
-49 68 -71 46z"/>
<path d="M4286 4133 c-11 -12 6 -23 35 -23 19 0 29 5 27 11 -4 13 -52 21 -62
12z"/>
<path d="M4210 4117 c-23 -12 -25 -18 -25 -82 0 -48 -6 -82 -19 -108 -10 -20
-16 -48 -14 -62 3 -13 0 -26 -6 -28 -7 -3 -6 -9 3 -21 24 -29 3 -30 -39 -1
-33 23 -44 26 -63 17 l-22 -11 22 0 c12 -1 38 -9 57 -18 29 -15 37 -26 44 -63
5 -25 7 -61 5 -81 -3 -21 0 -40 6 -43 7 -5 11 6 11 33 0 22 5 43 11 47 7 4 7
9 2 13 -6 3 -13 23 -17 44 -6 32 -4 37 11 37 12 0 24 -13 32 -32 11 -28 14
-30 18 -13 4 13 -6 29 -30 52 -39 35 -42 65 -13 122 9 17 16 60 18 106 l2 77
43 -7 c28 -4 43 -2 43 4 0 6 -9 11 -21 11 -11 0 -17 5 -14 10 9 14 -15 12 -45
-3z"/>
<path d="M4338 4050 c12 -11 24 -20 28 -20 4 0 -1 9 -11 20 -10 11 -23 20 -28
20 -6 0 -1 -9 11 -20z"/>
<path d="M4763 4051 c-26 -22 -29 -31 -10 -31 6 0 17 11 24 25 6 14 10 25 10
25 -1 -1 -12 -9 -24 -19z"/>
<path d="M4804 4044 c3 -9 6 -22 6 -30 0 -9 5 -12 10 -9 6 4 10 -8 10 -29 0
-20 -4 -36 -10 -36 -18 0 -10 -29 11 -40 11 -7 27 -28 36 -47 12 -31 13 -40 1
-61 -10 -20 -10 -26 0 -29 6 -3 12 -17 12 -33 0 -15 3 -42 6 -59 5 -25 9 -29
20 -20 11 9 14 8 14 -5 0 -23 15 -20 37 7 10 12 25 21 33 20 16 -3 48 13 40
20 -12 11 -69 -7 -76 -24 -8 -17 -12 -18 -26 -7 -21 16 -27 42 -10 44 6 1 17
2 22 3 6 0 10 8 10 17 0 12 7 15 29 12 20 -3 32 1 40 14 16 26 13 42 -5 24 -8
-9 -23 -16 -33 -16 -10 0 -26 -9 -36 -20 -22 -25 -45 -26 -45 -2 1 18 22 52
34 52 4 0 17 9 29 20 24 23 73 23 87 0 7 -12 10 -11 16 3 9 25 2 29 -52 32
-46 3 -88 -11 -78 -27 3 -4 -4 -13 -16 -20 -11 -7 -20 -18 -20 -25 0 -15 -16
-17 -24 -4 -3 4 6 19 19 31 28 26 31 46 11 73 -16 20 -23 21 -29 5 -2 -7 -3
-4 -1 6 2 11 -1 25 -5 30 -5 6 -11 33 -14 59 -4 45 -28 87 -50 87 -5 0 -6 -7
-3 -16z m51 -124 c8 -13 -5 -13 -25 0 -13 8 -13 10 2 10 9 0 20 -4 23 -10z
m48 -80 c3 -11 1 -20 -4 -20 -5 0 -9 9 -9 20 0 11 2 20 4 20 2 0 6 -9 9 -20z"/>
<path d="M4273 4025 c0 -14 3 -25 8 -25 5 0 9 9 9 20 0 24 16 26 28 3 8 -13 3
-26 -20 -54 -24 -29 -29 -44 -26 -75 l4 -39 9 45 c5 29 18 54 37 72 34 31 34
35 6 59 -31 27 -55 25 -55 -6z"/>
<path d="M4224 4022 c-14 -9 -17 -79 -4 -87 6 -3 10 -16 10 -28 0 -14 3 -18
10 -11 7 7 6 21 -4 44 -10 24 -11 42 -5 58 11 28 9 34 -7 24z"/>
<path d="M4363 3941 c-21 -18 -31 -36 -27 -45 5 -14 9 -14 36 0 28 15 31 14
54 -7 13 -12 27 -19 31 -16 3 4 4 8 2 10 -2 1 -16 13 -31 26 -26 23 -28 23
-53 7 -29 -19 -34 -7 -7 17 22 20 57 22 72 5 56 -67 56 -68 38 -86 -6 -6 -9
-15 -5 -18 11 -11 17 0 23 37 3 26 -1 40 -20 62 -38 42 -74 44 -113 8z"/>
<path d="M4628 3954 c-39 -21 -62 -69 -50 -103 30 -77 23 -91 -39 -91 -16 0
-29 -4 -29 -10 0 -17 53 -11 88 10 30 18 32 22 18 36 -24 23 -19 33 12 25 15
-4 32 -6 38 -4 8 2 6 -9 -5 -31 -9 -19 -23 -37 -31 -39 -10 -3 -7 -5 6 -6 15
-1 26 10 40 39 10 21 29 44 41 51 23 13 39 39 23 39 -6 0 -10 -3 -10 -8 0 -14
-59 -33 -92 -30 -29 3 -33 7 -36 35 -2 24 3 39 22 58 31 30 55 32 90 4 14 -11
26 -17 26 -13 0 9 -41 44 -51 44 -4 0 -13 2 -21 5 -7 2 -25 -2 -40 -11z"/>
<path d="M3905 3949 c16 -7 12 -8 -16 -5 -30 4 -38 0 -52 -22 -9 -15 -17 -21
-17 -14 0 7 -13 12 -29 12 -22 0 -37 -9 -55 -33 -29 -38 -31 -52 -13 -90 12
-27 80 -63 98 -52 5 4 9 0 9 -8 0 -22 -34 -47 -63 -47 -14 0 -29 -4 -32 -10
-4 -6 6 -10 24 -10 56 0 69 -27 66 -143 -1 -56 -4 -106 -6 -112 -6 -18 12 -55
27 -55 8 0 14 -4 14 -10 0 -12 -27 -13 -34 -1 -7 10 -56 2 -56 -10 0 -4 -16
-23 -35 -42 -40 -39 -43 -47 -15 -47 11 0 20 7 20 16 0 8 5 12 10 9 6 -3 10
-2 10 3 0 14 47 62 61 62 7 0 5 -8 -6 -20 -13 -14 -16 -28 -11 -51 3 -18 3
-30 0 -26 -10 10 -33 -24 -34 -49 0 -11 -5 -25 -12 -32 -6 -6 -15 -33 -19 -59
-5 -27 -11 -63 -15 -80 -4 -23 -3 -33 6 -33 7 0 10 8 7 20 -3 11 -1 22 3 25 5
3 11 -5 13 -17 2 -13 2 -3 0 21 -4 40 -3 43 11 32 8 -7 21 -28 28 -47 6 -19
15 -34 19 -34 21 0 16 23 -16 71 -26 40 -33 59 -28 78 3 14 10 28 15 29 4 2 8
17 8 33 0 37 21 38 50 2 14 -19 24 -23 31 -16 8 8 2 18 -20 34 -22 16 -31 31
-31 51 0 27 30 68 50 68 15 0 12 -48 -2 -53 -9 -3 -5 -11 11 -26 13 -11 27
-21 30 -21 4 0 8 -13 9 -29 2 -30 -23 -66 -39 -56 -5 4 -9 1 -9 -5 0 -6 7 -13
15 -16 8 -4 15 -18 15 -34 0 -36 -24 -57 -45 -40 -9 7 -18 10 -22 6 -4 -3 3
-13 15 -22 27 -18 28 -47 4 -65 -14 -11 -17 -21 -12 -44 6 -25 8 -26 9 -7 0
13 13 39 27 58 14 18 24 40 21 47 -3 7 1 21 9 31 7 11 11 24 8 30 -3 6 6 -2
20 -19 19 -22 28 -27 37 -18 11 11 10 13 -41 52 -22 17 -23 21 -11 44 7 13 14
39 16 57 1 17 10 41 19 52 17 19 18 19 37 2 16 -14 19 -15 19 -2 0 8 -11 20
-25 26 -14 6 -25 20 -25 30 0 10 -5 23 -12 30 -23 23 1 24 46 3 47 -23 67 -57
60 -102 -2 -13 3 -33 11 -43 16 -21 32 -16 19 6 -5 7 -7 23 -6 34 2 12 -5 40
-14 62 -14 31 -26 43 -56 53 -22 7 -38 19 -38 28 -1 9 -7 33 -14 54 -8 20 -10
40 -5 43 5 3 9 18 9 35 0 33 12 37 32 12 7 -10 21 -22 30 -28 9 -5 30 -20 47
-33 31 -23 31 -23 31 -3 0 24 25 28 34 5 3 -8 11 -12 17 -8 9 5 8 10 -3 18 -8
6 -21 25 -30 43 -14 28 -14 34 -2 44 8 7 15 10 17 8 1 -2 11 -22 22 -44 10
-22 35 -56 55 -76 19 -20 43 -52 54 -72 10 -20 24 -38 31 -41 18 -7 -21 56
-67 109 -21 23 -38 47 -38 54 0 6 -4 11 -10 11 -5 0 -10 6 -10 14 0 8 -3 16
-8 18 -4 2 -20 27 -35 57 -24 48 -26 56 -12 63 8 5 15 19 15 31 0 26 -35 87
-50 87 -15 0 -12 -10 9 -28 10 -10 22 -29 25 -44 5 -23 2 -29 -17 -33 l-24 -6
18 -37 c23 -44 24 -58 3 -66 -23 -9 -24 -8 -24 13 0 13 -15 28 -40 42 -22 13
-40 27 -41 33 -1 6 -3 29 -4 51 l-4 40 19 -23 c24 -29 80 -47 80 -26 0 8 -10
14 -23 14 -54 0 -87 59 -52 93 12 13 12 16 1 20 -8 3 -17 21 -21 39 -9 38 -56
88 -82 87 -16 0 -15 -2 2 -10z m30 -30 c-3 -3 3 -15 13 -25 28 -33 41 -109 23
-142 -8 -15 -8 -23 0 -28 8 -5 6 -11 -7 -21 -12 -9 -15 -16 -8 -21 15 -10 23
-47 13 -63 -6 -10 -13 -11 -36 0 l-28 13 24 -26 c26 -28 31 -77 10 -102 -17
-21 -27 -17 -31 14 -2 18 -9 27 -20 27 -28 0 -51 30 -43 55 6 18 9 19 16 9 6
-10 11 -11 19 -3 8 8 1 16 -25 28 -36 18 -39 36 -4 36 32 0 60 36 53 68 -10
42 -27 53 -20 12 7 -41 2 -51 -38 -68 -37 -16 -48 -6 -18 19 32 25 25 51 -18
62 -40 10 -80 43 -80 66 0 9 7 25 15 35 12 16 17 17 30 6 10 -8 15 -9 15 -1 0
6 -4 11 -10 11 -5 0 -10 5 -10 10 0 14 33 13 47 -1 14 -14 33 -3 33 19 0 13
10 17 44 17 25 0 43 -2 41 -6z m94 -308 c11 -11 24 -29 31 -40 6 -12 17 -21
25 -21 17 0 20 -37 5 -60 -7 -12 -13 -10 -34 13 -14 15 -30 27 -35 27 -13 0
-61 45 -61 57 0 8 36 40 48 42 1 1 11 -8 21 -18z m-175 -77 c3 -9 12 -14 18
-12 16 6 66 -69 74 -111 6 -27 4 -33 -15 -38 l-22 -6 21 -19 c35 -32 21 -88
-22 -88 -16 0 -17 6 -12 39 5 33 3 41 -15 50 -11 6 -27 23 -35 38 -11 22 -11
32 0 58 11 27 11 35 -1 51 -16 21 -20 54 -6 54 5 0 12 -7 15 -16z"/>
<path d="M3840 3806 c0 -2 7 -7 16 -10 8 -3 12 -2 9 4 -6 10 -25 14 -25 6z"/>
<path d="M3860 3453 c1 -17 48 -65 54 -55 3 6 -4 22 -17 36 -24 26 -37 33 -37
19z"/>
<path d="M5097 3912 c-15 -11 -35 -29 -43 -41 -13 -19 -13 -21 0 -21 8 0 23 9
33 19 10 11 32 25 48 31 32 12 95 5 95 -10 0 -6 7 -10 15 -10 17 0 64 -48 65
-66 0 -20 -46 -54 -73 -54 -15 0 -27 -5 -27 -11 0 -6 9 -9 20 -6 11 3 18 1 14
-4 -3 -5 2 -9 10 -9 9 0 26 14 38 31 21 28 24 29 35 13 7 -10 13 -14 13 -10 0
5 6 4 13 -2 7 -6 28 -14 46 -17 52 -9 69 -22 81 -63 5 -20 10 -42 10 -48 0 -6
9 -22 21 -35 29 -34 51 -78 44 -89 -11 -17 -40 -11 -53 11 -7 12 -16 18 -19
15 -7 -7 -63 43 -63 56 0 4 7 8 15 8 8 0 15 -4 15 -10 0 -5 3 -10 8 -10 4 0 7
16 8 35 0 19 -3 35 -8 35 -4 0 -8 -6 -8 -13 0 -8 -12 -20 -26 -27 -22 -12 -27
-12 -34 0 -6 10 -10 11 -10 3 0 -7 8 -17 19 -22 10 -6 21 -24 24 -41 5 -24 12
-30 32 -30 14 0 36 -10 49 -23 13 -13 29 -21 37 -18 9 3 9 -1 -3 -12 -9 -9
-22 -15 -30 -14 -7 2 -10 2 -6 0 9 -6 -2 -33 -13 -33 -5 0 -9 7 -9 15 0 8 -4
15 -10 15 -6 0 -6 -9 0 -26 14 -35 13 -36 -9 -24 -28 14 -39 12 -18 -4 15 -11
16 -19 8 -34 -6 -11 -7 -23 -3 -27 4 -5 1 -5 -6 -1 -7 4 -19 2 -27 -4 -12 -10
-19 -6 -40 18 -13 16 -38 32 -55 35 -32 7 -41 31 -15 41 8 3 15 1 15 -4 0 -6
5 -10 10 -10 14 0 13 18 -2 33 -9 10 -16 8 -36 -9 -32 -31 -25 -56 20 -69 47
-13 85 -59 67 -81 -7 -8 -24 -14 -38 -12 -19 2 -27 11 -33 36 -5 17 -14 32
-21 32 -7 0 -21 6 -32 13 -15 11 -18 26 -16 76 1 41 -2 60 -9 56 -5 -3 -10
-21 -10 -39 0 -17 -5 -37 -12 -44 -9 -9 -9 -12 0 -12 7 0 12 -6 12 -14 0 -7 7
-19 16 -26 13 -12 11 -16 -16 -33 -31 -20 -39 -56 -14 -64 7 -2 10 7 8 24 -2
15 -1 21 3 13 3 -8 13 -21 20 -29 8 -8 12 -23 9 -36 -6 -25 17 -54 29 -35 8
13 -3 68 -16 75 -5 4 -13 14 -18 24 -7 13 -5 20 10 29 17 11 21 8 36 -28 10
-22 23 -38 29 -36 6 2 17 -1 23 -7 16 -16 58 10 65 39 5 17 13 24 30 24 17 0
26 7 30 26 9 32 42 82 79 113 36 32 37 82 1 134 -14 21 -35 68 -47 105 -22 66
-22 66 -72 80 -76 22 -88 30 -108 72 -26 56 -69 83 -136 88 -43 2 -63 -1 -84
-16z"/>
<path d="M4640 3901 c-13 -25 -13 -31 0 -31 6 0 10 7 10 15 0 18 32 20 63 4
22 -12 22 -12 3 10 -24 26 -62 27 -76 2z"/>
<path d="M3990 3897 c0 -14 37 -27 94 -32 16 -2 32 -9 37 -16 4 -7 11 -10 15
-6 13 13 -18 36 -64 46 -26 5 -55 13 -65 16 -11 5 -17 2 -17 -8z"/>
<path d="M5237 3851 c-3 -14 -1 -18 9 -14 8 3 14 11 14 19 0 21 -17 17 -23 -5z"/>
<path d="M4793 3848 c17 -47 18 -58 3 -58 -8 0 -21 -10 -27 -22 -13 -23 -24
-38 -53 -70 -15 -17 -27 -20 -78 -16 -60 4 -60 -4 0 -17 37 -8 96 15 106 40 3
9 12 12 21 9 13 -5 15 -19 12 -76 -4 -60 -2 -73 15 -90 11 -11 23 -17 26 -13
4 4 -1 11 -11 16 -25 15 -22 148 5 200 18 34 18 40 4 73 -8 20 -18 36 -22 36
-3 0 -4 -6 -1 -12z m-8 -114 c-23 -23 -32 -8 -9 17 10 11 20 16 22 10 2 -6 -4
-18 -13 -27z"/>
<path d="M4246 3829 c-5 -19 -1 -41 12 -70 11 -24 21 -36 21 -26 1 9 6 17 11
17 17 0 11 -29 -10 -50 -11 -11 -15 -20 -10 -20 6 0 10 -5 10 -11 0 -6 -7 -9
-15 -5 -18 7 -85 -20 -85 -35 0 -12 43 -1 48 12 2 5 12 9 23 9 14 0 19 -8 20
-32 2 -32 2 -32 6 -5 3 20 9 27 19 23 8 -3 14 -1 14 4 0 6 -4 10 -10 10 -15 0
-12 40 5 56 8 9 15 19 15 24 0 13 -31 41 -39 36 -4 -3 -8 0 -9 7 -1 7 -5 28
-10 47 -9 35 -9 35 -16 9z"/>
<path d="M4355 3840 c28 -12 45 -12 45 0 0 6 -15 10 -32 9 -28 0 -30 -2 -13
-9z"/>
<path d="M4428 3835 c-7 -9 -20 -24 -28 -33 -47 -53 -53 -64 -55 -112 -2 -27
1 -47 6 -44 5 3 9 0 9 -5 0 -6 12 -11 28 -10 l27 1 -25 7 c-28 8 -41 41 -15
41 9 0 25 -4 35 -10 12 -6 27 -6 42 -1 21 9 21 10 -9 10 -45 1 -83 21 -83 43
0 24 12 23 35 -2 10 -11 23 -20 28 -20 6 0 1 10 -11 23 -22 23 -30 57 -13 57
5 0 11 -9 14 -19 6 -23 51 -55 69 -48 9 3 6 7 -7 12 -11 5 -28 15 -37 23 -22
19 -24 72 -3 72 8 0 15 7 15 15 0 19 -6 19 -22 0z"/>
<path d="M4451 3806 c-16 -19 -3 -46 22 -46 20 0 20 1 2 13 -12 10 -14 16 -7
21 14 8 16 26 3 26 -5 0 -14 -6 -20 -14z"/>
<path d="M3676 3792 c-9 -9 -31 -22 -49 -28 -36 -12 -80 -69 -72 -94 3 -10 -9
-35 -30 -61 -19 -24 -35 -56 -35 -70 0 -29 25 -68 36 -56 4 4 2 13 -4 19 -21
21 -13 55 23 98 25 29 35 52 35 75 0 26 7 39 29 54 16 12 35 21 43 21 17 0 61
47 50 54 -5 3 -16 -3 -26 -12z"/>
<path d="M4705 3774 c9 -46 -21 -68 -82 -61 -31 4 -41 3 -28 -3 39 -17 83 -11
110 14 25 24 26 26 10 53 l-16 28 6 -31z"/>
<path d="M4500 3780 c0 -5 16 -10 35 -10 19 0 35 4 35 8 0 4 -16 9 -35 10 -19
2 -35 -2 -35 -8z"/>
<path d="M5048 3753 c0 -21 0 -51 1 -67 4 -50 -7 -76 -33 -76 -13 0 -35 -9
-50 -21 l-26 -21 -8 23 c-7 18 -10 19 -15 6 -3 -9 -2 -19 3 -22 13 -8 0 -107
-17 -127 -8 -9 -13 -29 -10 -45 l4 -28 2 26 c0 15 12 37 25 50 18 18 23 31 19
54 -4 24 1 35 24 56 40 38 75 43 107 18 14 -11 26 -16 26 -10 0 6 -4 11 -10
11 -5 0 -14 18 -21 39 -10 35 -9 44 10 76 24 41 25 45 11 45 -5 0 -10 -7 -10
-16 0 -8 -4 -13 -8 -10 -5 3 -7 18 -4 34 2 16 -1 33 -7 36 -7 5 -12 -6 -13
-31z"/>
<path d="M5228 3724 c-5 -4 -8 -22 -8 -40 0 -26 -6 -36 -27 -46 -27 -13 -45
-58 -24 -58 6 0 11 6 11 12 0 7 15 26 33 43 28 25 32 35 27 63 -3 19 -8 30
-12 26z"/>
<path d="M3623 3703 c-15 -6 -18 -53 -3 -53 6 0 10 9 10 20 0 13 7 20 20 20
11 0 20 -7 20 -15 0 -8 5 -15 10 -15 17 0 11 18 -12 34 -24 17 -26 17 -45 9z"/>
<path d="M5158 3697 c-14 -6 -32 -22 -38 -36 -7 -14 -16 -34 -21 -43 -6 -11
-5 -18 1 -18 5 0 10 -10 10 -23 0 -12 9 -28 20 -35 21 -13 40 -9 40 9 0 6 -5
7 -11 4 -6 -4 -17 1 -24 11 -25 32 -18 64 22 100 41 37 41 45 1 31z"/>
<path d="M4511 3664 c-19 -19 -40 -34 -47 -34 -27 0 -62 -23 -57 -36 3 -9 -2
-14 -12 -14 -11 0 -15 5 -12 14 4 10 0 12 -14 9 -13 -4 -19 0 -19 11 0 9 -5
16 -11 16 -6 0 -8 -7 -5 -16 3 -9 6 -17 6 -20 0 -2 16 -10 35 -18 27 -11 35
-21 35 -40 0 -13 -6 -27 -12 -29 -8 -3 -6 -6 4 -6 13 -1 18 10 20 50 2 43 7
53 26 60 13 5 22 4 22 -1 0 -6 -7 -10 -17 -10 -15 0 -15 -1 0 -18 10 -10 17
-24 17 -30 0 -7 15 -20 34 -28 42 -21 96 -12 114 17 18 28 5 38 -14 11 -26
-38 -108 -28 -125 15 -17 45 54 111 82 77 9 -11 5 -14 -22 -15 l-34 -1 40 -9
c21 -5 43 -15 47 -22 4 -7 8 -7 8 -1 0 5 -5 15 -12 22 -9 9 -8 12 5 12 9 0 17
-4 17 -10 0 -5 23 -10 50 -10 29 0 50 4 50 11 0 6 -16 10 -37 8 -69 -5 -130
25 -118 59 7 21 -8 12 -44 -24z"/>
<path d="M5411 3674 c-29 -37 -26 -53 4 -20 13 14 32 26 42 26 15 0 16 2 3 10
-22 14 -26 13 -49 -16z"/>
<path d="M3627 3623 c-9 -21 -33 -60 -52 -86 -40 -54 -41 -72 -2 -33 14 14 22
27 19 30 -3 4 6 19 19 34 22 23 49 73 49 87 0 3 -4 5 -8 5 -5 0 -16 -17 -25
-37z"/>
<path d="M4727 3631 c-4 -17 -14 -30 -26 -34 -16 -4 -21 -13 -20 -39 l1 -33 9
32 c5 17 18 34 28 38 11 3 21 18 23 35 6 38 -8 39 -15 1z"/>
<path d="M5245 3635 c-18 -17 -25 -35 -25 -64 0 -42 -25 -71 -61 -71 -9 0 -23
-8 -30 -17 -13 -15 -12 -16 9 -11 27 7 27 5 5 -33 -11 -18 -23 -27 -31 -24 -9
3 -12 0 -9 -9 3 -7 0 -19 -6 -25 -7 -7 -7 -11 -1 -11 17 0 62 53 69 82 4 15
16 30 26 33 10 4 19 12 19 20 0 7 6 15 14 18 10 4 16 24 18 54 3 44 5 48 37
57 23 7 39 6 52 -2 30 -19 36 -13 10 8 -31 27 -67 25 -96 -5z"/>
<path d="M4870 3589 c0 -22 4 -38 8 -35 12 7 13 76 2 76 -6 0 -10 -18 -10 -41z"/>
<path d="M4820 3611 c0 -6 5 -13 10 -16 6 -3 9 -26 8 -49 0 -24 2 -48 6 -54 3
-5 1 -23 -4 -38 -7 -17 -7 -31 -1 -37 13 -13 32 59 22 86 -5 12 -6 37 -4 55 3
20 1 32 -6 32 -6 0 -11 7 -11 15 0 8 -4 15 -10 15 -5 0 -10 -4 -10 -9z"/>
<path d="M4160 3590 c0 -5 21 -31 46 -59 l45 -49 29 30 c18 18 34 27 42 22 10
-5 11 -4 1 7 -7 7 -13 22 -13 34 0 13 -7 6 -21 -22 -12 -24 -25 -43 -31 -43
-12 0 -78 67 -78 80 0 6 -4 10 -10 10 -5 0 -10 -4 -10 -10z"/>
<path d="M4622 3591 c-11 -7 -11 -9 1 -14 16 -6 27 0 27 15 0 10 -11 10 -28
-1z"/>
<path d="M3638 3562 c-16 -9 -28 -20 -28 -24 0 -12 8 -10 37 9 14 10 39 16 55
14 15 -1 28 2 28 8 0 17 -62 12 -92 -7z"/>
<path d="M3750 3555 c-17 -10 -20 -14 -9 -15 9 0 22 7 29 15 15 18 12 18 -20
0z"/>
<path d="M4510 3560 c0 -5 5 -10 10 -10 6 0 10 5 10 10 0 6 -4 10 -10 10 -5 0
-10 -4 -10 -10z"/>
<path d="M4555 3560 c-3 -5 1 -10 9 -10 9 0 16 5 16 10 0 6 -4 10 -9 10 -6 0
-13 -4 -16 -10z"/>
<path d="M4725 3549 c-12 -19 5 -23 22 -6 16 16 16 17 1 17 -9 0 -20 -5 -23
-11z"/>
<path d="M3652 3504 c-24 -32 -28 -44 -17 -44 8 0 15 3 15 8 1 4 10 18 21 32
l21 25 19 -24 c11 -13 22 -21 25 -18 4 3 -1 13 -10 22 -9 9 -16 21 -16 26 0 6
-4 8 -9 5 -5 -4 -11 -2 -13 3 -1 5 -18 -11 -36 -35z"/>
<path d="M4340 3545 c0 -3 9 -15 20 -27 22 -24 26 -18 10 13 -10 17 -30 27
-30 14z"/>
<path d="M5046 3533 c-25 -14 -45 -20 -69 -22 -5 -1 -5 -10 -2 -21 5 -14 2
-20 -9 -20 -14 0 -18 -20 -16 -75 0 -3 -11 -25 -25 -50 -13 -25 -20 -45 -15
-45 6 0 10 3 10 8 0 4 12 20 28 36 21 23 27 38 24 65 -3 46 27 81 95 110 25
12 40 31 21 30 -7 -1 -26 -8 -42 -16z"/>
<path d="M5292 3524 c-18 -8 -37 -12 -43 -9 -5 4 -9 1 -9 -5 0 -19 29 -22 61
-6 39 20 43 20 35 1 -3 -8 0 -14 7 -12 8 1 11 -10 10 -33 -2 -33 -1 -33 9 -12
9 18 9 28 0 43 -21 33 -11 39 23 13 17 -13 18 -16 5 -25 -13 -9 -12 -10 2 -5
10 3 20 1 23 -4 4 -6 14 -10 23 -10 12 0 7 8 -16 30 -46 41 -69 53 -75 37 -4
-9 -6 -9 -6 1 -1 15 -7 14 -49 -4z"/>
<path d="M4770 3521 c0 -5 5 -13 10 -16 6 -3 10 -2 10 4 0 5 -4 13 -10 16 -5
3 -10 2 -10 -4z"/>
<path d="M4870 3514 c0 -8 5 -12 10 -9 6 3 10 10 10 16 0 5 -4 9 -10 9 -5 0
-10 -7 -10 -16z"/>
<path d="M4651 3504 c0 -11 3 -14 6 -6 3 7 2 16 -1 19 -3 4 -6 -2 -5 -13z"/>
<path d="M4690 3510 c0 -5 7 -10 16 -10 8 0 12 5 9 10 -3 6 -10 10 -16 10 -5
0 -9 -4 -9 -10z"/>
<path d="M4736 3503 c3 -14 -2 -29 -14 -41 -10 -10 -16 -24 -14 -32 3 -9 -1
-11 -12 -7 -9 4 -15 3 -12 -2 3 -5 -2 -12 -11 -15 -13 -5 -14 -9 -4 -19 9 -9
16 -7 31 13 16 20 22 22 29 11 5 -7 7 -21 5 -30 -11 -59 -16 -71 -28 -71 -8 0
-17 -8 -20 -17 -6 -15 -8 -15 -23 0 -12 12 -14 19 -5 29 8 11 6 21 -10 43 -11
17 -17 21 -13 10 16 -44 16 -51 -2 -67 -21 -18 -78 -34 -69 -19 4 5 2 12 -4
16 -15 9 -12 25 5 25 8 0 15 4 15 8 0 5 -13 9 -30 9 -16 0 -30 -4 -30 -9 0 -4
4 -8 9 -8 5 0 11 -9 14 -20 4 -16 0 -20 -22 -20 -35 0 -71 26 -72 53 -1 20 -2
19 -12 -5 -14 -36 -27 -35 -67 2 -25 24 -31 35 -26 55 4 14 2 25 -3 25 -9 0
-27 -59 -19 -64 1 -1 15 -10 31 -19 15 -10 27 -24 27 -31 0 -21 41 -28 55 -9
11 14 13 14 26 -5 12 -17 23 -20 56 -16 23 3 44 0 47 -5 3 -5 14 -7 25 -4 13
3 27 -6 47 -34 16 -21 37 -46 47 -57 13 -13 17 -27 14 -46 -5 -20 1 -33 21
-53 15 -15 37 -37 50 -50 25 -28 30 -77 7 -77 -8 0 -15 9 -15 19 0 18 -18 31
-43 31 -6 0 -1 -7 11 -16 12 -8 22 -21 22 -28 0 -8 6 -16 14 -19 8 -3 19 -22
26 -41 6 -20 18 -36 26 -36 21 0 17 20 -8 41 -18 16 -20 22 -9 42 6 12 10 38
9 57 -2 26 1 35 15 38 26 5 59 -28 53 -51 -3 -11 2 -27 11 -35 14 -14 15 -13
8 17 -6 29 -5 32 12 29 10 -2 26 -19 35 -38 11 -21 18 -28 18 -17 0 22 -29 81
-37 73 -3 -3 -14 -1 -24 5 -15 7 -19 21 -19 59 0 27 -5 52 -11 56 -6 3 -8 16
-5 27 3 14 -7 37 -30 69 -20 26 -34 48 -31 48 2 0 20 -6 38 -14 40 -17 60 -45
52 -75 -3 -11 -1 -21 5 -21 11 0 54 -81 47 -88 -3 -3 -11 1 -20 8 -9 7 -19 10
-23 6 -4 -4 0 -13 9 -19 8 -7 18 -20 22 -29 3 -10 11 -18 17 -18 14 0 13 13
-2 28 -9 9 -9 12 0 12 17 0 14 41 -3 64 -8 11 -15 30 -15 43 0 13 -12 42 -27
65 -16 23 -28 53 -28 67 0 14 -4 26 -10 26 -5 0 -10 -11 -10 -25 0 -24 -5 -30
-25 -30 -13 0 -13 57 0 63 6 3 5 4 -2 3 -7 -1 -21 -28 -32 -59 -10 -31 -22
-57 -27 -57 -5 0 -18 9 -29 20 -24 24 -30 25 -30 5 0 -8 13 -21 30 -30 34 -18
53 -47 44 -69 -8 -21 -9 -20 -38 9 -14 14 -32 25 -40 25 -8 0 -23 16 -35 35
-11 19 -27 35 -36 35 -18 0 -20 16 -3 26 6 4 14 2 16 -4 2 -7 15 -12 28 -12
14 0 22 4 19 10 -3 6 0 10 9 10 8 0 16 5 18 12 2 6 10 8 16 4 7 -4 10 -16 7
-27 -4 -11 -2 -19 4 -19 6 0 11 9 11 20 0 10 7 23 16 28 10 6 13 12 6 16 -13
8 13 62 36 75 20 11 12 24 -10 16 -15 -6 -44 -72 -40 -92 2 -7 -4 -13 -12 -13
-11 0 -13 11 -9 53 4 42 1 57 -12 70 -14 15 -15 17 -1 17 9 0 16 8 16 19 0 11
6 22 13 24 7 4 6 6 -5 6 -9 1 -19 7 -22 14 -3 6 -3 2 0 -10z m95 -285 c23 -28
24 -54 3 -62 -26 -10 -35 -7 -33 12 2 9 -2 27 -9 38 -21 38 9 47 39 12z m89
-28 c0 -5 -4 -10 -10 -10 -5 0 -10 5 -10 10 0 6 5 10 10 10 6 0 10 -4 10 -10z
m-146 -76 c41 -43 43 -47 27 -63 -18 -19 -41 -17 -41 4 0 8 -11 22 -25 33 -25
20 -36 72 -15 72 6 0 31 -21 54 -46z m82 -1 c3 -15 8 -36 11 -45 3 -13 -1 -18
-16 -18 -14 0 -21 6 -21 19 0 10 -11 27 -25 37 -33 25 -32 29 10 32 30 2 35
-1 41 -25z"/>
<path d="M4300 3490 c0 -13 5 -18 15 -14 8 4 15 10 15 14 0 4 -7 10 -15 14
-10 4 -15 -1 -15 -14z"/>
<path d="M5050 3464 c0 -28 -5 -37 -20 -41 -20 -5 -38 -48 -26 -61 4 -3 9 4
13 16 3 12 16 25 29 28 18 5 24 13 24 34 0 16 3 35 6 44 4 11 1 16 -10 16 -12
0 -16 -10 -16 -36z"/>
<path d="M5460 3492 c0 -12 19 -26 26 -19 2 2 -2 10 -11 17 -9 8 -15 8 -15 2z"/>
<path d="M4346 3481 c-4 -7 -5 -15 -2 -18 9 -9 19 4 14 18 -4 11 -6 11 -12 0z"/>
<path d="M4400 3482 c0 -15 40 -52 57 -52 7 0 13 5 13 10 0 6 -7 10 -15 10 -8
0 -23 10 -35 22 -11 12 -20 17 -20 10z"/>
<path d="M3570 3470 c0 -5 5 -10 10 -10 6 0 10 5 10 10 0 6 -4 10 -10 10 -5 0
-10 -4 -10 -10z"/>
<path d="M3683 3466 c9 -7 17 -21 17 -30 0 -18 15 -22 25 -6 7 11 -30 50 -47
50 -8 -1 -6 -6 5 -14z"/>
<path d="M4506 3473 c-11 -11 -6 -23 9 -23 8 0 15 4 15 9 0 13 -16 22 -24 14z"/>
<path d="M4653 3460 c-26 -20 -29 -30 -10 -30 12 0 42 38 35 45 -2 2 -13 -5
-25 -15z"/>
<path d="M4792 3460 c0 -14 2 -19 5 -12 2 6 2 18 0 25 -3 6 -5 1 -5 -13z"/>
<path d="M3530 3463 c1 -10 36 -53 44 -53 14 0 5 24 -16 41 -23 21 -28 23 -28
12z"/>
<path d="M3749 3458 c12 -17 6 -63 -12 -85 -6 -9 -6 -13 1 -13 6 0 19 16 28
36 17 35 16 36 -6 57 -13 12 -18 15 -11 5z"/>
<path d="M3980 3463 c1 -16 35 -51 58 -58 30 -9 29 13 -1 24 -13 5 -31 17 -40
26 -10 9 -17 13 -17 8z"/>
<path d="M4160 3455 c-8 -9 -8 -15 -2 -15 12 0 26 19 19 26 -2 2 -10 -2 -17
-11z"/>
<path d="M5080 3455 c0 -8 4 -15 10 -15 5 0 7 7 4 15 -4 8 -8 15 -10 15 -2 0
-4 -7 -4 -15z"/>
<path d="M3636 3442 c6 -4 13 -15 17 -24 7 -20 22 -23 32 -8 3 6 -1 10 -9 10
-9 0 -16 7 -16 15 0 8 -8 15 -17 15 -11 0 -14 -3 -7 -8z"/>
<path d="M4540 3440 c0 -5 9 -10 20 -10 11 0 20 5 20 10 0 6 -9 10 -20 10 -11
0 -20 -4 -20 -10z"/>
<path d="M5410 3435 c0 -8 5 -15 10 -15 6 0 10 7 10 15 0 8 -4 15 -10 15 -5 0
-10 -7 -10 -15z"/>
<path d="M4190 3425 c-2 -11 -2 -28 -1 -39 0 -10 -3 -24 -9 -31 -11 -14 -2
-75 11 -75 14 0 10 -36 -5 -49 -7 -6 -16 -24 -20 -39 -7 -36 -22 -56 -34 -48
-12 7 3 69 18 74 5 2 7 14 4 27 -3 12 -1 26 5 29 6 4 11 15 11 24 0 13 -5 12
-20 -8 -12 -15 -18 -34 -15 -47 3 -12 0 -23 -5 -25 -31 -10 -49 -278 -19 -278
13 0 11 44 -2 57 -8 8 -8 13 0 17 6 4 11 16 11 27 0 10 7 19 15 19 8 0 15 -8
15 -18 0 -10 5 -23 11 -29 14 -14 49 -5 49 13 0 17 -16 18 -26 2 -12 -19 -23
22 -17 61 4 24 2 32 -6 27 -6 -4 -11 -14 -11 -22 0 -20 -24 -12 -28 9 -2 10 7
21 22 28 16 8 27 23 32 43 3 17 14 40 23 51 20 23 20 31 3 63 -7 12 -9 22 -3
22 14 0 23 31 12 44 -5 6 -11 29 -14 51 -2 22 -5 31 -7 20z m6 -102 c-10 -10
-19 5 -10 18 6 11 8 11 12 0 2 -7 1 -15 -2 -18z m-76 -248 c0 -8 -4 -15 -10
-15 -5 0 -10 7 -10 15 0 8 5 15 10 15 6 0 10 -7 10 -15z"/>
<path d="M3610 3420 c0 -8 -3 -25 -6 -37 -8 -28 44 -81 59 -61 6 9 7 8 3 -5
-9 -26 12 -63 27 -48 9 9 9 14 0 19 -6 4 -13 21 -14 37 -3 25 0 31 20 33 18 3
21 6 10 12 -9 6 -21 2 -37 -12 l-22 -22 -23 22 c-18 18 -19 24 -8 31 10 7 11
13 2 27 -8 14 -11 15 -11 4z"/>
<path d="M4100 3411 c0 -11 -7 -21 -15 -23 -10 -2 -12 -7 -5 -18 9 -13 11 -13
19 -1 8 12 13 11 31 -10 23 -26 23 -23 -3 34 -19 41 -27 47 -27 18z"/>
<path d="M4373 3413 c9 -9 20 -13 24 -9 4 4 1 11 -7 16 -25 16 -35 11 -17 -7z"/>
<path d="M5367 3424 c-9 -10 2 -24 19 -24 8 0 14 7 14 15 0 15 -21 21 -33 9z"/>
<path d="M4581 3400 c16 -24 39 -38 39 -23 0 4 -13 17 -28 28 l-27 19 16 -24z"/>
<path d="M4410 3395 c0 -8 4 -15 10 -15 5 0 7 7 4 15 -4 8 -8 15 -10 15 -2 0
-4 -7 -4 -15z"/>
<path d="M4490 3375 c0 -8 4 -15 10 -15 5 0 7 7 4 15 -4 8 -8 15 -10 15 -2 0
-4 -7 -4 -15z"/>
<path d="M4850 3380 c0 -5 5 -10 10 -10 6 0 10 5 10 10 0 6 -4 10 -10 10 -5 0
-10 -4 -10 -10z"/>
<path d="M5156 3375 c-11 -8 -17 -17 -14 -21 7 -6 48 17 48 28 0 12 -13 9 -34
-7z"/>
<path d="M5417 3383 c-4 -3 -7 -11 -7 -17 0 -6 5 -5 12 2 6 6 9 14 7 17 -3 3
-9 2 -12 -2z"/>
<path d="M4252 3354 c9 -20 9 -30 -4 -52 -18 -31 -26 -72 -16 -88 4 -6 -7 -30
-24 -53 -17 -23 -28 -44 -26 -47 3 -2 16 11 29 30 17 25 27 32 35 25 8 -7 14
-6 19 1 3 5 1 10 -4 10 -6 0 -11 4 -11 10 0 5 15 7 33 5 23 -4 27 -3 13 3 -19
8 -18 9 4 15 30 8 49 -8 32 -25 -7 -7 -12 -18 -12 -26 0 -12 3 -12 15 -2 15
12 21 71 9 83 -4 3 -13 0 -20 -8 -8 -8 -21 -12 -28 -9 -8 3 -17 1 -21 -5 -9
-16 -22 -13 -29 5 -4 10 1 25 10 35 14 15 14 19 3 19 -12 0 -12 2 0 9 8 5 19
7 26 5 14 -6 41 23 31 33 -3 3 -6 1 -6 -5 0 -7 -9 -12 -21 -12 -11 0 -17 5
-14 10 9 15 -3 47 -20 54 -12 4 -12 1 -3 -20z"/>
<path d="M4970 3328 c0 -17 -7 -39 -16 -49 -8 -9 -14 -28 -12 -41 3 -22 4 -22
20 8 10 17 14 34 11 38 -4 3 1 6 10 6 13 0 17 -9 17 -34 0 -19 -4 -37 -9 -41
-9 -5 -41 -62 -41 -72 0 -1 5 -3 11 -3 5 0 14 12 20 28 5 15 19 33 31 41 20
13 21 12 15 -30 -3 -24 -13 -49 -23 -56 -13 -9 -18 -28 -19 -68 -1 -30 -5 -58
-8 -62 -4 -3 -7 -10 -7 -15 0 -5 7 -2 16 7 22 22 41 5 49 -47 6 -32 3 -46 -14
-69 -12 -15 -21 -35 -21 -44 0 -18 -16 -20 -23 -2 -3 6 -6 7 -6 2 -1 -6 11
-23 25 -38 16 -18 24 -37 23 -55 -3 -43 0 -76 8 -68 11 10 6 107 -6 119 -16
16 -14 31 9 57 27 32 29 147 3 157 -26 9 -33 23 -33 64 0 25 7 42 25 59 l25
23 0 -29 c0 -17 -4 -34 -10 -40 -11 -11 -2 -54 12 -54 5 0 8 10 7 23 -1 12 2
30 6 40 4 10 3 36 -4 56 -6 21 -11 47 -11 59 0 11 -7 23 -16 26 -13 5 -15 15
-11 41 4 26 3 33 -9 28 -15 -6 -35 33 -27 55 3 6 0 12 -6 12 -6 0 -11 -14 -11
-32z"/>
<path d="M5086 3351 c-4 -6 -16 -11 -26 -11 -20 0 -36 -17 -26 -27 4 -4 12 -1
18 5 17 17 55 15 62 -4 9 -23 9 -22 -29 -38 -21 -9 -35 -22 -35 -32 0 -16 2
-16 20 1 11 10 23 15 27 12 10 -11 33 14 33 37 -1 28 -35 73 -44 57z"/>
<path d="M4084 3336 c-4 -10 -2 -21 4 -25 6 -4 15 -18 21 -31 6 -16 10 -19 10
-9 1 9 -5 32 -13 50 -12 29 -16 31 -22 15z"/>
<path d="M5148 3308 c0 -18 0 -42 1 -52 1 -11 -13 -35 -31 -53 -25 -26 -29
-36 -20 -45 9 -9 12 -9 12 0 0 6 12 23 27 38 l27 27 18 -23 c18 -22 18 -23 0
-39 -11 -9 -24 -26 -31 -39 -12 -23 -6 -47 10 -36 5 3 7 9 4 13 -6 10 40 61
54 61 6 0 14 -12 17 -26 5 -20 1 -31 -18 -48 -14 -11 -28 -29 -31 -38 -7 -18
-27 -25 -27 -9 0 5 -7 12 -15 15 -14 5 -14 2 1 -23 17 -29 16 -38 -11 -126 -3
-12 1 -28 10 -40 15 -19 15 -19 9 8 -3 15 -1 33 5 40 6 8 12 35 12 61 2 46 19
78 19 35 0 -13 5 -37 12 -55 9 -27 9 -38 -2 -59 -8 -14 -13 -42 -13 -60 1 -19
-3 -32 -8 -29 -5 3 -6 -1 -3 -9 3 -8 -3 -20 -12 -28 -15 -12 -16 -10 -9 29 7
41 6 42 -21 42 -25 0 -26 -15 -1 -15 7 0 10 -9 9 -20 -2 -11 -4 -30 -4 -42 0
-13 -6 -23 -15 -23 -10 0 -13 -10 -11 -37 2 -21 8 -37 13 -35 6 2 9 9 7 17 -3
16 36 85 49 85 5 0 9 -10 9 -21 0 -12 8 -28 18 -35 14 -11 15 -16 5 -31 -18
-26 -75 -144 -83 -173 l-7 -25 -11 28 c-7 15 -16 27 -22 27 -5 0 -10 9 -10 20
0 40 -17 19 -27 -32 -14 -79 -11 -514 5 -530 6 -6 12 -21 12 -32 0 -25 48 -76
72 -76 13 0 18 -8 18 -30 0 -20 8 -35 25 -46 24 -16 35 -54 15 -54 -5 0 -10 5
-10 11 0 7 -10 9 -25 5 -23 -6 -25 -4 -20 16 3 13 0 31 -7 41 -12 16 -13 13
-10 -22 4 -36 2 -41 -17 -41 -12 0 -29 9 -38 19 -28 29 -57 74 -59 89 -2 7 -9
23 -17 35 -7 12 -19 51 -26 85 -7 35 -26 85 -42 112 -16 26 -29 52 -29 59 0 6
-4 11 -9 11 -10 0 -3 -71 8 -80 3 -3 8 -18 10 -35 4 -42 11 -45 11 -4 0 26 3
30 10 19 14 -21 31 -87 32 -121 1 -16 5 -29 10 -29 4 0 8 -7 8 -15 0 -8 5 -15
11 -15 5 0 9 -8 7 -17 -5 -38 97 -156 113 -131 7 10 12 10 28 1 14 -9 21 -9
23 -1 6 18 48 -14 48 -37 0 -11 9 -26 19 -32 33 -20 55 25 42 86 -1 2 -8 -2
-16 -9 -11 -9 -13 -16 -5 -24 13 -13 13 -46 0 -46 -16 0 -30 37 -30 82 0 32
-5 46 -20 55 -11 7 -23 27 -28 45 -5 19 -15 32 -22 30 -23 -5 -67 48 -76 91
-12 62 -11 548 1 544 37 -12 55 -186 32 -315 -14 -83 -14 -84 14 -175 16 -51
27 -98 24 -104 -2 -7 1 -13 6 -13 16 0 2 102 -22 157 -16 38 -17 51 -7 91 6
26 12 108 14 182 2 135 20 219 51 245 6 6 13 19 15 30 2 11 5 22 8 25 3 3 20
25 38 49 42 59 44 128 3 89 -11 -11 -13 -10 -9 2 2 8 18 21 34 30 22 13 30 26
35 56 3 21 11 55 19 75 10 28 10 43 2 69 -7 18 -9 36 -6 42 3 5 0 15 -6 23 -6
8 -9 22 -6 32 7 24 -18 71 -29 53 -4 -7 -3 -15 2 -19 16 -10 13 -74 -4 -93
-10 -11 -12 -18 -5 -18 7 0 12 6 12 13 0 8 3 7 9 -3 6 -8 8 -17 5 -21 -2 -4 0
-10 6 -14 15 -9 12 -20 -15 -49 -26 -28 -32 -46 -15 -46 6 0 10 7 10 15 0 8 8
15 17 15 13 0 14 -3 5 -12 -7 -7 -12 -20 -12 -30 0 -10 -7 -18 -15 -18 -11 0
-13 -8 -10 -32 4 -26 3 -29 -4 -13 -7 15 -10 16 -10 4 -1 -9 -10 -24 -20 -33
-16 -15 -18 -21 -8 -37 15 -24 24 -24 30 -1 4 16 5 16 6 -1 1 -23 -28 -67 -44
-67 -9 0 -16 20 -20 55 -6 44 -4 59 9 74 9 10 16 24 16 32 0 12 -2 11 -10 -1
-17 -26 -12 8 6 43 16 30 16 32 -5 45 -30 20 -26 57 9 102 38 48 38 64 0 102
-26 25 -29 33 -18 46 11 13 10 14 -14 9 -24 -6 -28 -4 -34 18 -4 15 -4 42 -1
61 3 18 2 34 -4 34 -5 0 -10 -15 -11 -32z"/>
<path d="M4334 3285 c-2 -32 12 -32 18 0 3 15 1 25 -6 25 -6 0 -12 -11 -12
-25z"/>
<path d="M4360 3255 c0 -15 4 -24 10 -20 6 3 10 12 10 20 0 8 -4 17 -10 20 -6
4 -10 -5 -10 -20z"/>
<path d="M4445 3260 c3 -5 1 -10 -5 -10 -6 0 -20 -21 -31 -47 -19 -46 -20 -59
-3 -125 4 -19 2 -28 -6 -28 -7 0 -10 7 -6 16 4 10 1 14 -6 12 -7 -3 -15 -15
-16 -29 -2 -13 -1 -21 4 -17 12 12 34 -12 34 -37 0 -18 5 -22 28 -21 20 1 28
7 30 24 2 13 14 27 28 32 13 5 24 16 24 24 0 7 8 20 17 27 15 12 16 12 9 -6
-14 -34 -7 -79 16 -98 12 -10 27 -16 33 -13 7 2 19 -11 28 -30 11 -21 24 -34
36 -34 22 0 33 -23 26 -53 -4 -17 2 -27 25 -42 17 -11 30 -27 29 -35 -3 -20
11 -50 22 -50 4 0 6 7 3 15 -4 8 -2 15 4 15 6 0 13 -14 17 -31 9 -42 18 -29
10 15 -6 32 -9 34 -28 25 -18 -10 -19 -9 -14 11 4 17 -1 26 -24 38 -21 13 -29
25 -29 45 0 16 -5 37 -10 48 -18 33 7 22 36 -16 15 -20 29 -33 32 -30 9 9 -20
55 -35 55 -8 0 -13 11 -13 29 0 16 -6 34 -14 40 -11 9 -12 7 -9 -12 3 -14 -2
-29 -12 -37 -18 -15 -31 -6 -37 25 -2 12 -16 24 -36 31 -19 6 -38 17 -43 25
-11 18 -12 59 -1 59 22 0 70 -32 75 -50 5 -20 30 -26 61 -14 18 7 23 64 6 64
-5 0 -10 -11 -10 -25 0 -20 -5 -25 -24 -25 -15 0 -26 7 -29 19 -2 11 -23 29
-46 40 -22 12 -41 26 -41 31 0 6 -4 10 -10 10 -5 0 -10 -7 -10 -15 0 -8 -17
-28 -39 -45 -28 -23 -37 -37 -34 -51 4 -14 0 -19 -16 -19 -18 0 -21 6 -21 39
0 30 5 42 25 55 14 9 25 23 25 31 0 16 36 39 49 31 12 -8 36 23 26 32 -4 4
-10 1 -12 -6 -3 -6 -9 -10 -14 -6 -18 11 -69 -20 -69 -42 0 -31 -27 -38 -34
-10 -7 29 9 87 34 119 18 23 18 37 -2 37 -5 0 -6 -4 -3 -10z"/>
<path d="M4528 3253 c16 -6 15 -28 -3 -43 -8 -7 -15 -18 -15 -24 1 -6 12 3 25
19 14 17 25 24 26 18 1 -7 2 -18 3 -25 0 -7 17 -23 36 -36 19 -12 40 -36 47
-52 11 -28 43 -42 43 -20 0 6 -7 10 -15 10 -9 0 -15 9 -15 23 0 14 -13 30 -36
45 -19 12 -38 30 -41 39 -9 23 -41 53 -55 52 -10 0 -10 -2 0 -6z"/>
<path d="M4018 3210 c33 -31 27 -90 -9 -90 -23 0 -25 -15 -4 -24 8 -3 15 -18
15 -33 0 -22 2 -25 10 -13 8 11 10 8 8 -15 -1 -17 7 -45 17 -62 19 -32 19 -33
-4 -57 -15 -16 -19 -26 -11 -31 6 -3 19 4 30 17 21 25 26 58 10 58 -5 0 -10 7
-10 15 0 8 -4 15 -10 15 -5 0 -9 15 -8 33 1 18 -4 43 -11 55 -8 15 -9 28 -2
40 10 16 10 16 11 0 0 -10 5 -18 10 -18 14 0 13 10 -7 75 -13 42 -22 55 -37
55 -19 0 -19 -1 2 -20z"/>
<path d="M3940 3193 c1 -14 27 -43 39 -43 8 0 5 9 -6 25 -18 24 -33 32 -33 18z"/>
<path d="M3800 3163 c0 -12 7 -28 15 -37 8 -8 15 -19 15 -25 0 -6 5 -11 10
-11 16 0 12 19 -15 58 -21 31 -25 33 -25 15z"/>
<path d="M4220 3126 c-7 -14 -10 -32 -7 -40 4 -9 2 -16 -3 -16 -6 0 -10 -4
-10 -10 0 -22 20 -8 26 18 3 15 9 37 14 50 13 30 -3 28 -20 -2z"/>
<path d="M4336 3134 c-4 -10 -12 -14 -22 -10 -21 8 -44 -11 -44 -35 0 -10 -7
-22 -16 -27 -17 -9 -56 -111 -48 -124 8 -12 32 -9 37 5 2 6 2 26 0 42 -4 22 1
37 19 55 13 14 22 35 20 46 -2 13 4 24 14 28 15 6 16 0 11 -54 -3 -33 -1 -63
4 -66 5 -3 9 4 9 16 0 12 4 19 9 16 6 -4 6 5 2 21 -11 38 6 83 31 83 10 0 16
5 13 10 -9 15 -32 12 -39 -6z m-109 -186 c-3 -8 -6 -5 -6 6 -1 11 2 17 5 13 3
-3 4 -12 1 -19z"/>
<path d="M5080 3120 c0 -6 7 -27 15 -47 8 -19 15 -49 15 -65 0 -17 4 -27 10
-23 16 10 12 49 -10 99 -18 44 -30 58 -30 36z"/>
<path d="M5242 3020 c-21 -34 -2 -45 24 -15 29 34 29 35 6 35 -9 0 -23 -9 -30
-20z"/>
<path d="M3975 3021 c-3 -5 -1 -12 5 -16 12 -7 30 2 30 16 0 12 -27 12 -35 0z"/>
<path d="M4339 2991 c-15 -16 -29 -46 -33 -72 -4 -23 -11 -49 -17 -55 -7 -9
-4 -16 11 -24 16 -9 21 -18 17 -36 -7 -38 16 -23 26 16 5 19 16 40 25 47 14
10 15 12 2 13 -8 0 -21 -9 -28 -20 -18 -29 -31 -25 -30 10 1 31 12 40 22 18 3
-7 2 6 -1 30 -5 38 -2 47 23 73 15 16 24 29 18 29 -5 0 -21 -13 -35 -29z"/>
<path d="M4955 3010 c3 -5 8 -10 11 -10 2 0 4 5 4 10 0 6 -5 10 -11 10 -5 0
-7 -4 -4 -10z"/>
<path d="M4130 3003 c0 -5 5 -14 12 -21 8 -8 8 -15 -2 -27 -8 -10 -9 -15 -2
-15 11 0 38 39 30 44 -2 1 -11 8 -20 15 -10 7 -18 9 -18 4z"/>
<path d="M3910 2994 c0 -9 31 -37 36 -32 9 9 -8 38 -22 38 -8 0 -14 -3 -14 -6z"/>
<path d="M4005 2985 c-11 -24 -26 -40 -43 -46 -10 -3 -8 -11 7 -28 14 -16 19
-31 15 -47 -8 -32 4 -30 17 2 7 21 6 31 -6 44 -22 24 -19 30 15 24 25 -5 30
-3 30 12 0 14 -3 15 -12 6 -17 -17 -33 -15 -18 3 6 8 10 22 7 32 -4 17 -5 16
-12 -2z"/>
<path d="M5081 2982 c-5 -9 -8 -28 -6 -42 13 -90 17 -102 26 -93 7 7 6 19 -2
37 -10 20 -10 29 -1 38 9 9 8 16 -5 30 -15 17 -15 18 -1 13 13 -5 15 -2 11 14
-7 26 -10 26 -22 3z"/>
<path d="M4277 2983 c-4 -3 -7 -17 -7 -30 0 -12 -4 -23 -10 -23 -5 0 -16 -16
-25 -35 -9 -19 -23 -39 -30 -45 -8 -6 -11 -18 -8 -26 3 -9 -1 -14 -12 -14 -14
0 -16 -5 -10 -27 5 -16 8 -36 9 -45 0 -9 4 -15 7 -12 4 2 10 -10 12 -28 l4
-33 1 31 c2 36 27 63 43 47 7 -7 6 -22 -5 -47 -15 -36 -15 -36 6 -25 18 10 20
17 14 60 -4 27 -2 57 3 67 9 16 -8 54 -23 53 -3 -1 -5 2 -3 7 1 4 5 6 8 5 4
-1 7 10 7 24 0 15 7 32 16 38 10 7 14 19 10 29 -3 9 -1 16 5 16 6 0 11 5 11
10 0 11 -13 13 -23 3z m-32 -185 c-13 -59 -45 -80 -45 -29 0 43 10 61 32 61
17 0 19 -4 13 -32z"/>
<path d="M4820 2982 c0 -5 7 -13 16 -16 10 -4 14 -1 12 6 -5 15 -28 23 -28 10z"/>
<path d="M3737 2973 c-11 -11 -8 -63 5 -86 7 -12 13 -28 14 -36 7 -42 17 -63
40 -88 15 -15 30 -27 35 -26 5 2 9 -9 9 -25 0 -34 9 -47 37 -56 19 -6 21 -10
11 -26 -9 -14 -8 -23 5 -44 10 -14 22 -26 27 -26 6 0 10 -32 10 -71 0 -46 9
-106 26 -167 16 -59 24 -107 20 -126 -3 -17 -11 -53 -17 -81 -6 -27 -11 -76
-10 -108 1 -61 -2 -66 -55 -71 -16 -2 -29 -8 -29 -14 0 -6 -3 -14 -7 -18 -5
-4 -8 -17 -8 -28 0 -12 -7 -30 -16 -41 -9 -12 -12 -30 -9 -46 4 -18 0 -32 -11
-43 -22 -22 -9 -34 14 -13 19 17 28 67 12 67 -18 0 -10 19 10 25 15 5 20 15
20 39 0 36 15 56 42 56 19 0 25 -25 8 -35 -5 -3 -10 -15 -10 -25 0 -11 -6 -25
-13 -32 -19 -17 -9 -56 17 -61 14 -3 11 -5 -11 -6 -17 0 -34 -5 -37 -10 -6
-10 51 -8 61 3 16 15 30 5 25 -19 -6 -34 -22 -42 -39 -20 -7 11 -13 13 -13 7
0 -7 -7 -12 -15 -12 -8 0 -15 5 -15 12 0 6 -9 2 -20 -10 -23 -24 -40 -29 -40
-10 0 6 -3 8 -6 5 -4 -4 -1 -13 6 -22 9 -10 9 -19 2 -27 -12 -16 -19 -84 -9
-94 4 -4 7 10 7 32 0 56 32 104 69 104 18 0 34 -7 40 -17 8 -14 13 -15 19 -5
6 9 42 14 115 15 58 2 109 6 113 10 4 4 -2 7 -14 7 -27 0 -28 14 -1 51 11 16
16 29 10 29 -6 0 -11 -5 -11 -11 0 -6 -9 -8 -22 -3 -19 6 -21 4 -12 -7 17 -20
-1 -59 -26 -59 -24 0 -28 37 -5 46 8 4 12 10 9 15 -10 18 -23 9 -35 -26 -8
-22 -20 -35 -31 -35 -22 0 -22 4 -2 36 9 13 14 27 11 31 -4 3 -16 -11 -28 -31
-22 -38 -49 -48 -49 -18 0 10 11 25 25 32 14 7 25 17 25 22 0 4 10 8 21 8 12
0 28 8 35 18 11 14 15 14 23 3 4 -7 11 -9 14 -4 3 5 -3 16 -14 23 -25 19 -24
30 6 62 16 18 20 28 12 31 -9 4 -9 6 1 6 7 1 12 14 12 31 0 17 4 30 8 30 5 0
9 23 10 50 1 72 -14 61 -23 -16 -4 -42 -17 -85 -36 -121 -21 -40 -26 -58 -18
-64 15 -9 2 -29 -19 -29 -9 0 -32 -9 -50 -20 -41 -25 -52 -25 -52 2 0 21 0 21
-22 2 -21 -19 -21 -19 -15 6 4 14 7 28 7 33 0 4 6 7 14 7 8 0 14 10 14 23 2
42 8 69 20 76 6 4 11 30 10 61 -2 62 12 141 38 219 14 44 16 76 11 192 -3 76
-11 147 -17 156 -9 14 -10 4 -5 -42 13 -128 16 -275 6 -275 -6 0 -13 10 -15
23 -25 114 -36 188 -36 232 0 34 -5 55 -12 58 -10 3 -9 9 3 23 9 10 19 39 22
62 4 35 1 48 -14 63 -15 15 -19 16 -19 4 0 -8 3 -15 8 -15 13 0 13 -81 -1
-101 -13 -17 -16 -18 -27 -4 -9 11 -10 18 -1 29 9 11 6 19 -16 36 -22 18 -24
22 -8 18 15 -4 20 1 21 18 2 20 0 21 -13 9 -15 -16 -43 -20 -43 -7 0 4 6 14
12 20 10 10 7 17 -16 35 -51 39 -76 69 -76 91 0 16 3 18 9 7 6 -10 10 -10 16
-1 4 7 -3 23 -17 38 -14 15 -25 40 -26 56 -2 33 -6 39 -15 29z"/>
<path d="M3760 2972 c0 -5 9 -18 20 -30 11 -12 20 -25 20 -31 0 -5 7 -11 15
-15 8 -3 15 -1 15 4 0 6 -4 10 -10 10 -5 0 -10 8 -10 18 0 11 -8 26 -18 35
-20 18 -32 22 -32 9z"/>
<path d="M4514 2965 c-4 -11 -9 -24 -12 -29 -3 -5 2 -7 10 -4 8 4 21 -2 29
-13 8 -11 31 -31 51 -46 21 -14 38 -34 38 -44 0 -11 5 -19 10 -19 6 0 10 11
10 24 0 23 -43 64 -81 78 -8 3 -23 21 -32 39 -14 30 -17 32 -23 14z"/>
<path d="M4393 2948 c-14 -7 -23 -20 -23 -35 0 -24 14 -31 25 -13 3 6 2 10 -4
10 -6 0 -8 7 -5 15 12 30 33 16 33 -22 0 -82 1 -84 52 -57 23 11 29 20 24 35
-5 15 -2 19 16 19 28 0 23 5 -15 14 -27 7 -28 5 -22 -18 5 -19 1 -28 -13 -36
-18 -9 -21 -6 -27 25 -3 19 -4 44 -1 55 6 22 -6 24 -40 8z"/>
<path d="M3863 2930 c-1 -12 10 -24 33 -35 19 -9 34 -20 34 -25 0 -14 -18 -12
-23 3 -2 6 -8 9 -12 5 -4 -3 5 -24 19 -45 32 -46 32 -57 4 -77 -23 -16 -19
-34 4 -20 22 14 68 11 65 -5 -1 -8 4 -16 11 -18 18 -7 15 36 -3 44 -9 3 -23
20 -32 37 -9 17 -20 34 -25 37 -6 4 -5 14 3 27 16 26 -2 52 -37 52 -14 0 -24
6 -24 14 0 22 -16 27 -17 6z m101 -165 c3 -8 1 -15 -4 -15 -6 0 -10 7 -10 15
0 8 2 15 4 15 2 0 6 -7 10 -15z"/>
<path d="M4830 2941 c0 -5 6 -14 14 -20 7 -6 16 -24 19 -39 3 -15 18 -40 32
-56 28 -33 32 -67 10 -86 -8 -7 -15 -20 -15 -29 0 -9 -5 -22 -12 -29 -9 -9 -9
-12 0 -12 7 0 18 12 25 28 6 15 14 29 17 32 11 11 37 100 29 100 -4 0 -12 -7
-17 -17 -9 -14 -10 -14 -16 4 -4 12 -13 24 -21 27 -9 3 -15 18 -15 36 0 17 -9
39 -20 50 -22 22 -30 25 -30 11z"/>
<path d="M4979 2933 c-8 -9 -13 -24 -11 -35 2 -10 -2 -18 -7 -18 -6 0 -11 -10
-11 -22 0 -29 13 -14 38 45 21 47 16 61 -9 30z"/>
<path d="M4104 2919 c-3 -6 -3 -45 1 -86 5 -50 10 -71 16 -62 6 10 9 6 9 -13
0 -18 5 -28 15 -28 13 0 14 4 5 21 -7 11 -9 27 -6 35 3 7 -2 18 -12 23 -13 7
-16 22 -14 65 2 56 -1 66 -14 45z"/>
<path d="M4158 2919 c10 -13 9 -19 -3 -29 -8 -7 -15 -20 -15 -30 0 -34 13 -28
36 18 13 25 21 48 17 52 -3 3 -8 -1 -10 -8 -4 -10 -8 -10 -21 0 -15 11 -15 11
-4 -3z"/>
<path d="M5240 2910 c0 -5 5 -10 10 -10 6 0 10 5 10 10 0 6 -4 10 -10 10 -5 0
-10 -4 -10 -10z"/>
<path d="M4917 2885 c3 -14 10 -25 15 -25 13 0 6 43 -8 47 -7 2 -10 -6 -7 -22z"/>
<path d="M3831 2877 c-6 -8 -8 -17 -4 -20 3 -4 -2 -16 -12 -27 -18 -19 -17
-20 3 -20 15 0 20 5 16 15 -8 20 -2 19 26 -5 18 -16 20 -20 7 -20 -21 0 -22
-16 -2 -24 15 -5 45 2 45 11 0 3 -14 18 -32 33 -22 20 -30 33 -25 49 6 24 -5
28 -22 8z"/>
<path d="M4540 2890 c-1 -3 -4 -16 -6 -30 -3 -13 -12 -29 -20 -33 -14 -8 -14
-11 -3 -19 10 -7 8 -8 -8 -3 -18 5 -22 1 -28 -34 -3 -22 -13 -42 -21 -45 -10
-4 -13 -13 -9 -26 4 -11 2 -20 -4 -20 -6 0 -11 -7 -11 -15 0 -8 -4 -15 -10
-15 -5 0 -10 -8 -10 -17 1 -17 1 -17 11 0 5 9 15 17 21 17 6 0 7 -7 3 -17 -16
-41 -18 -48 -10 -40 10 9 46 -43 39 -55 -3 -5 -6 -98 -6 -208 -1 -158 -4 -198
-13 -190 -23 19 -38 155 -39 354 -1 66 -2 112 -4 103 -4 -18 -22 -24 -22 -7 0
13 -49 44 -57 36 -3 -3 8 -18 25 -33 l31 -28 5 -145 c5 -161 19 -245 46 -275
10 -11 18 -31 18 -45 0 -14 3 -44 7 -67 5 -29 4 -48 -4 -57 -10 -11 -10 -20
-1 -37 7 -12 10 -34 7 -49 -3 -15 -2 -31 2 -36 5 -5 12 -23 15 -40 6 -28 4
-32 -26 -45 -18 -7 -41 -22 -50 -34 -15 -17 -19 -18 -28 -5 -9 13 -11 13 -19
0 -19 -28 16 -43 38 -16 7 8 33 24 59 36 56 27 191 34 232 13 33 -17 40 -16
40 5 0 19 -18 21 -146 21 -69 0 -72 1 -82 28 -18 48 -27 124 -25 213 11 445
14 527 17 543 3 11 -2 17 -14 17 -28 0 -31 26 -5 54 13 14 28 26 33 26 13 0
24 29 15 43 -4 6 -10 2 -14 -11 -5 -12 -15 -22 -24 -22 -8 0 -15 -7 -15 -15 0
-8 -5 -15 -11 -15 -26 0 36 127 72 146 25 12 30 11 69 -17 34 -25 41 -35 37
-55 -3 -18 0 -24 13 -24 29 0 41 -22 27 -49 -15 -30 -31 -29 -35 1 -4 28 -30
58 -49 58 -19 0 -16 -10 11 -31 17 -13 22 -25 19 -44 -4 -20 -1 -25 14 -25 46
0 79 50 51 78 -7 7 -8 12 -2 12 6 0 19 -9 30 -21 16 -17 16 -22 4 -29 -13 -8
-12 -10 2 -10 27 0 29 15 8 43 -11 14 -20 34 -20 45 0 31 -18 72 -32 72 -9 0
-9 -3 0 -12 7 -7 12 -27 12 -46 0 -26 -4 -33 -17 -30 -10 2 -18 12 -18 23 -1
11 -4 26 -8 33 -5 6 -6 16 -3 21 4 5 -2 7 -12 4 -25 -6 -70 32 -81 70 -5 18
-10 30 -11 27z m10 -66 c0 -8 -5 -12 -10 -9 -6 4 -8 11 -5 16 9 14 15 11 15
-7z"/>
<path d="M4016 2835 c4 -17 2 -25 -7 -25 -10 -1 -8 -5 5 -15 31 -24 40 -122
10 -114 -5 1 -18 -13 -28 -32 l-19 -34 27 28 c15 15 31 27 36 27 18 0 22 67 7
96 -8 16 -13 41 -10 55 3 18 0 28 -11 32 -13 5 -15 2 -10 -18z"/>
<path d="M4070 2845 c0 -8 5 -15 10 -15 6 0 10 7 10 15 0 8 -4 15 -10 15 -5 0
-10 -7 -10 -15z"/>
<path d="M4825 2851 c-3 -5 4 -16 16 -25 16 -11 20 -21 15 -39 -6 -25 17 -57
31 -43 3 3 1 6 -5 6 -7 0 -9 10 -6 28 4 19 1 32 -10 41 -9 8 -16 20 -16 27 0
16 -16 19 -25 5z"/>
<path d="M4783 2843 c-19 -7 -16 -17 13 -48 15 -16 29 -45 32 -67 5 -41 17
-50 25 -18 3 11 1 20 -4 20 -5 0 -9 12 -9 26 0 16 -10 34 -25 45 -14 12 -22
26 -18 34 5 16 5 16 -14 8z"/>
<path d="M3968 2823 c6 -2 18 -2 25 0 6 3 1 5 -13 5 -14 0 -19 -2 -12 -5z"/>
<path d="M4383 2807 c-11 -12 -24 -34 -31 -49 -6 -16 -16 -28 -22 -28 -5 0
-10 -7 -10 -15 0 -8 -4 -15 -9 -15 -5 0 -8 -11 -8 -24 0 -17 4 -23 14 -19 8 3
11 13 8 24 -4 11 -2 19 5 19 6 0 14 8 18 18 15 35 47 82 60 87 7 3 12 -5 12
-20 0 -25 14 -33 24 -16 9 13 -2 35 -23 48 -15 10 -22 8 -38 -10z"/>
<path d="M5067 2812 c-28 -31 -5 -165 25 -146 7 4 6 9 -2 14 -7 4 -14 34 -15
66 -3 38 0 53 6 44 7 -12 9 -12 9 3 0 10 4 15 10 12 6 -3 7 1 4 9 -8 21 -17
20 -37 -2z"/>
<path d="M4056 2801 c-4 -6 0 -18 8 -27 12 -12 16 -12 16 -2 0 22 -17 42 -24
29z"/>
<path d="M4295 2759 c-4 -6 -5 -13 -2 -16 7 -7 27 6 27 18 0 12 -17 12 -25 -2z"/>
<path d="M4535 2750 c-10 -11 -13 -20 -7 -20 7 0 12 5 12 10 0 6 7 10 15 10
18 0 19 -12 4 -27 -6 -6 -8 -17 -4 -23 5 -8 11 -4 19 12 9 16 9 28 2 41 -14
22 -19 21 -41 -3z"/>
<path d="M4960 2734 c-7 -19 -18 -38 -26 -41 -20 -7 -17 -42 5 -67 58 -64 81
-96 81 -112 0 -11 3 -14 9 -8 15 14 2 64 -15 57 -8 -3 -14 1 -14 9 0 8 -16 32
-36 52 -34 35 -41 70 -12 64 7 -2 14 8 16 22 2 14 8 29 13 35 12 12 12 25 0
25 -5 0 -15 -16 -21 -36z"/>
<path d="M4093 2741 c8 -34 -7 -64 -54 -110 -29 -28 -38 -41 -26 -41 9 0 22 7
29 15 7 9 23 26 35 38 36 36 46 75 27 100 l-16 22 5 -24z"/>
<path d="M4397 2732 c-10 -10 -17 -24 -17 -32 0 -7 -7 -18 -16 -24 -9 -7 -12
-18 -8 -29 5 -15 10 -11 28 21 11 22 27 49 34 61 16 26 1 28 -21 3z"/>
<path d="M4154 2695 c-5 -19 -2 -32 10 -43 16 -16 17 -15 10 23 -9 51 -11 54
-20 20z"/>
<path d="M5167 2703 c-4 -3 -7 -20 -6 -37 l1 -31 11 28 c6 15 15 27 20 27 4 0
5 5 2 10 -7 12 -19 13 -28 3z"/>
<path d="M4768 2680 c-5 -15 -3 -27 5 -32 17 -11 37 -10 37 2 0 6 -6 10 -14
10 -8 0 -16 10 -18 23 -3 22 -4 22 -10 -3z"/>
<path d="M4547 2666 c-3 -8 -2 -18 3 -21 13 -8 24 15 12 27 -6 6 -11 4 -15 -6z"/>
<path d="M4810 2675 c0 -2 10 -10 23 -16 20 -11 21 -11 8 4 -13 16 -31 23 -31
12z"/>
<path d="M4970 2664 c0 -13 8 -24 20 -27 12 -3 20 -14 20 -25 0 -25 20 -33 57
-22 27 8 16 14 -19 11 -11 -2 -20 7 -24 23 -3 14 -12 26 -20 26 -7 0 -18 8
-23 18 -9 15 -10 15 -11 -4z"/>
<path d="M4271 2653 c-2 -21 11 -43 25 -43 8 0 14 5 14 10 0 6 -6 10 -14 10
-8 0 -17 8 -19 18 -3 9 -5 12 -6 5z"/>
<path d="M4875 2609 c7 -71 -12 -358 -25 -374 -6 -7 -10 -33 -9 -57 1 -24 -3
-52 -10 -63 -10 -18 -12 -16 -8 18 1 20 -1 37 -5 37 -12 0 -10 52 7 180 22
170 25 253 10 274 -9 11 -15 14 -20 6 -4 -6 -1 -18 6 -26 15 -18 7 -149 -16
-267 -19 -100 -19 -150 1 -207 23 -66 31 -160 13 -171 -12 -7 -11 -11 4 -26
15 -14 18 -15 15 -3 -2 9 2 15 7 15 6 0 9 -8 8 -17 -2 -10 2 -18 7 -18 6 0 10
-14 10 -31 0 -24 4 -30 16 -25 12 5 15 0 12 -26 -2 -18 2 -33 10 -35 17 -6 16
46 -2 66 -7 9 -17 27 -21 39 -13 44 27 21 53 -30 14 -26 29 -45 34 -42 5 4 3
13 -4 22 -8 10 -19 29 -26 45 -6 15 -17 27 -23 27 -8 0 -8 4 1 15 9 10 9 15 1
15 -6 0 -11 -4 -11 -10 0 -5 -9 -10 -19 -10 -29 0 -42 53 -40 161 2 87 16 181
18 122 1 -13 6 -23 12 -23 7 0 9 11 6 28 -3 15 -1 103 5 196 6 113 6 176 0
190 -6 12 -13 28 -16 36 -4 8 -4 -6 -1 -31z"/>
<path d="M5053 2637 c1 -5 24 -10 50 -11 27 0 46 3 44 9 -2 6 -25 10 -51 11
-26 0 -45 -4 -43 -9z"/>
<path d="M4510 2630 c-13 -8 -13 -13 -2 -31 12 -18 12 -23 0 -31 -10 -8 -10
-9 2 -5 9 2 15 15 14 33 0 16 4 32 10 36 16 11 -6 9 -24 -2z"/>
<path d="M4747 2625 c-9 -8 -22 -15 -31 -15 -8 0 -18 -4 -21 -10 -12 -19 42
-10 60 10 22 24 14 38 -8 15z"/>
<path d="M4180 2611 c-19 -37 -6 -157 27 -254 15 -42 15 -54 3 -110 -7 -34
-13 -73 -13 -87 1 -37 -19 -154 -29 -164 -10 -12 -11 -36 0 -36 10 0 32 50 32
73 0 11 5 37 12 59 9 31 9 44 0 59 -7 10 -9 19 -4 19 4 0 13 24 19 53 11 52 1
159 -17 182 -14 18 -22 168 -11 198 12 31 -3 38 -19 8z"/>
<path d="M4237 2623 c-12 -24 -7 -168 8 -218 9 -31 15 -77 15 -103 -3 -140 -1
-221 5 -253 9 -50 -15 -95 -55 -104 -25 -5 -30 -11 -24 -27 3 -12 -1 -27 -12
-39 -9 -10 -13 -19 -8 -19 17 0 34 23 34 46 0 23 16 34 37 27 14 -5 7 -27 -19
-66 -11 -15 -17 -33 -15 -40 4 -9 6 -8 6 2 1 7 12 22 26 33 14 11 25 30 25 43
0 16 7 25 25 29 14 4 25 13 25 22 0 14 -2 14 -16 0 -8 -9 -20 -16 -25 -16 -12
0 -12 27 0 35 13 7 7 320 -8 455 -7 57 -10 126 -7 152 4 42 -5 63 -17 41z"/>
<path d="M4563 2589 c-1 -26 3 -39 10 -36 7 2 11 11 9 21 -2 9 2 16 8 16 5 0
10 -5 10 -11 0 -5 5 -7 10 -4 15 9 12 25 -5 25 -9 0 -18 7 -21 15 -11 27 -19
16 -21 -26z"/>
<path d="M5130 2596 c-6 -9 -10 -21 -7 -28 4 -9 6 -7 6 4 1 9 7 18 14 21 6 2
9 7 6 11 -3 4 -12 0 -19 -8z"/>
<path d="M4660 2580 c0 -5 7 -10 16 -10 8 0 12 5 9 10 -3 6 -10 10 -16 10 -5
0 -9 -4 -9 -10z"/>
<path d="M3960 2570 c0 -5 5 -10 10 -10 6 0 10 5 10 10 0 6 -4 10 -10 10 -5 0
-10 -4 -10 -10z"/>
<path d="M4625 2560 c-4 -6 6 -10 22 -10 22 0 25 2 13 10 -19 12 -27 12 -35 0z"/>
<path d="M4677 2548 c-3 -9 2 -51 10 -93 15 -72 15 -87 -2 -189 -9 -61 -20
-115 -23 -121 -6 -9 -23 62 -22 90 0 6 1 24 1 40 1 53 -24 245 -33 245 -4 0
-8 -9 -8 -20 0 -24 -13 -26 -34 -5 -12 12 -20 14 -36 5 -26 -14 -26 -24 0 -17
10 3 24 -1 31 -9 6 -8 16 -11 21 -8 19 12 28 -21 29 -111 0 -63 3 -84 10 -70
6 15 7 9 4 -20 -3 -23 1 -61 10 -90 20 -69 20 -194 -2 -240 -17 -35 -16 -37 9
-88 20 -39 28 -48 33 -35 4 10 -1 24 -14 37 -25 25 -26 48 -6 87 9 18 12 42 9
64 -3 19 2 69 10 110 9 41 16 89 16 107 0 17 5 35 11 39 8 5 10 44 6 133 -5
125 -17 191 -30 159z"/>
<path d="M4512 2538 c-7 -7 -12 -16 -12 -21 0 -5 7 -1 16 8 9 9 14 18 12 20
-2 3 -10 -1 -16 -7z"/>
<path d="M4550 2530 c0 -5 5 -10 10 -10 6 0 10 5 10 10 0 6 -4 10 -10 10 -5 0
-10 -4 -10 -10z"/>
<path d="M4146 2453 c-3 -21 -6 -67 -6 -103 0 -55 -20 -156 -45 -235 -3 -11 3
-4 14 15 28 48 49 157 54 268 3 94 -5 123 -17 55z"/>
<path d="M4717 2158 c-22 -121 -31 -258 -17 -258 6 0 10 38 10 100 0 55 4 100
8 100 13 0 34 -104 32 -158 -3 -69 0 -80 11 -54 11 28 33 24 37 -6 2 -12 8
-22 13 -22 5 0 9 -10 9 -21 0 -12 8 -28 18 -35 25 -20 38 -17 15 4 -11 9 -23
34 -27 54 -4 21 -17 45 -30 56 -17 13 -26 33 -31 68 -4 27 -13 72 -21 99 -10
33 -12 69 -8 108 10 87 0 68 -19 -35z"/>
<path d="M4170 2125 c1 -26 2 -28 11 -12 8 14 8 22 0 30 -8 8 -11 3 -11 -18z"/>
<path d="M4423 2055 c1 -41 5 -75 9 -75 11 0 10 138 -1 144 -5 3 -8 -27 -8
-69z"/>
<path d="M4352 2012 c-1 -36 -9 -62 -23 -81 -12 -16 -19 -35 -17 -42 3 -9 10
-2 19 16 9 19 21 29 32 27 9 -2 17 2 17 8 0 5 -6 10 -12 11 -7 0 -1 5 15 11
22 8 27 16 27 41 0 18 -5 39 -11 47 -8 11 -9 4 -6 -27 3 -24 2 -45 -3 -48 -13
-8 -28 18 -33 55 -3 27 -4 23 -5 -18z"/>
<path d="M4150 2040 c0 -5 5 -10 11 -10 5 0 7 5 4 10 -3 6 -8 10 -11 10 -2 0
-4 -4 -4 -10z"/>
<path d="M4012 1995 c0 -16 2 -22 5 -12 2 9 2 23 0 30 -3 6 -5 -1 -5 -18z"/>
<path d="M4910 1996 c0 -14 5 -28 11 -31 15 -10 18 -4 12 28 -7 34 -23 36 -23
3z"/>
<path d="M4044 1964 c-12 -33 -36 -54 -63 -54 -18 0 -22 -3 -14 -11 21 -21 62
-1 78 38 8 20 13 38 10 41 -2 3 -8 -4 -11 -14z"/>
<path d="M4416 1943 c-11 -11 -6 -23 9 -23 8 0 15 4 15 9 0 13 -16 22 -24 14z"/>
<path d="M4148 1916 c-22 -16 -23 -26 -4 -26 7 0 16 9 19 20 3 11 4 20 4 20
-1 0 -10 -7 -19 -14z"/>
<path d="M5170 1918 c0 -5 14 -14 30 -19 20 -7 30 -18 30 -30 0 -50 42 -91 95
-94 6 0 10 -9 10 -20 0 -11 3 -24 6 -30 29 -44 49 -89 49 -108 0 -16 3 -18 9
-9 7 11 13 9 30 -9 22 -23 25 -40 22 -95 -1 -18 2 -35 8 -39 7 -4 11 5 12 22
l1 28 9 -25 c6 -18 7 -12 3 20 -5 42 -45 120 -62 120 -4 0 -16 17 -27 38 -10
20 -26 45 -34 55 -11 14 -12 22 -2 43 12 28 1 50 -41 82 -10 7 -18 22 -18 32
0 34 -28 50 -81 49 -27 -1 -49 -6 -49 -11z m98 -10 c7 -7 12 -23 12 -35 0 -16
11 -30 35 -44 44 -26 45 -43 3 -34 -35 7 -68 37 -68 61 0 8 -7 26 -16 39 -15
24 -15 25 3 25 10 0 24 -5 31 -12z"/>
<path d="M3814 1908 c-5 -7 -9 -19 -10 -27 -2 -7 -12 -24 -24 -37 -19 -19 -21
-30 -17 -66 6 -41 5 -44 -33 -73 -46 -35 -58 -65 -63 -161 -2 -40 -11 -81 -20
-95 -16 -25 -7 -76 11 -65 5 3 12 -25 15 -62 6 -74 45 -164 81 -187 31 -20
129 -30 124 -13 -3 8 -23 14 -49 15 -24 2 -54 8 -65 14 -29 15 -70 111 -78
184 -4 34 -13 63 -20 67 -14 8 -11 48 4 48 4 0 8 21 9 47 1 26 6 50 12 54 7 4
9 21 4 48 -7 40 -5 43 43 88 27 27 47 54 45 61 -3 7 1 20 9 29 11 15 11 16 -4
10 -25 -9 -23 14 3 41 22 24 45 80 36 88 -3 3 -9 -1 -13 -8z"/>
<path d="M4433 1903 c-15 -5 -17 -23 -4 -23 5 0 11 7 15 15 3 8 4 15 3 14 -1
0 -8 -3 -14 -6z"/>
<path d="M4673 1875 c11 -23 27 -34 27 -17 -1 9 -26 42 -33 42 -3 0 0 -11 6
-25z"/>
<path d="M4100 1869 c0 -24 26 -53 40 -44 16 10 11 26 -7 23 -13 -2 -17 3 -16
20 2 12 -2 22 -7 22 -6 0 -10 -9 -10 -21z"/>
<path d="M4363 1874 c-3 -9 -1 -19 6 -23 6 -4 12 -29 13 -55 1 -45 1 -46 16
-25 10 14 11 23 4 28 -6 4 -11 17 -12 29 0 12 0 31 -1 42 0 24 -17 26 -26 4z"/>
<path d="M4260 1865 c0 -8 5 -15 10 -15 6 0 10 7 10 15 0 8 -4 15 -10 15 -5 0
-10 -7 -10 -15z"/>
<path d="M4420 1842 c0 -15 28 -47 35 -40 4 3 -3 16 -14 27 -12 12 -21 17 -21
13z"/>
<path d="M4237 1826 c-3 -7 0 -19 6 -25 8 -8 3 -11 -21 -11 -22 0 -32 -5 -32
-15 0 -18 14 -19 40 -3 33 21 42 -3 14 -37 -23 -28 -26 -29 -38 -12 -17 22
-25 22 -23 -3 1 -15 8 -20 30 -20 32 0 51 15 61 47 8 24 45 41 55 25 4 -7 13
-5 25 4 19 13 18 14 -11 14 -17 0 -34 6 -36 13 -4 10 -6 10 -6 0 -2 -22 -41
-15 -41 6 0 24 -16 36 -23 17z"/>
<path d="M4753 1800 c0 -24 2 -39 5 -32 7 23 61 -16 62 -45 0 -21 -28 -14 -35
8 -5 16 -10 18 -18 9 -9 -9 -4 -18 19 -38 40 -34 99 -127 108 -169 8 -36 26
-45 26 -13 0 11 -4 20 -9 20 -5 0 -12 16 -15 35 -4 19 -11 35 -16 35 -6 0 -10
4 -10 9 0 6 -11 22 -25 37 -14 15 -25 30 -25 34 0 4 24 6 54 6 l54 -1 6 -44
c4 -26 2 -49 -5 -57 -11 -13 -2 -61 9 -50 6 7 11 55 11 105 0 18 5 39 11 46 7
9 6 16 -4 24 -10 8 -16 9 -21 1 -19 -31 -73 9 -59 44 4 11 0 16 -11 16 -12 0
-15 -5 -10 -17 18 -45 18 -55 -1 -51 -11 2 -23 16 -28 35 -6 20 -18 34 -32 37
-12 3 -27 18 -32 33 -10 26 -10 24 -9 -17z"/>
<path d="M4790 1820 c0 -11 5 -20 10 -20 6 0 10 9 10 20 0 11 -4 20 -10 20 -5
0 -10 -9 -10 -20z"/>
<path d="M4155 1820 c-3 -5 3 -10 14 -10 12 0 21 5 21 10 0 6 -6 10 -14 10 -8
0 -18 -4 -21 -10z"/>
<path d="M4337 1824 c-8 -8 1 -24 14 -24 5 0 9 7 9 15 0 15 -12 20 -23 9z"/>
<path d="M4710 1821 c0 -6 5 -13 10 -16 6 -3 10 1 10 9 0 9 -4 16 -10 16 -5 0
-10 -4 -10 -9z"/>
<path d="M4961 1803 c-1 -6 -3 -17 -6 -25 -3 -7 6 -18 20 -25 20 -9 25 -8 25
3 0 8 -5 14 -10 14 -6 0 -15 10 -20 23 -5 12 -9 17 -9 10z"/>
<path d="M4420 1780 c0 -5 5 -10 10 -10 6 0 10 5 10 10 0 6 -4 10 -10 10 -5 0
-10 -4 -10 -10z"/>
<path d="M4896 1771 c-7 -11 22 -23 35 -15 5 3 7 10 4 15 -8 12 -32 12 -39 0z"/>
<path d="M5028 1761 c17 -15 22 -30 22 -70 0 -27 5 -53 10 -56 6 -3 10 -16 10
-28 1 -19 2 -20 10 -6 7 12 5 26 -5 45 -20 39 -20 40 20 40 19 0 35 -4 35 -8
0 -4 5 -8 10 -8 14 0 12 12 -6 35 -11 14 -18 16 -21 8 -8 -23 -40 -14 -47 11
-7 28 -32 56 -49 56 -7 -1 -2 -9 11 -19z"/>
<path d="M4310 1729 c0 -11 5 -17 10 -14 6 3 10 13 10 21 0 8 -4 14 -10 14 -5
0 -10 -9 -10 -21z"/>
<path d="M4504 1722 c-71 -25 -100 -46 -137 -98 -42 -59 -55 -98 -56 -161 -2
-130 86 -242 214 -271 102 -24 214 13 272 89 18 23 31 44 28 47 -5 6 -30 -19
-36 -36 -3 -9 -26 8 -62 44 -31 31 -57 53 -57 48 0 -6 22 -32 49 -58 58 -57
56 -76 -6 -97 -21 -6 -43 -15 -49 -20 -28 -22 -194 -2 -194 23 0 5 -5 6 -10 3
-13 -8 -102 75 -97 90 2 5 -2 15 -10 20 -18 14 -31 121 -20 175 6 30 26 66 57
105 41 52 56 63 104 78 31 9 68 17 81 17 14 0 25 5 25 10 0 15 -39 12 -96 -8z"/>
<path d="M4615 1720 c4 -6 14 -10 23 -9 15 3 71 -23 111 -50 11 -7 1 -21 -44
-65 -71 -68 -64 -74 11 -10 45 39 57 44 69 34 8 -7 15 -18 15 -25 0 -8 4 -15
9 -17 5 -1 11 -12 13 -22 2 -15 -6 -22 -42 -31 -25 -7 -56 -17 -70 -23 -25
-11 -25 -11 -2 -11 12 -1 39 6 59 14 53 22 73 20 73 -10 0 -23 -3 -24 -72 -28
l-73 -3 82 -2 81 -2 -5 43 c-8 74 -91 181 -165 211 -43 18 -82 21 -73 6z"/>
<path d="M4996 1715 c-10 -26 -7 -30 19 -31 30 -2 32 7 6 30 -17 15 -19 15
-25 1z"/>
<path d="M5160 1713 c0 -13 6 -23 13 -23 8 0 7 -4 -3 -10 -13 -9 -13 -11 0
-20 8 -5 20 -10 27 -10 7 0 16 -8 22 -17 5 -10 13 -15 17 -11 11 11 -16 38
-38 38 -14 0 -18 5 -14 18 4 10 -1 27 -9 38 -14 19 -14 18 -15 -3z"/>
<path d="M4275 1700 c-3 -5 1 -10 9 -10 9 0 16 5 16 10 0 6 -4 10 -9 10 -6 0
-13 -4 -16 -10z"/>
<path d="M3770 1693 c0 -6 8 -17 18 -24 16 -13 16 -13 2 6 -8 11 -16 22 -17
24 -2 2 -3 0 -3 -6z"/>
<path d="M4334 1682 c-4 -14 -12 -21 -20 -18 -8 3 -14 -1 -14 -8 0 -7 -7 -19
-15 -26 -9 -7 -13 -21 -10 -31 4 -11 2 -19 -4 -19 -5 0 -13 -31 -17 -69 l-6
-68 -49 -13 c-27 -8 -49 -17 -49 -22 0 -4 10 -29 22 -54 14 -32 30 -49 50 -56
17 -6 28 -17 28 -28 0 -17 17 -37 25 -29 2 2 1 16 -2 31 -3 18 -15 32 -35 40
-28 12 -76 83 -65 95 3 2 24 7 46 10 35 5 40 3 36 -10 -4 -8 3 -33 15 -56 11
-23 18 -41 14 -41 -3 0 2 -7 10 -16 9 -8 16 -21 16 -27 1 -7 19 -25 40 -42 21
-16 39 -33 40 -37 0 -5 -18 -8 -40 -8 -37 0 -55 13 -28 22 6 2 8 10 4 16 -11
18 -26 4 -26 -24 0 -19 -5 -24 -24 -24 -19 0 -22 4 -19 24 3 13 0 27 -6 30 -7
5 -11 -4 -11 -23 0 -21 -5 -31 -15 -31 -8 0 -15 -5 -15 -11 0 -7 11 -8 30 -4
25 5 30 3 30 -12 0 -19 -18 -43 -32 -43 -4 0 -8 8 -8 17 0 13 -3 14 -12 5 -9
-9 -5 -17 16 -37 15 -14 31 -25 35 -25 11 0 20 -46 12 -57 -3 -4 -27 -10 -54
-11 -40 -3 -46 -1 -41 12 3 9 1 16 -5 16 -6 0 -11 12 -11 26 0 25 -3 26 -34
21 -22 -4 -36 -1 -39 6 -3 9 -8 9 -18 0 -11 -11 -10 -13 4 -13 15 0 23 -32 15
-57 -5 -15 -89 -13 -118 2 -16 8 -34 15 -40 15 -19 0 0 -21 28 -31 27 -11 320
-19 737 -22 215 -2 230 -1 233 16 3 17 2 17 -20 4 -12 -8 -36 -13 -53 -11 -16
1 -38 3 -47 3 -10 1 -17 4 -16 9 0 4 -1 14 -5 22 -3 8 -8 22 -11 30 -3 8 -5
-2 -3 -22 3 -44 -19 -53 -29 -13 -3 14 -10 25 -15 25 -14 0 -11 -38 4 -43 9
-4 9 -6 -1 -6 -7 -1 -23 8 -34 19 -17 15 -24 17 -30 8 -4 -8 -1 -15 9 -19 10
-3 13 -8 6 -12 -6 -4 -22 2 -36 13 -30 24 -41 25 -33 5 8 -23 -13 -18 -35 8
-15 18 -18 19 -19 5 0 -9 6 -19 13 -22 6 -3 2 -3 -10 -1 -12 3 -24 1 -28 -5
-3 -6 -11 -7 -18 -3 -7 4 -5 8 6 12 12 4 14 10 7 21 -7 11 -12 12 -18 3 -4 -6
-18 -11 -32 -11 -14 0 -35 -3 -47 -7 -16 -5 -22 -2 -26 12 -4 16 -5 16 -6 1
-1 -11 -9 -18 -21 -18 -14 0 -22 11 -30 40 -6 22 -15 40 -20 40 -6 0 -10 4
-10 9 0 13 58 19 70 7 15 -15 12 6 -4 27 -12 15 -14 16 -20 2 -8 -22 -36 -19
-36 4 0 23 62 71 68 53 2 -7 10 -12 18 -12 8 0 14 -5 14 -11 0 -6 7 -9 15 -5
8 3 15 1 15 -5 0 -6 9 -8 19 -4 11 3 22 1 26 -5 4 -7 17 -9 29 -6 23 6 55 -9
43 -20 -4 -4 0 -16 10 -26 15 -17 15 -18 -11 -18 -16 0 -25 -4 -21 -10 8 -13
65 -9 64 5 -3 24 2 35 17 35 8 0 12 5 8 11 -4 8 -9 8 -17 0 -18 -18 -37 -13
-37 10 0 17 5 20 25 17 14 -3 25 -2 25 2 0 4 -37 10 -82 12 -97 7 -129 21
-202 93 -50 49 -76 93 -94 165 -10 39 1 149 18 181 6 10 8 19 5 19 -4 0 8 18
25 40 17 22 29 46 27 52 -4 8 -8 4 -13 -10z m6 -520 c0 -4 -7 -18 -16 -31 -11
-15 -13 -25 -6 -30 7 -4 6 -13 -4 -25 -12 -16 -18 -18 -39 -8 -14 6 -25 16
-25 22 0 14 27 12 33 -2 2 -7 8 -10 12 -5 5 4 3 13 -3 19 -17 17 -15 39 6 54
19 15 42 18 42 6z m-184 -122 c1 -8 3 -22 5 -30 3 -10 -3 -15 -16 -15 -15 0
-21 8 -23 33 -3 28 0 33 14 30 9 -1 18 -10 20 -18z m184 -1 c15 -27 9 -41 -18
-46 -18 -2 -22 2 -22 25 0 46 21 57 40 21z"/>
<path d="M4524 1665 c5 -50 36 -126 44 -105 3 7 0 16 -6 18 -7 2 -12 16 -13
30 0 15 -7 43 -15 62 l-14 35 4 -40z"/>
<path d="M4570 1638 c0 -28 2 -49 5 -46 10 9 12 98 3 98 -4 0 -8 -23 -8 -52z"/>
<path d="M4621 1646 c-13 -54 -14 -59 -2 -52 10 7 26 85 18 92 -2 3 -10 -15
-16 -40z"/>
<path d="M5290 1682 c0 -5 14 -7 30 -4 17 2 30 6 30 8 0 2 -13 4 -30 4 -16 0
-30 -4 -30 -8z"/>
<path d="M3957 1673 c-8 -12 4 -63 14 -63 5 0 7 14 6 30 -4 33 -12 46 -20 33z"/>
<path d="M4247 1658 c-8 -13 -24 -34 -36 -47 -12 -13 -19 -27 -16 -30 4 -3 18
10 33 29 15 19 35 43 45 52 13 14 14 18 3 18 -7 0 -20 -10 -29 -22z"/>
<path d="M4460 1677 c0 -13 51 -109 56 -105 4 5 -21 61 -43 93 -7 11 -13 16
-13 12z"/>
<path d="M5021 1662 c-1 -9 -8 -11 -22 -7 -15 5 -20 3 -17 -6 2 -7 8 -14 14
-16 16 -5 37 14 31 28 -4 11 -6 11 -6 1z"/>
<path d="M4658 1609 c-23 -44 -24 -49 -6 -33 18 17 48 65 48 79 0 18 -19 -2
-42 -46z"/>
<path d="M5271 1646 c-8 -9 -8 -21 -2 -37 11 -27 12 -26 14 19 2 37 3 36 -12
18z"/>
<path d="M5335 1646 c-5 -11 -3 -21 6 -26 19 -12 21 -7 10 21 -8 22 -10 22
-16 5z"/>
<path d="M5311 1634 c0 -11 3 -14 6 -6 3 7 2 16 -1 19 -3 4 -6 -2 -5 -13z"/>
<path d="M3720 1613 c0 -22 2 -25 10 -13 13 20 13 40 0 40 -5 0 -10 -12 -10
-27z"/>
<path d="M3768 1600 c2 -16 6 -30 8 -30 2 0 4 14 4 30 0 17 -4 30 -8 30 -5 0
-7 -13 -4 -30z"/>
<path d="M5130 1619 c0 -5 5 -7 10 -4 6 3 10 8 10 11 0 2 -4 4 -10 4 -5 0 -10
-5 -10 -11z"/>
<path d="M4426 1608 c3 -7 22 -26 42 -43 35 -29 36 -20 3 18 -21 25 -53 42
-45 25z"/>
<path d="M3841 1592 c10 -16 10 -26 -1 -52 -12 -30 -14 -31 -27 -14 -12 16
-13 16 -13 1 0 -10 7 -20 15 -23 11 -4 15 -21 15 -55 0 -43 -3 -49 -20 -49
-20 0 -40 -33 -40 -66 0 -25 17 -6 23 26 9 41 37 41 34 0 -1 -17 -6 -28 -12
-26 -5 2 -11 -7 -11 -19 -2 -22 -1 -22 26 -7 23 14 26 19 18 37 -6 13 -6 36
-1 56 14 56 10 201 -5 207 -11 3 -11 0 -1 -16z"/>
<path d="M5240 1528 c0 -70 3 -87 16 -92 12 -5 15 -2 9 11 -3 10 -8 48 -9 86
-5 98 -16 95 -16 -5z"/>
<path d="M3890 1591 c0 -5 5 -13 10 -16 6 -3 10 -2 10 4 0 5 -4 13 -10 16 -5
3 -10 2 -10 -4z"/>
<path d="M3970 1592 c0 -6 4 -12 10 -14 5 -1 11 -23 14 -47 2 -24 10 -47 17
-51 25 -13 187 -22 191 -10 6 20 -4 100 -13 100 -5 0 -7 -22 -5 -50 5 -44 3
-50 -14 -50 -10 0 -22 5 -25 10 -3 6 -35 10 -71 10 l-64 0 -1 40 c-1 22 -2 46
-3 52 -1 15 -36 24 -36 10z"/>
<path d="M4990 1590 c0 -5 8 -10 18 -10 14 0 15 -2 2 -10 -13 -8 -12 -10 4
-10 12 0 16 5 12 16 -3 9 -6 18 -6 20 0 2 -7 4 -15 4 -8 0 -15 -4 -15 -10z"/>
<path d="M5322 1570 c0 -19 2 -27 5 -17 2 9 2 25 0 35 -3 9 -5 1 -5 -18z"/>
<path d="M5354 1578 c4 -13 10 -89 13 -170 3 -82 10 -148 14 -148 5 0 7 33 4
73 -3 39 -8 116 -11 170 -3 55 -10 97 -16 97 -6 0 -8 -9 -4 -22z"/>
<path d="M4380 1586 c0 -6 91 -68 95 -64 5 5 -55 52 -77 61 -10 3 -18 5 -18 3z"/>
<path d="M5105 1583 c-11 -2 -28 -17 -37 -33 -9 -17 -24 -30 -33 -30 -9 0 -15
-9 -15 -22 0 -19 6 -16 45 25 24 26 51 47 60 47 8 0 15 5 15 10 0 6 -3 9 -7 9
-5 -1 -17 -4 -28 -6z"/>
<path d="M5407 1453 c3 -161 3 -155 13 -123 10 30 12 205 4 238 -14 50 -19 15
-17 -115z"/>
<path d="M4733 1563 c-18 -9 -34 -22 -37 -29 -4 -10 73 25 93 42 12 10 -28 1
-56 -13z"/>
<path d="M5160 1542 c0 -13 -5 -32 -11 -43 -5 -11 -7 -29 -4 -39 5 -17 10 -18
26 -9 12 6 27 8 35 5 8 -3 14 -1 14 4 0 6 -13 10 -30 10 -16 0 -30 1 -30 3 0
1 4 16 9 33 5 18 5 37 0 45 -6 10 -9 8 -9 -9z"/>
<path d="M5291 1534 c0 -11 3 -14 6 -6 3 7 2 16 -1 19 -3 4 -6 -2 -5 -13z"/>
<path d="M3700 1434 c0 -65 4 -104 9 -95 10 15 8 187 -2 197 -4 4 -7 -42 -7
-102z"/>
<path d="M3738 1516 c-3 -14 -1 -31 3 -38 6 -8 9 1 9 25 0 42 -6 48 -12 13z"/>
<path d="M4529 1511 c-39 -39 -38 -75 2 -112 17 -16 39 -29 49 -29 10 0 21 -6
24 -12 3 -7 3 -2 0 11 -5 19 -3 23 9 18 22 -8 53 33 51 68 -2 42 -3 45 -13 45
-6 0 -7 -15 -5 -32 8 -47 -14 -72 -61 -72 -62 0 -87 62 -44 105 16 16 29 20
55 16 35 -6 55 6 28 17 -34 13 -67 5 -95 -23z"/>
<path d="M3942 1521 c-15 -9 -13 -42 3 -48 6 -2 10 11 10 27 0 17 0 30 0 30 0
0 -6 -4 -13 -9z"/>
<path d="M4383 1510 c21 -12 48 -19 60 -17 20 3 19 5 -8 16 -16 7 -43 15 -60
17 -29 5 -29 4 8 -16z"/>
<path d="M4936 1521 c-4 -7 -5 -15 -2 -18 9 -9 19 4 14 18 -4 11 -6 11 -12 0z"/>
<path d="M4020 1510 c0 -5 5 -10 10 -10 6 0 10 5 10 10 0 6 -4 10 -10 10 -5 0
-10 -4 -10 -10z"/>
<path d="M4557 1472 c-14 -16 -15 -21 -4 -36 24 -33 75 0 61 39 -8 21 -37 19
-57 -3z m46 -6 c7 -18 -1 -26 -25 -26 -18 0 -25 20 -11 33 11 12 31 8 36 -7z"/>
<path d="M4935 1480 c3 -5 11 -10 16 -10 6 0 7 5 4 10 -3 6 -11 10 -16 10 -6
0 -7 -4 -4 -10z"/>
<path d="M4365 1460 c-16 -7 -13 -9 18 -9 20 -1 37 4 37 9 0 12 -27 12 -55 0z"/>
<path d="M5016 1463 c-9 -9 -7 -33 3 -33 12 0 22 28 12 34 -5 3 -11 3 -15 -1z"/>
<path d="M5501 1454 c0 -11 3 -14 6 -6 3 7 2 16 -1 19 -3 4 -6 -2 -5 -13z"/>
<path d="M3740 1437 c0 -14 5 -29 10 -32 7 -4 8 3 4 22 -9 38 -14 42 -14 10z"/>
<path d="M3960 1449 c0 -5 5 -7 10 -4 6 3 10 8 10 11 0 2 -4 4 -10 4 -5 0 -10
-5 -10 -11z"/>
<path d="M4940 1411 c0 -27 5 -53 10 -56 6 -3 10 -14 10 -25 0 -18 25 -35 48
-31 6 1 12 -7 12 -18 0 -20 28 -56 37 -47 7 7 -37 76 -49 76 -18 0 -42 32 -43
59 -1 14 -6 34 -10 43 -4 9 -4 21 -1 27 4 5 2 12 -4 16 -6 4 -10 -12 -10 -44z"/>
<path d="M4715 1428 c26 -17 85 -38 108 -38 19 0 23 -15 7 -25 -13 -8 -13 -25
-1 -25 10 0 15 13 26 68 4 20 3 32 -4 32 -6 0 -11 -10 -11 -21 0 -17 -4 -20
-22 -14 -13 3 -36 10 -53 15 -16 4 -39 11 -50 15 l-20 7 20 -14z"/>
<path d="M5462 1406 c-7 -18 -12 -42 -12 -54 0 -12 -4 -22 -10 -22 -5 0 -10
-11 -10 -25 0 -14 -5 -25 -11 -25 -6 0 -9 -7 -6 -15 4 -8 2 -17 -3 -20 -6 -4
-10 -14 -9 -23 0 -14 2 -14 6 -2 3 8 14 27 24 41 10 14 23 48 30 75 6 27 18
56 25 65 17 20 17 26 1 32 -9 3 -18 -7 -25 -27z"/>
<path d="M4410 1418 c-47 -10 -77 -28 -47 -28 26 0 97 24 97 32 0 5 -1 8 -2 7
-2 -1 -23 -6 -48 -11z"/>
<path d="M4901 1414 c0 -11 3 -14 6 -6 3 7 2 16 -1 19 -3 4 -6 -2 -5 -13z"/>
<path d="M5130 1405 c0 -15 -7 -39 -15 -56 -9 -16 -14 -33 -11 -37 3 -5 1 -26
-4 -48 -20 -94 -22 -119 -10 -107 7 6 14 38 17 70 3 32 6 60 9 62 2 2 25 4 51
5 39 1 48 5 51 21 3 16 1 18 -9 8 -7 -7 -28 -13 -47 -13 -31 0 -34 2 -28 23
15 49 19 97 7 97 -6 0 -11 -11 -11 -25z"/>
<path d="M4705 1390 c7 -12 87 -52 92 -46 4 4 -52 38 -80 49 -11 4 -16 3 -12
-3z"/>
<path d="M5288 1370 c3 -18 -3 -41 -17 -63 -25 -41 -26 -48 -6 -40 9 3 14 8
11 11 -3 2 1 14 9 26 16 22 21 96 7 96 -5 0 -7 -13 -4 -30z"/>
<path d="M4410 1360 c-35 -31 -35 -31 -5 -16 46 22 73 45 55 46 -9 0 -31 -14
-50 -30z"/>
<path d="M4883 1350 c-8 -32 -8 -38 2 -30 13 11 26 70 15 70 -3 0 -11 -18 -17
-40z"/>
<path d="M3917 1360 c3 -11 10 -20 16 -20 15 0 -58 -48 -80 -52 -11 -2 -19
-13 -21 -31 -3 -21 2 -29 22 -37 14 -5 26 -16 26 -24 0 -7 7 -16 15 -20 17 -6
21 9 4 19 -6 4 -8 13 -5 21 4 10 -2 14 -18 14 -38 0 -40 28 -3 44 18 8 43 24
57 35 22 18 23 21 10 45 -16 31 -30 34 -23 6z"/>
<path d="M4456 1330 c-21 -23 -36 -43 -34 -45 5 -5 56 48 71 73 14 22 2 13
-37 -28z"/>
<path d="M4506 1325 c-9 -19 -21 -37 -26 -40 -6 -3 -10 -14 -10 -23 0 -19 43
41 54 76 11 33 0 27 -18 -13z"/>
<path d="M4557 1353 c-7 -11 -37 -114 -37 -127 0 -28 23 18 35 70 13 55 13 76
2 57z"/>
<path d="M4650 1352 c0 -13 62 -104 67 -98 3 2 -1 15 -8 28 -16 31 -59 82 -59
70z"/>
<path d="M4620 1344 c0 -23 33 -114 42 -114 5 0 6 10 2 23 -10 35 -43 103 -44
91z"/>
<path d="M4034 1324 c5 -13 1 -15 -18 -10 -13 3 -32 9 -42 13 -12 4 -15 3 -10
-6 12 -19 58 -33 70 -21 14 14 26 12 26 -5 0 -12 9 -14 43 -10 23 2 34 2 25
-1 -26 -8 -22 -23 5 -20 47 5 51 18 11 32 -22 8 -49 14 -62 14 -12 0 -25 7
-28 15 -4 8 -11 15 -16 15 -6 0 -7 -7 -4 -16z"/>
<path d="M4588 1293 c-3 -27 -1 -57 3 -68 5 -13 8 5 8 48 1 78 -5 88 -11 20z"/>
<path d="M3731 1281 c-1 -27 3 -52 9 -56 6 -4 10 14 10 49 0 69 -16 75 -19 7z"/>
<path d="M4847 1277 c-23 -36 -21 -45 4 -19 11 13 19 28 17 34 -2 6 -12 -1
-21 -15z"/>
<path d="M5320 1289 c0 -5 5 -7 10 -4 6 3 10 8 10 11 0 2 -4 4 -10 4 -5 0 -10
-5 -10 -11z"/>
<path d="M3770 1282 c0 -19 12 -42 22 -42 14 0 5 43 -9 48 -7 2 -13 -1 -13 -6z"/>
<path d="M5176 1256 c-9 -14 -16 -30 -16 -35 0 -5 -4 -11 -8 -13 -5 -1 -12
-15 -16 -30 -5 -22 -3 -28 9 -28 9 0 15 6 14 13 -4 19 12 77 21 77 9 0 23 31
17 37 -3 2 -12 -8 -21 -21z"/>
<path d="M4171 1261 c-9 -6 -10 -11 -2 -15 6 -4 11 -21 11 -37 0 -22 -4 -28
-12 -23 -9 5 -9 2 1 -9 7 -9 18 -17 24 -17 6 0 8 3 4 6 -3 3 -2 17 3 30 7 17
5 27 -5 38 -19 19 -19 24 3 29 12 3 13 5 2 6 -8 0 -21 -3 -29 -8z"/>
<path d="M4971 1253 c0 -13 -5 -23 -11 -23 -5 0 -10 -5 -10 -10 0 -11 -12 -28
-43 -59 -16 -16 -16 -19 -3 -24 9 -4 16 -2 16 4 0 6 8 6 21 -2 13 -7 19 -17
16 -29 -3 -13 0 -17 10 -13 8 3 12 12 9 20 -3 8 -6 21 -6 29 0 11 -6 13 -20 9
-26 -8 -25 -3 6 45 14 21 24 47 21 57 -4 14 -5 13 -6 -4z"/>
<path d="M5288 1229 c-5 -49 -4 -54 11 -44 13 7 14 54 2 74 -6 9 -10 -1 -13
-30z"/>
<path d="M5220 1235 c-11 -13 -10 -14 4 -9 12 5 16 0 16 -21 0 -22 -4 -26 -19
-22 -11 3 -26 -4 -36 -16 -17 -19 -17 -20 1 -13 11 5 24 9 29 10 25 4 35 20
35 52 0 37 -10 43 -30 19z"/>
<path d="M4793 1216 c-11 -19 -93 -66 -116 -66 -15 0 -16 -2 -5 -14 7 -8 15
-10 16 -5 6 15 29 10 36 -8 4 -9 1 -20 -6 -25 -7 -4 -9 -8 -3 -8 5 0 4 -5 -3
-12 -15 -15 -16 -28 -2 -28 6 0 10 7 10 15 0 9 6 18 14 21 11 4 13 12 5 31
-10 26 2 53 23 53 5 0 23 14 40 30 20 20 25 30 14 30 -8 0 -19 -6 -23 -14z"/>
<path d="M4997 1196 c-14 -30 -14 -36 -1 -46 21 -18 40 2 39 41 0 44 -18 46
-38 5z m23 -37 c0 -5 -4 -9 -10 -9 -5 0 -10 7 -10 16 0 8 5 12 10 9 6 -3 10
-10 10 -16z"/>
<path d="M3790 1213 c0 -18 36 -43 71 -48 l34 -6 -39 20 c-21 11 -44 25 -52
32 -8 6 -14 7 -14 2z"/>
<path d="M5351 1188 c-14 -17 -40 -33 -67 -40 -41 -11 -60 -28 -31 -28 43 1
137 53 137 77 0 23 -15 20 -39 -9z"/>
<path d="M3926 1191 c-8 -12 9 -57 25 -67 8 -5 9 -3 3 7 -4 8 -7 24 -6 36 3
22 -13 40 -22 24z"/>
<path d="M4010 1189 c0 -5 5 -7 10 -4 6 3 10 8 10 11 0 2 -4 4 -10 4 -5 0 -10
-5 -10 -11z"/>
<path d="M3980 1150 c0 -11 0 -22 0 -25 0 -3 3 -5 8 -4 4 0 6 7 4 15 -3 16 22
29 38 19 7 -4 4 -18 -10 -39 -11 -19 -20 -40 -19 -47 0 -8 4 -4 9 9 5 12 15
23 22 23 7 1 18 2 23 4 6 1 15 3 22 3 6 1 13 12 15 24 2 12 9 23 16 26 15 5
16 -30 1 -45 -7 -7 -3 -10 15 -10 27 0 34 11 16 22 -6 4 -8 15 -5 26 5 15 1
19 -18 19 -19 0 -28 -8 -36 -30 -5 -16 -15 -30 -22 -30 -7 0 -10 11 -7 30 4
29 3 30 -34 30 -31 0 -38 -3 -38 -20z"/>
<path d="M5050 1125 c0 -33 2 -35 30 -33 27 2 30 6 29 33 -1 23 -3 25 -6 8 -6
-32 -33 -30 -33 2 0 14 -4 25 -10 25 -5 0 -10 -16 -10 -35z"/>
<path d="M3896 1135 c-3 -10 -2 -23 4 -29 15 -15 22 -2 12 24 -8 21 -9 22 -16
5z"/>
<path d="M4171 1128 c-1 -16 4 -28 9 -28 12 0 12 8 0 35 -8 18 -9 17 -9 -7z"/>
<path d="M4760 1141 c0 -6 5 -13 10 -16 6 -3 10 -1 10 4 0 6 7 11 15 11 9 0
15 -9 15 -24 0 -27 15 -43 24 -27 4 5 2 12 -4 16 -5 3 -10 15 -10 26 0 14 -7
19 -30 19 -16 0 -30 -4 -30 -9z"/>
<path d="M4840 1146 c0 -9 30 -14 35 -6 4 6 -3 10 -14 10 -12 0 -21 -2 -21 -4z"/>
<path d="M4420 1110 c0 -17 7 -20 40 -20 30 0 40 -4 40 -16 0 -12 -6 -15 -25
-10 -14 4 -25 2 -25 -3 0 -13 83 -20 95 -8 7 7 4 8 -7 4 -12 -4 -18 -1 -18 8
0 11 8 13 33 9 l32 -6 -25 21 c-28 23 -40 26 -40 10 0 -7 -7 -8 -17 -4 -10 4
-28 7 -40 6 -14 0 -23 5 -23 14 0 8 -4 15 -10 15 -5 0 -10 -9 -10 -20z"/>
<path d="M5012 1109 c-7 -11 -11 -23 -9 -25 7 -7 29 24 25 36 -2 6 -9 1 -16
-11z"/>
<path d="M5176 1121 c-4 -7 -5 -15 -2 -18 9 -9 19 4 14 18 -4 11 -6 11 -12 0z"/>
<path d="M5209 1120 c-1 -8 -1 -30 -1 -47 0 -24 -7 -39 -25 -53 -27 -21 -27
-35 -1 -25 20 8 48 58 48 87 0 28 -19 62 -21 38z"/>
<path d="M4870 1102 c0 -12 -9 -23 -20 -27 -16 -5 -20 -15 -20 -46 0 -38 1
-39 34 -39 22 0 36 6 40 16 9 25 7 32 -15 53 -19 17 -19 20 -4 28 15 9 15 11
1 22 -14 12 -16 10 -16 -7z m15 -72 c0 -28 -29 -40 -38 -15 -9 22 3 46 22 43
10 -2 16 -13 16 -28z"/>
<path d="M4920 1111 c0 -6 4 -13 10 -16 6 -3 7 1 4 9 -7 18 -14 21 -14 7z"/>
<path d="M4759 1083 c-8 -16 -18 -32 -24 -36 -6 -5 -1 -6 10 -4 11 2 19 8 18
14 -1 6 4 17 12 23 16 14 20 30 7 30 -5 0 -15 -12 -23 -27z"/>
<path d="M4680 1089 c0 -5 5 -7 10 -4 6 3 10 8 10 11 0 2 -4 4 -10 4 -5 0 -10
-5 -10 -11z"/>
<path d="M3908 1085 c-8 -8 3 -55 12 -55 5 0 8 14 8 30 -1 28 -8 37 -20 25z"/>
<path d="M4197 1073 c-4 -6 2 -13 13 -16 12 -3 20 -14 20 -26 0 -12 5 -21 10
-21 16 0 11 17 -13 46 -14 16 -26 23 -30 17z"/>
<path d="M4790 1071 c0 -6 4 -13 10 -16 6 -3 7 1 4 9 -7 18 -14 21 -14 7z"/>
<path d="M4907 1069 c7 -7 15 -10 18 -7 3 3 -2 9 -12 12 -14 6 -15 5 -6 -5z"/>
<path d="M5130 1070 c0 -6 7 -10 15 -10 8 0 15 2 15 4 0 2 -7 6 -15 10 -8 3
-15 1 -15 -4z"/>
<path d="M4368 1058 c9 -9 15 -9 24 0 9 9 7 12 -12 12 -19 0 -21 -3 -12 -12z"/>
<path d="M4410 1060 c0 -5 7 -7 15 -4 8 4 15 8 15 10 0 2 -7 4 -15 4 -8 0 -15
-4 -15 -10z"/>
<path d="M4650 1060 c-8 -5 -12 -12 -9 -15 8 -8 39 5 39 16 0 11 -11 11 -30
-1z"/>
<path d="M4957 1063 c-12 -11 -8 -65 3 -58 6 4 10 14 8 23 -1 10 1 23 5 30 8
12 -5 17 -16 5z"/>
<path d="M5013 1063 c-8 -3 -11 -14 -7 -29 5 -19 0 -27 -25 -41 -17 -10 -31
-20 -31 -23 0 -8 94 -5 108 3 6 5 15 6 20 3 4 -2 23 0 42 4 l35 9 -37 -2 c-37
-3 -49 5 -28 18 6 3 10 14 9 23 0 13 -3 12 -11 -5 -16 -33 -38 -37 -38 -8 0
18 7 26 25 31 14 3 25 9 25 13 0 7 -69 10 -87 4z m37 -13 c0 -5 -5 -10 -11
-10 -7 0 -9 -10 -5 -24 5 -22 -8 -45 -19 -34 -10 10 9 78 21 78 8 0 14 -4 14
-10z"/>
<path d="M4050 1018 c-12 -22 -12 -22 6 -6 10 10 15 20 12 24 -4 3 -12 -5 -18
-18z"/>
<path d="M5142 1024 c-7 -8 -8 -14 -3 -14 10 0 25 19 20 25 -2 1 -10 -3 -17
-11z"/>
<path d="M4230 904 c0 -12 6 -15 21 -11 20 5 69 -30 69 -50 0 -4 -144 -7 -320
-5 -203 2 -320 -1 -320 -7 0 -5 12 -11 28 -13 21 -2 28 -9 30 -30 2 -20 -1
-28 -13 -28 -42 0 -22 -61 39 -119 27 -26 36 -31 36 -18 0 9 -3 17 -7 17 -5 0
-21 16 -37 36 -26 33 -28 38 -13 49 10 7 31 10 54 6 38 -6 38 -7 35 -49 -4
-40 9 -72 29 -72 4 0 7 46 6 103 l-2 102 93 3 92 3 0 -31 c0 -23 -4 -30 -20
-30 -11 0 -20 5 -20 10 0 6 -15 10 -33 10 -42 0 -72 -29 -64 -62 8 -31 66
-100 78 -93 5 4 -5 23 -22 45 -38 47 -37 86 1 84 39 -2 40 -3 40 -27 0 -13 10
-34 21 -46 17 -18 29 -22 55 -18 28 5 33 2 38 -19 14 -55 26 -20 26 76 l0 100
40 0 c38 0 40 -1 40 -31 0 -18 -7 -37 -17 -44 -15 -11 -14 -14 5 -33 27 -27
42 -28 42 -2 0 16 7 20 36 20 l37 0 -6 -38 c-5 -39 6 -72 23 -72 6 0 10 44 10
100 l0 101 83 -3 82 -3 3 -49 c3 -52 -16 -86 -48 -86 -45 0 -54 72 -10 78 34
5 48 20 26 28 -23 9 -74 -14 -81 -37 -7 -22 13 -68 37 -83 13 -8 26 -7 47 1
28 10 30 9 33 -15 2 -14 8 -27 15 -29 9 -3 12 17 12 74 -1 129 -2 123 27 123
14 0 23 4 19 10 -4 6 -60 10 -135 10 l-128 0 -21 34 c-12 19 -28 37 -37 40
-29 11 -54 6 -54 -10z m-398 -89 c2 -3 3 -18 0 -35 -4 -25 -9 -30 -33 -30 -26
0 -29 3 -29 35 0 32 3 35 28 35 16 0 31 -2 34 -5z m288 -54 c0 -51 -3 -61 -24
-74 -21 -14 -26 -14 -45 -1 -28 20 -27 28 5 43 24 11 26 15 20 51 -6 38 -5 40
19 40 24 0 25 -3 25 -59z m207 22 c3 -31 1 -33 -32 -33 -32 0 -35 3 -35 28 0
36 8 44 39 40 21 -2 26 -9 28 -35z"/>
<path d="M5213 908 c2 -7 13 -12 24 -11 11 1 33 -11 48 -27 16 -17 25 -30 19
-30 -5 -1 -136 0 -291 0 -183 1 -283 -3 -283 -9 0 -6 37 -11 85 -13 88 -3 118
-21 45 -26 -31 -2 -40 -7 -40 -22 0 -10 5 -22 10 -25 14 -9 12 -51 -3 -63 -19
-16 -44 8 -59 56 -7 23 -16 42 -20 42 -15 0 -7 -34 17 -77 29 -49 60 -57 90
-23 15 17 16 24 6 46 -13 30 -10 37 19 39 23 2 23 -1 20 -68 -2 -45 11 -77 32
-77 6 0 8 40 6 98 l-3 97 50 0 c47 0 50 -2 50 -25 0 -18 -6 -26 -22 -28 -30
-4 -30 -40 -1 -77 18 -23 27 -26 59 -22 33 4 38 2 41 -16 4 -26 29 -36 26 -10
0 10 0 55 0 101 l2 83 87 -3 c74 -3 88 -6 91 -20 3 -15 -4 -18 -42 -18 -56 0
-91 -28 -80 -63 13 -41 67 -108 78 -97 8 8 8 13 0 18 -18 11 -54 75 -54 95 0
9 7 17 15 18 82 5 80 6 83 -42 3 -61 11 -89 23 -89 6 0 10 12 9 28 -1 15 -2
60 -1 100 1 70 2 72 27 72 14 0 23 4 19 10 -3 6 -22 10 -41 10 -21 0 -34 5
-34 13 0 23 -55 67 -84 67 -18 0 -26 -4 -23 -12z m-103 -148 c0 -55 -2 -61
-26 -72 -18 -8 -31 -9 -42 -2 -24 16 -25 32 -3 39 24 7 39 51 22 68 -18 18
-13 27 19 27 l30 0 0 -60z"/>
<path d="M5524 442 c-17 -11 -26 -43 -28 -97 -1 -36 -5 -49 -15 -47 -19 4 -51
-8 -51 -19 0 -5 16 -9 35 -9 l35 0 0 -85 c0 -69 3 -85 15 -85 12 0 15 17 15
89 l0 90 42 3 c59 4 63 28 4 28 l-46 0 0 50 c0 53 19 75 43 51 6 -6 20 -11 32
-11 18 1 18 3 -8 25 -28 25 -53 31 -73 17z"/>
<path d="M6299 443 c0 -5 0 -36 0 -70 0 -59 -2 -63 -23 -63 -40 0 -74 -24
-109 -77 -32 -49 -34 -56 -25 -93 10 -39 26 -51 71 -55 10 -1 32 11 47 27 26
26 51 24 34 -3 -4 -7 1 -10 12 -7 18 3 19 16 22 176 2 149 0 172 -13 172 -8 0
-15 -3 -16 -7z m-8 -170 c11 -63 -17 -127 -67 -153 -30 -16 -42 -6 -48 38 -3
26 4 41 36 77 35 40 76 59 79 38z"/>
<path d="M2603 424 c-40 -17 -81 -58 -89 -89 -3 -14 -10 -27 -14 -30 -8 -5 -6
-73 4 -82 3 -3 6 -14 6 -24 0 -9 21 -36 46 -58 43 -38 51 -41 106 -41 32 0 74
7 93 14 l35 15 0 83 0 83 -37 -3 c-87 -6 -123 -14 -123 -29 0 -9 7 -13 18 -10
9 3 38 8 65 12 l47 6 0 -55 c0 -65 -20 -86 -83 -86 -62 0 -103 23 -126 71 -26
53 -26 72 0 125 28 58 79 88 136 80 23 -3 52 -11 63 -18 15 -10 22 -10 32 0 9
9 3 15 -28 29 -49 21 -109 24 -151 7z"/>
<path d="M5786 433 c-3 -4 -6 -80 -6 -170 0 -149 2 -163 18 -163 15 0 17 15
17 165 0 115 -3 166 -12 169 -6 3 -14 2 -17 -1z"/>
<path d="M6428 433 c-10 -3 -18 -10 -18 -18 0 -15 48 -26 56 -13 9 14 -18 35
-38 31z"/>
<path d="M4887 393 c-4 -3 -7 -26 -7 -50 0 -43 -2 -45 -44 -47 -37 -2 -30 -26
8 -26 l36 0 0 -74 c0 -78 9 -98 49 -111 20 -6 94 25 106 45 13 21 -25 21 -54
1 -16 -12 -34 -21 -40 -21 -18 0 -31 46 -31 110 l0 59 53 3 c28 2 52 8 52 13
0 6 -24 11 -52 13 l-53 3 0 45 c0 41 -7 53 -23 37z"/>
<path d="M2918 300 c-25 -15 -48 -68 -48 -109 0 -39 32 -100 52 -102 64 -5
102 10 123 51 40 76 -1 170 -73 170 -21 0 -45 -5 -54 -10z m84 -37 c11 -10 18
-30 18 -52 0 -57 -9 -76 -42 -90 -29 -13 -31 -12 -54 15 -27 34 -30 64 -9 104
22 42 56 52 87 23z"/>
<path d="M3089 305 c-7 -6 89 -205 99 -205 7 1 102 189 102 203 0 4 -6 7 -14
7 -15 0 -61 -72 -67 -104 -8 -38 -26 -26 -59 39 -29 58 -47 75 -61 60z"/>
<path d="M3387 299 c-49 -29 -81 -124 -57 -170 14 -25 59 -48 91 -44 41 5 93
35 81 47 -7 7 -20 5 -43 -6 -42 -21 -51 -20 -77 4 -33 31 -27 47 20 55 66 11
107 41 108 77 0 38 -80 62 -123 37z m81 -41 c4 -18 -24 -34 -80 -45 -34 -7
-36 6 -5 41 26 31 80 33 85 4z"/>
<path d="M3577 304 c-4 -4 -7 -52 -7 -106 0 -92 1 -98 20 -98 18 0 20 5 17 48
-3 39 1 53 22 81 14 19 41 40 59 48 18 7 30 18 27 23 -10 16 -30 12 -69 -15
-45 -30 -46 -30 -43 -4 2 22 -13 35 -26 23z"/>
<path d="M3823 294 c-16 -12 -26 -13 -41 -5 -11 6 -22 7 -26 4 -3 -3 -6 -48
-6 -100 0 -84 2 -93 19 -93 15 0 19 9 23 54 5 61 47 130 76 124 14 -3 18 -19
20 -91 2 -77 5 -88 20 -85 14 3 18 16 20 68 2 35 1 74 -2 86 -13 51 -60 68
-103 38z"/>
<path d="M4065 290 c-16 -18 -20 -19 -27 -6 -5 8 -15 13 -23 10 -12 -5 -15
-27 -15 -100 0 -85 2 -94 19 -94 16 0 19 9 23 63 3 52 9 69 31 93 22 23 30 27
45 18 14 -9 17 -26 17 -93 0 -77 1 -81 22 -81 21 0 22 4 20 48 -3 51 11 88 44
117 15 15 24 17 37 9 13 -9 18 -29 20 -93 2 -63 6 -81 17 -81 12 0 15 17 15
85 0 72 -3 88 -20 105 -27 27 -75 26 -95 -2 l-16 -23 -16 23 c-20 29 -73 30
-98 2z"/>
<path d="M4419 297 c-28 -21 -59 -85 -59 -121 0 -44 26 -75 73 -86 32 -7 45
-4 80 15 33 19 38 25 24 31 -9 3 -28 -1 -42 -10 -34 -22 -52 -20 -80 10 -30
32 -26 40 23 49 60 10 102 40 102 72 0 21 -7 31 -27 41 -34 15 -73 15 -94 -1z
m88 -33 c5 -15 -34 -39 -75 -48 -39 -9 -43 6 -10 41 23 25 78 29 85 7z"/>
<path d="M4677 290 c-24 -19 -27 -19 -35 -4 -5 10 -16 15 -24 12 -11 -5 -15
-29 -16 -102 -1 -89 0 -96 18 -96 16 0 20 7 20 38 0 41 29 110 54 131 33 27
45 6 48 -81 3 -70 6 -83 21 -86 15 -3 17 6 17 82 0 75 -3 88 -22 106 -27 25
-48 25 -81 0z"/>
<path d="M5261 296 c-57 -32 -70 -125 -23 -176 50 -57 128 -44 157 26 19 46
19 77 0 114 -26 49 -82 65 -134 36z m89 -33 c13 -12 20 -30 20 -54 0 -52 -8
-67 -42 -85 -29 -15 -31 -14 -57 10 -24 23 -29 44 -22 96 2 18 41 50 61 50 11
0 29 -8 40 -17z"/>
<path d="M5990 303 c-8 -3 -22 -12 -32 -20 -11 -10 -18 -11 -23 -4 -3 6 -13
11 -21 11 -11 0 -14 -19 -14 -95 0 -78 3 -95 15 -95 11 0 15 11 15 37 0 48 34
116 66 133 36 20 44 3 44 -93 0 -68 2 -78 17 -75 13 2 17 18 20 79 3 69 1 78
-21 102 -25 27 -37 30 -66 20z"/>
<path d="M6420 306 c-3 -2 -4 -50 -2 -105 3 -93 5 -101 23 -101 19 0 20 6 17
102 -2 83 -6 103 -18 106 -9 1 -18 1 -20 -2z"/>
<path d="M6573 294 c-18 -8 -33 -19 -33 -24 0 -13 47 -13 55 0 11 18 64 11 75
-9 21 -41 13 -51 -41 -51 -65 0 -109 -28 -109 -70 0 -23 7 -32 36 -46 33 -16
38 -16 70 0 43 20 53 20 76 -1 27 -24 49 -2 25 25 -13 14 -17 37 -17 90 0 62
-3 73 -22 86 -27 19 -72 19 -115 0z m107 -121 c-1 -14 -73 -63 -91 -63 -28 0
-43 35 -23 54 16 16 114 23 114 9z"/>
</g>
</svg>
